<?xml version="1.0" encoding="UTF-8"?><svg id="Layer_1" xmlns="http://www.w3.org/2000/svg" viewBox="0 0 807.78 74.79"><defs><style>.cls-1{fill:#fff;}</style></defs><path class="cls-1" d="M47.65,74.79l-14.42-20.83h-15.92v20.83H0V0H32.37c6.62,0,12.37,1.11,17.25,3.31,4.88,2.21,8.64,5.34,11.27,9.4,2.63,4.06,3.95,8.87,3.95,14.42s-1.34,10.35-4.01,14.37c-2.67,4.02-6.46,7.1-11.38,9.24l16.77,24.04h-18.59Zm-4.38-57.32c-2.71-2.24-6.66-3.37-11.86-3.37h-14.1v26.07h14.1c5.2,0,9.15-1.14,11.86-3.42,2.71-2.28,4.06-5.48,4.06-9.62s-1.35-7.43-4.06-9.67Z"/><path class="cls-1" d="M143.37,60.9v13.89h-57.91V0h56.52V13.89h-39.32V30.13h34.72v13.46h-34.72v17.31h40.71Z"/><path class="cls-1" d="M164.1,0h17.31V60.68h37.5v14.1h-54.81V0Z"/><path class="cls-1" d="M285.46,58.76h-34.72l-6.62,16.03h-17.73L259.72,0h17.09l33.44,74.79h-18.16l-6.62-16.03Zm-5.45-13.14l-11.86-28.63-11.86,28.63h23.72Z"/><path class="cls-1" d="M368.26,74.79l-18.06-25.96-17.73,25.96h-19.87l27.67-38.03L313.99,0h19.66l17.2,24.25L367.73,0h18.7l-26.07,36.11,27.88,38.67h-19.98Z"/><path class="cls-1" d="M437.06,48.29v26.5h-17.31v-26.71L390.8,0h18.38l19.98,33.23L449.14,0h16.99l-29.06,48.29Z"/><path class="cls-1" d="M586.1,0V74.79h-17.31v-30.66h-33.97v30.66h-17.31V0h17.31V29.49h33.97V0h17.31Z"/><path class="cls-1" d="M660.03,58.76h-34.72l-6.62,16.03h-17.74L634.28,0h17.09l33.44,74.79h-18.16l-6.62-16.03Zm-5.45-13.14l-11.86-28.63-11.86,28.63h23.72Z"/><path class="cls-1" d="M699.56,0h17.31V74.79h-17.31V0Z"/><path class="cls-1" d="M789.19,74.79l-14.42-20.83h-15.92v20.83h-17.31V0h32.37c6.62,0,12.38,1.11,17.25,3.31,4.88,2.21,8.63,5.34,11.27,9.4,2.63,4.06,3.95,8.87,3.95,14.42s-1.34,10.35-4.01,14.37c-2.67,4.02-6.46,7.1-11.38,9.24l16.77,24.04h-18.59Zm-4.38-57.32c-2.71-2.24-6.66-3.37-11.86-3.37h-14.1v26.07h14.1c5.2,0,9.15-1.14,11.86-3.42,2.71-2.28,4.06-5.48,4.06-9.62s-1.35-7.43-4.06-9.67Z"/></svg>