<svg id="Layer_1" data-name="Layer 1" xmlns="http://www.w3.org/2000/svg" viewBox="0 0 1280 1017.17"><defs><style>.cls-1,.cls-2,.cls-8{fill:#fff;}.cls-2{font-size:153.97px;font-family:Montserrat-Bold, Montserrat;font-weight:700;}.cls-3{letter-spacing:0.01em;}.cls-4{letter-spacing:-0.01em;}.cls-5{letter-spacing:-0.01em;}.cls-6{letter-spacing:-0.02em;}.cls-7{letter-spacing:-0.02em;}.cls-8{font-size:68.14px;font-family:Montserrat-Medium, Montserrat;font-weight:500;}.cls-9{letter-spacing:-0.02em;}.cls-10{letter-spacing:-0.01em;}.cls-11{letter-spacing:0em;}.cls-12{letter-spacing:0em;}.cls-13{letter-spacing:-0.02em;}.cls-14{letter-spacing:-0.01em;}.cls-15{letter-spacing:-0.01em;}.cls-16{letter-spacing:0em;}.cls-17{letter-spacing:-0.01em;}.cls-18{letter-spacing:-0.01em;}.cls-19{letter-spacing:0.01em;}.cls-20{letter-spacing:0em;}</style></defs><path class="cls-1" d="M920.27,482.42c21.71-48.9,34.57-98.64,32.5-152.63-4.21-109.57-51.41-195-143.76-252.44C720.16,22.08,623.44,12.1,525.07,48.54,445.37,78.06,390.41,136.18,357.3,214c-29.62,69.66-35.39,141.67-14.73,215,17.83,63.25,57.16,111.28,108.76,150.25,2.94,2.23,6.28,4,9,6.45,14.29,12.91,27.59,16.77,47.07,6.3,44-23.63,87.76-9.72,129.54,8.58,22.17,9.71,42.49,23.67,63.65,35.71h0c-.73,4.85-4.12,8.08-9.37,9.42-7.81,2-16,2.73-23.36,1.18-15.52-3.26-30.17-10.52-45.39-15.45-7.25-2.35-15-3.24-25.59-5.43,6.07,18.47,18.31,24.18,31.47,25.9,19.24,2.51,39,5,58.18,3.15,29.66-2.87,29.51-4.43,23.71-35.41,44.48-15.1,86.06-45.25,143.37-24.72-12,7.53-19.54,13.35-27.94,17.33-40,18.89-80.71,36.23-120.15,56.14-42.17,21.28-85.83,25.6-131.35,17C437.92,659.61,326.59,553.67,300.67,414c-25.8-139,15.39-258.58,130.86-345.44,83.75-63,178.89-83.17,281.53-58,97.42,23.84,170.79,81.22,220,168,32.94,58.12,40.47,122.07,34.17,188.08C963,410,946.5,448.27,920.27,482.42Z"/><path class="cls-1" d="M718.44,187.12l4.82.87v-1.35l8.11-4.67c.89,2.53,2.51,2.23,5,.59,1.68-1.14,4-1.21,6.16-1.79-.1,4,.18,3.65,3.41,3.8,3.42.15,6.05-.32,7.93-3.57.27-.46,1.16-.51,1.62-.69-.58,1.93-1.51,3.76-1.46,5.57,0,.6,2.53,1.12,3.9,1.68l.44-.84-1.21-2,6.15-1.36c-.13-.32-.32-.81-.52-1.3,2.53-1.41,4,.23,4.14,5l5.19-.49-.8,1.52c2.63,2,5.09,4.06,7.73,5.82.65.43,1.85-.06,2.81-.13l.12-.86-1.87-1.19,2-2.95,1.45,1.8,6.26-3.3.54.89c-1.77,1.89-3.54,3.78-5.22,5.59,2.9,1.46,4.45.75,5.22-2.55.15-.66.84-1.18,1.28-1.76.5.44,1.44.9,1.43,1.33-.08,4,2.33,2.93,5.07,2.14L794.63,197c3.94,2.16,4.83-4.86,8.62-2.45l-2.34,4.75,6.42-2.63-2.49,4.36.63.9,8.5-5.77.47.71L808,202.78h4.65l.11.41-2.54,1.16c0,.27.07.54.1.81,1.67-.18,3.35-.3,5-.58a20.16,20.16,0,0,1,5.29-.53c-1.16,1.13-2.31,2.27-3.19,3.14l17.9,1.61-.08.94-4.09.33-.1.54,3.13.77-.33.69a17.78,17.78,0,0,0,2.85,2c3.78,1.64,7.63,3.11,11.41,4.73.53.23.86,1,1.53,1.79l-6.38-.81-.3,1.08,7.83,3.69-19.56,1.4c-1-1.55-4.88-1.52-6.3.35a4.94,4.94,0,0,1-2,1.37,14.6,14.6,0,0,1-3.61,1.1,3.74,3.74,0,0,1-2.16-.75c-2.08-1.27-3.91-2.58-6.64-1.18-1.23.63-3.22-.41-5-.73v2c-5.68-1.94-7.24,3.34-10.14,6.45-1.64-1.67-3.17-2.79-5.18-.65-.48.5-1.89.43-2.7.11-4.61-1.79-6.2-1.34-9.28,2.76a30.59,30.59,0,0,1-2.68,2.74c-.27-4-2.11-2.79-4.14-2.09l1.6,3c-1.81.14-3.56.75-5,.25s-2.69-2.11-4-3.23l4.11-5.14-.83-1c-.64.35-1.62.53-1.87,1.08-1.29,2.88-2.66,3.33-5.39,1.61a5.52,5.52,0,0,0-1.71-.44l-1.46-.33,8.09-7c-2.34-2.73-5.09-2.68-7.84-2.17-3.73.69-7.4,1.78-11.14,2.36-4.11.64-8.28.9-12.42,1.31-1.44.14-2.89.21-4.88.35l13.93,6.31a12.45,12.45,0,0,1-7.79-.06c-8-2.61-16.16-3.74-24.43-.8-3.67,1.31-7.5,2.11-11.25,3.17-.33.09-.59.44-1.26.95,4.91.6,8.95-.7,13.24-2,3.9-1.16,8.39-.21,12.61,0,1.44.06,2.85.77,4.29.86,4.9.3,9.82.73,14.71.55,3-.11,6-1.74,9-1.77,2.75,0,5.52,1.15,8.2,2.38-3.7,1.48-7.95-1.25-10.87,3.43.31,1.82,11,3.6,15.34,2.39l3.86,1-2.94,1.67a56.35,56.35,0,0,0,7.09,1.39c3.11.21,4.63,1.88,5.29,5.36-3.59-1.23-6.22-4.6-10.31-4,.39,3.35,5.89,1.39,4.58,5.76h-7.69l-.64.75,1.74.93-1.87,1,2.79,1.85a40.15,40.15,0,0,1-4.54.88c-2.89.21-3.42-2.7-4.23-4.47-1.33-2.9-3-3.52-5.69-2.79a7.05,7.05,0,0,1-2.5-.28c.54-4.21-.15-4.66-7.32-5.05-.35.37-.71.74-1.06,1.12a12.9,12.9,0,0,1,2.65,1.26,8,8,0,0,1,1.48,1.74l-3.19,5.54-.74-.29c.11-1,.22-1.89.34-3-.6-.18-1.88-.28-1.93-.62-.58-3.53-2.29-2.37-4.57-1.9-2.63.54-5.06.33-6.89,3.21-.49.78-3.49-.23-5.83-.48l1.57,2.3c-2.62-.15-4.94.34-6.44-2.53-.59-1.11-2.2-1.61-3.34-2.39l-2,2.65-4-3.35c-1.35,2-2.67,1.67-4.18,0-.42-.46-1.65-.07-2.51-.07.06,1-.18,2.57.24,2.8,2.33,1.26,4.06,3.34,7.1,3.81,2.16.34,4.63.61,7.66,1.27-3.46,2.1-5.54,5.78-9.71,2.52-.23,1.78-.37,2.77-.43,3.24-2.73.64-5.34,1.07-7.85,1.89a9.29,9.29,0,0,1-4.7.34c-3-.48-6.3-1.38-9.24.72a2.19,2.19,0,0,1-1.33.52c-2.22-.29-2.21-.33-3.79,1.41L677.71,268c-1.87.51-1.16,4.76-3.55,3.49l-6,4.44-.56-.84,2.81-2.07-3-4,13.81-10.33c-2-1.92-4.13-1.35-5.8.18-4.75,4.35-9.42,8.82-13.86,13.52-1,1.08-1.42,3.31-1.36,5,.26,7.4.74,14.79,1.27,22.18a16,16,0,0,0,1.2,3.72c1.14-.74,2.52-1.25,3.36-2.27a20.15,20.15,0,0,0,3.44-5.54c2.53-6.91,7.18-10.45,14.27-10.63.21-1.22.39-2.32.63-3.69l-9.9-1.08,4.06-1.8-.06-.54-6,.49c-.14-.42-.28-.84-.41-1.26a30.44,30.44,0,0,1,4.29-2.27c4.29-1.49,8.63-2.79,13-4.14a3,3,0,0,1,1.47-.23c3.26.81,6.33.25,9.57-.59,2.3-.59,4.72-.14,6.84-2,.91-.81,2.67-.55,4.3-.81l-1.37-2.42c2.79-.62,5.4-1.24,8-1.76a3.2,3.2,0,0,1,2,.19c2.77,1.61,5.13.37,7.91-.35,3.47-.89,7.36,0,11.06.17A23.46,23.46,0,0,0,743,263l5,2.2c-.12-1.35-.18-2.08-.25-2.83,7.81-2.54,7.81-2.54,9.8-.87-1.19.77-2.26,1.36-3.23,2.11a20.61,20.61,0,0,0-2,2,8.44,8.44,0,0,0,2.17,1.3c2.24.55,4.51,1.15,5.8-2,.39-1,1.51-1.58,2.28-2.33l2.66,3.54c1.11-2.68,2.36-3.37,4.57-1.81.71.5,3.28-.37,3.28-.61,0-3.35,3.2-2.82,4.77-4.62l-4.09-1.4.13-1.11c1.54.09,3.09.24,4.63.25s3.06-.12,4.67-.2L786,260l-6.27,4.06c.17.4.33.8.49,1.2,2.89-.74,5.83-1.32,8.66-2.26,3-1,6-2.28,9-3.57,1.9-.83,3.42-2.1,3.15-5.65l-11.18,5,1.79-5.07-.79-.36c-.46.74-.93,1.48-1.45,2.3l-3.09-.82.46-.57-3.38-3.38,1.07-2.84c-3.49,2.25-3.9-1.22-5.52-2.47l-3.64.29L782,240.7c-1.08-3.6-1.08-3.6,4.93-4.6.21.85.43,1.72.66,2.62,2.5-1.31,2.5-1.31,4.09,1.94l3.12-4.45c.94,5.24,3.1,6.2,6.32,3.33a13.21,13.21,0,0,1-3.34-4.1h3.5c-1.5-2.9,0-3.5,2.21-3.82,3.32-.46,6.58-1.37,9.9-1.71,1.56-.15,3.21.6,5.12,1l-2.1,3.56,8.07-1.72-1,2.28,6.27,2.06-.15.83-4.38.82,3.91,1.82L825.48,242l3.92,1.53v.52c-1.69,0-3.55.49-5-.1-3.08-1.23-5.71-1.31-8.47,1.78a29.79,29.79,0,0,0,3.35,1c2.39.42,4.7-.48,7.19,1.62,1.73,1.46,5.18.64,7.86.83l.26-1a13.21,13.21,0,0,0,1.4,1.87c1.17,1.09,3.88.26,3.59-1.07-.79-3.55,2.2-2.65,3.52-4.15.32,1.12.53,1.89.91,3.26l7.41-4.39.51.81-3.46,2.7h10.37l.24.92L845.64,253l.21,1.13,20.68-3.89c-4.13,5.41-10.62,3.35-15.83,5.3l.16.8,14.16-.85c.06.4.12.79.19,1.19-.73.35-1.45,1-2.18,1-4.15,0-8,2.67-12.45.95-1.69-.66-3.87.06-5.84.15v.79l8.5,1.91-.19.71-16.54,3.06.07,1.66c1.82.14,3.64.39,5.46.42,3.57,0,7.16-.51,10.48,1.74,1,.65,2.51.44,3.78.39,2-.09,4-.37,6-.57l.16,1-2,1.43,7,.48.08,1-3.29,1,5.35,4.23-.48,1.05-15.19-4.66-.85,2.35c-2.26-1.23-4.08-4.19-7.33-1.81l6.78,3.09-5.3,2.12,4.18,2.42-4.21,2.83,9.19-.48.2.88L853.76,287l6.21,1.91.1.62-5.63,1.06c3.23,2.1,6-1.35,9-.49l-5.35,3,.16.45h12.3v.78l-5,.48v1h14.45l.08,1-22.6,2.58c4.71,2.1,9.6-1.83,13.57,2.32-5.36.82-10.76-1.35-15.43,1.17-.07,1.76-.13,3.18-.21,5.08l-8.66.89a25.87,25.87,0,0,1-3.9-3.07,14.7,14.7,0,0,1-1.65-3.48l-12.59-7.58v3.7l-5.48-1.91-.15.8c-.33-1.33-.65-2.66-1.17-4.79l-1.93,3.14-2.63-1c.12,1.07.24,2,.38,3.18h-2.4c.25.9.43,1.59.72,2.66l-3.56-1.61-.18,2.58h-4.79l4.75,3.33c-2.06,1-3.12,3.79-5.76,1.3-.73-.68-2.64,0-4.45.13.59,2.42,1.07,4.39,1.55,6.34l-4.32-2.3-.43.59,2.57,2.23-2.62,1.09,1.71,2.27c-.83.56-1.66,1.11-2.48,1.68s-1.38,1-1.94,1.42l-6.51-3.14-1.23,1.55c-.33-.27-.71-.41-.76-.63-.73-3.19-5.9-6.33-8.76-5.17-.49.2-.78,1-1.16,1.52.51.4,1,1.14,1.53,1.13a12,12,0,0,1,3.87,0L780.17,317a14.87,14.87,0,0,1,3,1.1,9.7,9.7,0,0,1,1.76,2c-2.88.64-5.2,1.09-7.48,1.69-1.48.39-1.64,3-.25,4.46a34.81,34.81,0,0,0,2.87,2.35l-2,1.59c.56,1.58,1.11,3.14,1.72,4.85a35,35,0,0,0-4-.41,40.41,40.41,0,0,0-4.44.6l-3.88-3.74c1.35-.17,2-.31,2.64-.32,1.91,0,3-.64,2.61-3.05-.2-1.35.31-2.81.55-4.62l-7.78-1.05,2.12-1.59-1.25-.81,2.63-2.36-4.18-10.63-4.86,2a11.3,11.3,0,0,1,2.16,1.55,28.68,28.68,0,0,1,3.45,4.9c.3.58-.58,1.82-.92,2.76l-2.23-1c.17,1.69.35,3.57.57,5.83l-3.75-1.26a3.87,3.87,0,0,0-.21-1.41,16,16,0,0,0-1.5-2,10,10,0,0,0-1.34,2.39,14.19,14.19,0,0,0-.06,3.28L753,322.26v4.65l-8.19-.57,4.3-2.22-.1-.69-3.48.21-.44-.81,10.56-7.61-1.64-.87,1.16-1.76-5.09-.27c.14,1.25.28,2.42.47,4-2.38-1.56-2.94.22-3.69,2a44.5,44.5,0,0,1-2.38,4.4l-1.15-.55c.63-2.06,1.27-4.13,1.93-6.28l-3.14.42-.15-.6,3.42-3.31-2.56-1,1.14-2.83c-3.94-.41-4.27,2.67-5.1,6.28-1-1.69-1.36-3.08-2.22-3.67s-2.23-.4-3.21-.53l1.54-5.35a23.83,23.83,0,0,0,3.53,1,4.33,4.33,0,0,0,3-.37,16.55,16.55,0,0,0,3.31-3.65,11,11,0,0,0,1-2.72,12.19,12.19,0,0,0-2.7,0,16.79,16.79,0,0,0-2.48,1.08c-.47.19-1.3.5-1.41.35-1.76-2.74-3.36.26-5.73.25,3.87-5,10.12-4.56,14.19-9-13-4.45-26-2.37-38.84-3,.52,2.23.52,2.23,4.1,2.15,1.51,2.72-.79,2.9-2.59,3.92,4.39,1.09,9.7-.33,11.68,5.32l-5.27.84,2.61,2-.18.51-4.25-.91,2.31,2.71-5.43,1.52,4.63,3.61-.34.7-6.66-2.82c.65,1.57,1,2.32,1.3,3.12l-3.66-.53,3,2.1c.37,3.57-1.61,5.59-4.4,7.08l1.46-2.52c-1-1.9-2.08-3.77-3.25-5.87l1.52-2.49-3.34-.93c-.9,1.87-1.81,3.78-2.68,5.61l-2-3.09c.77-.66,1.6-1.37,2.85-2.42l-3.53-1,6.1-6.14-5.18-.27c2-1.44,5-.77,5.78-4.46-2.84.9-5,3.39-7.94.62l5.43-1.89-.09-.5-4.29-.45c3.51-1.19,6.61-1.49,8.3-5.13-2.35-.15-4.36-.3-6.37-.39-.49,0-1.32,0-1.42.27-1.49,3.95-3.32,1.75-5.58.74-6.47-2.9-13.11.31-15.39,7.25-1.41,4.28-3.94,7.31-7.24,10.17a47.49,47.49,0,0,0-9.13,10.71c-3.76,6.09-6.54,12.88-12.09,17.59a3.68,3.68,0,0,0-.6,1c1.76,1.11,3.27.55,4.94-1.73a32.08,32.08,0,0,1,2-2.73c.44-.49,1.49-1.18,1.67-1,3,2.66,5.07-.5,7.51-1.26.16-.05.37.08.77.19l-1.89,2.45,2.4,1-5.68,2.58,5.28,3.12-2.33,2.3c2.43.59,4.6.29,5.87-1.71.36-.56-1.2-2.5-2-4l2.56-1.06L666.36,333l4.18-3.16c.28,1.25.52,2.28.8,3.47l3.81-3.35c.08,1.66.12,2.41.15,3.18,4.29-.81,8-3,12.22-3.13s8.36-.53,12.58-.4c-2.83,3.35-8.2-.1-10.29,4.82,2,2.17,6.11,1.4,9.94-1.9,2.92,2.56,5.74.95,8.57.36l7.1.75,0,1.18-12.5,1.58c1.07,1.21,1.74,2.58,2.73,2.93a10.34,10.34,0,0,0,4.3.09c1.69-.17,3.36-.56,5.55-.94l-.93,3.27,11.76,2-.2.87L734,343c.07.39.15.78.22,1.17l-6.08,1.37,3.26,1.09,0,.88-4.88.92,1.84,1.22,0,.59-5.64-.34c-1.05,4.29-4.06-.32-5.8,1.85-.42,2.48-1.25,2.72-4.79.84L710,356.19,708.27,353h-2.82c.2-.85.38-1.57.62-2.57h-4c1.44,5.39-2.61,2.21-4.06,3.11.45,1.68.89,3.34,1.34,5l-1,.58-1.87-3.66c-.78,2.31-1.17,3.49-1.72,5.15-.54-1.84-.54-3.76-1.36-4.3-1.59-1.05-3.63-1.32-6-2.09,1.94,4.1,1.28,6.05-1.82,7.12-.35-4.51-2.94-1-4.62-1.49,0-2-1.24-3.55-2.85-2-1.77,1.72-3.1,1.16-4.8.57-.5-.17-1.14.13-2.42.31l3.11,2.82-6.52.54,0,.73-1.64-1.65c-.34.58-.63,1.07-.72,1.24h-7.63c.85.84,2.63,1.88,2.53,2.63-.42,3-2.57.29-4.2,1l6.6,6.58-4,4.61-1.74-6.73-2.92.85c-.09-.91-.18-1.78-.2-2l-3.78-2.36c-2.63.54-4,2.6-3.88,5.94.16,7.05.25,14.1.38,21.92,1.46-.94,2.22-1.33,2.88-1.86,5.29-4.34,10.43-8.9,15.86-13a115,115,0,0,1,30.39-16.13q20.32-7.49,40.61-15.08a15.62,15.62,0,0,0,2.22-1.32l-1.78-2.6.45-.75,4.45,2.34c1.67-1.16,3.61-2.16,3.29-5.34-.08-.81,1.84-1.85,2.84-2.79l1.61,2.65c1.2-1.38,3.16-2.74,3.82-4.61,1-2.79,2.82-3.66,5.09-4.66,3.66-1.62,7.15-3.67,11.18-5.79-2.82,3.71-6.32,5.47-10,6.81-2.7,1-4.59,2.49-4.62,6l1.78-.85.33.39-1.68,2.2c4.49,2.16,5.27,1.71,6.13-4.2,1.49.64,2.83,1.59,4.24,1.72s3.05-.51,4.78-.85c.16.8.31,1.54.43,2.09l5.61-3.19c.08.74.16,1.42.27,2.45l2.11-2.08,1,2.47,1-.37c.33-1.28.65-2.56,1.09-4.29l3.57,3.13-3,2.62.12.94c4.76-1.64,9.86.35,15.07-2.46l-3.29-3c4.25.14,8.25,1.74,11.29-2L802.8,332l.39-1.68-5.83,1c.26-1.63.47-3,.68-4.3l-.64-.6-3.16,3.31L791.51,328c-2.57,3.56-3.6,3.88-7.5,2.43.22-1.07.44-2.14.67-3.22l-4.27-2.11,2-2.2,4,1.39-.14-1.88c2.25.86,4.69-1.79,7,.6.53.53,2.86-.37,4-1.2,2.62-1.91,5-4.2,7.52-6.29.25-.22.72-.14,1.32-.24-1.32,2.07,1.41,5.76-3.21,6.2,4.44.86,8.44,3.23,12.42-1.17v2.82c3.45-.58,5.48-5.07,9.56-3.61l-.75,3.16,4.55-1.54,2,2.5a22.89,22.89,0,0,1,1.88-1.93c1.28-1.05,2.63-2,4-3l1.63-1.18,10.48-2.71-.17-.95-2.62.39c.45-.88.71-1.89,1-1.9,2.27-.1,4-2.81,6.81-1.11.69.42,4.07-1.87,4-2.66-.33-3.19,1.35-2.66,3.06-2.59,1,0,2,0,3,0l.13-.83-2.58-1.72c2.24,0,4-.58,5,.14,1.26,1,2.09.08,3,.23,5,.83,8.46-2.45,12.26-4.85.2-.13.56,0,1.06.06l-3.22,4.13c2.86,1.8,3.42,1.51,4.69-2H889l-1.63,2.51c1.37-.07,2.87.32,3.3-.24,2.63-3.34,6.08-2.11,9.28-2.2,2-.06,4.06,0,6.38,0L905,303.57c2.88-.6,5.55-.64,7.75-1.74,2.54-1.28,4.74-1.29,7.87-.13l-4.35.84.84,1.68c-3.26-.22-6.16.18-8.4,3.07,2-.13,4.08-.68,6-.32a7.64,7.64,0,0,0,7.16-2c.83-.75,2.62-.3,4.18.24l-6.77,4.59,16.19-.87.09,1.07L926,311.38c0,.44,0,.89.08,1.33h18.59c-1.55,1.65-2.19,1.79-7.82,2-4.73.13-5.82.81-6.09,4.13,5.89-1.83,11.74-4.49,17.94-1l-15.39,1.51c0,.42-.07.84-.11,1.26l3.53,1.42c0,.19,0,.38,0,.57-1.6.13-3.2.32-4.8.37-2.23.08-4.48,0-6.71.11-.61,0-1.18.64-1.77,1a10.39,10.39,0,0,0,2.07,1.11,19.34,19.34,0,0,0,3,.4l.09,1.21c-2.36.39-4.74.68-7.07,1.2-1,.22-1.93,1.28-2.89,1.28a23.18,23.18,0,0,1-6-.75c-3.79-1-7.32-1.23-10.65,2.41l4.21,1.67c.81,3.1.65,2.85,3.41.88,1.53-1.09,3.69-1.21,5.57-1.76l.41,1c-.22.61-.44,1.21-1.06,2.89l12.7-1.78.12.49-6.18,2.14.15.81,12.18-1.51c0,.29.06.58.1.87a17.72,17.72,0,0,0-3,.43,9,9,0,0,0-2,1.26,6.16,6.16,0,0,0,2.16.76,32.48,32.48,0,0,1,7.76,0l-5.66,2,4.9,1.32-.09.81-10.94-.73c1.22,1.83,2.41,3.6,3.59,5.38l-.81.69-4.63-4.07c-.67,3-1.86,2-2.8.95l-4.4,1.65c.53,1.4,1.08,2.86,1.62,4.32l-.67.42-3.5-4.24,1.31-2.28L912.62,343l-4.5,2,2.78,1.86c-.17,1.6-.36,3.3-.55,5l-7.76.55,1.94,2.22-10.34,1.21-.21-.9,3.09-1.68-4.67-2.06,5.05-3.62-.57-1.23-4,1.2a41.08,41.08,0,0,0,.83-6.06c0-.54-1.46-1.09-2.51-1.81-.44,2.11-.8,3.81-1.2,5.72l-2.42-.48c-.12-1.33-.24-2.68-.37-4l-.92,0c-.1,1.12-.21,2.24-.27,2.83l-5.86,4.42-.42-.54,1.91-2.5-2.8-1.12,4.38-1.66c-.8-1.27-1.32-3-2.14-3.21a10.11,10.11,0,0,0-5.39.47c-.47.18-3.16.67-1.89,2.95l-3.85.56c.09.46.21,1.1.32,1.71l-3.37,1.79L864.75,343c-1.65,1.25-2.67,2.44-3.9,2.78-.57.15-1.55-1.35-2.64-2.37-1.38-.11-3.42,4.63-5.19-.68-.7.95-1.18,1.62-1.82,2.48l2.36,1.57c-.64,2-1.73,3-3.76,2.13-4.51-1.86-9.09-3.18-14-1.93-.32.08-.74-.24-1.24-.42v-2.9a6.39,6.39,0,0,0-1.82,0c-7,2.32-13.86,1.1-20.83,0-2.1-.35-4.39.54-6.59.91-1.85.31-3.69.69-5.62,1.05.87,1.95,1.88,2.88,4.38,2.88,4.39,0,8.79.95,13.16,1.62a4.22,4.22,0,0,1,2.49,1.75c-7.7,1.5-15.67,0-23.55,3.07l2.65,1.14.07.68c-1.45.21-2.91.5-4.37.6a16.15,16.15,0,0,0-4.62.61l3.58,1.19-6.12,2.6,7.13.84v.29l-5.46.72v.57l2.4.31c-.56,4.91,3.33,2.93,5.58,4.09l.57,3.65L791.49,369c-4.4,1.89-7.83.95-11.48-2.27.21,1.57.31,2.27.4,3l-.63.56c-1-1-1.84-2.23-3-2.74-.75-.34-1.94.43-2.88,1.21-2.71.55-5.18-2.66-8.52-.16l3.9,5.71-6.15-1.89c-.94,1.47-2.16,1.73-4.22.49s-4.65-1.53-7.27-2.31c-.69-1.68-1.59-3.89-2.56-6.24-2.36,1.46-4.83,2.7-7.39.32l1-.64-.09-.69c-2.49.17-5.25-.33-7.41.66-2.61,1.21-4.07,0-5.93-1.2l4.49-1.67c0-.35.09-.7.13-1-1-.38-2.06-1.28-2.85-1-16.07,4.9-32.34,9.3-47,18.27-.75.46-1.43,1.06-2.76,2.06l4.76,1,.13.59a33.31,33.31,0,0,1-5.13,1.1,16.42,16.42,0,0,0-9.85,4c-9.67,7.87-16.55,17.9-21.49,29.62-5.23,12.38-11.06,24.74-12.39,38.26-1.05,10.67-4.07,21.47-1,32.44.66,2.4.08,5.28-.26,7.88-1.47,11.15,1.42,21.64,4.13,32.15,1.21,4.66,2.75,9.22,4.41,14.72-3.47-.7-6.64-1.39-9.84-2-1.41-.24-3.35-.9-4.22-.21-3.86,3.1-7.6.93-11.4.28-.48-.09-1-.59-1.39-.47a16.89,16.89,0,0,1-7.19.26c-3.22-.41-6.62.83-9.94,1.33-1,.14-2,.18-3.46.32,1-1.33,1.57-2.22,2.24-3.06,7.11-8.86,7.64-19.61,7.72-30.46,0-4-.31-8.06-.08-12.06A37.67,37.67,0,0,0,604,477.85c-7.67-18.14-15.39-36.28-22.45-54.69-2.83-7.38-3.75-15.55-6-23.22-2.53-8.68-5.47-17.22-8.41-25.76-.54-1.55-2-2.69-2.93-4.14a13.9,13.9,0,0,1-.94-3l-9.54-1.11c1,4.16,5,.67,6.54,3.6l-14.72,1-1.24-3-.29.84L532,367.1l-.05-.59,3.35-1c.2-2.22-.66-3.22-3.06-3.06l4-3.24-1.62-2,3-1.25-.63-1c-3.44.4-7.13-3.8-10.1,1.18-1.87-2.25-3.59-1.78-5.35-.46-1.21.9-2.24,2.47-3.92.47-.34-.41-1.85.38-2.83.43-1.6.09-3.22,0-4.83,0l-.13-.8,15.09-4.33c-2.7-2.1-4.63-2.12-7.28-.43a5.62,5.62,0,0,1-4.27.88c-1.76-.25-3.77,1.45-6.19,2.53-4-.47-8.72,3.31-14.42.75,4.36-2,9.27.31,12.81-4.08l-5.36,1.13-.14-.42,5.69-3.32c-5.05-.79-8.59,3.93-13.36,1.7l3.7-3.53-10.58-1.52,1.53,3.39-8.5-2-2.63,3c-.84-1-1.48-2.25-1.85-2.16a9.76,9.76,0,0,0-2.75,1.77c.39.86.88,1.92,1.66,3.59l-3.19-1.39-.43.43c.8,1.24,1.59,2.49,2.42,3.79h-9.95l-.09-.78,3.41-1.15,0-.69-6-.5c1.58-2.66,3.48-2.84,5.67-2.45,1.66.29,3.52,1,4.91-1.23l-6-1.6,0-.71a17,17,0,0,0,2.88-.68A34.35,34.35,0,0,0,470,344c.23-.13.39-.56.58-.55,4.45.11,8.29-2.91,13.12-2,5.19,1,10.66.22,15.81-.26a13.16,13.16,0,0,1,3.22-1.09c3-.23,6.12.85,8.84-1.42a2.53,2.53,0,0,1,1.72-.39c3.4.3,4.62-2.31,6.18-5.28,4.93,3.65,7.89.05,10.79-3.93l-2.41-.4c3.54-3.62,6.78,1.78,10.3-.17l-1.19-2a3.62,3.62,0,0,1,.92-.15c1,.19,2,.42,3.05.65a9.45,9.45,0,0,1,6.12,4.57,2.21,2.21,0,0,0,1.36,1q5.32.78,10.67,1.36a9.15,9.15,0,0,0,2.43-.63L521.05,316l-.5,1.25,11.36,5.62-.38,1.43-31.41-2.92-.73,1.35c.46.14.92.29,1.39.39,2,.46,4.29-.15,5.61,2.27.12.22,1.59.05,1.89-.37,1.78-2.51,4.09-1.25,6.22-1.15a48,48,0,0,1,7.1.64,26,26,0,0,1,4.81,2.05l-1.3,2.26L523,327l-5.21,2.83c-.89-.57-2.09-1.37-3.33-2.1a1.93,1.93,0,0,0-1.39-.35c-2.59,1-5.2,1.62-8.05.21l-.2,1.25,3.17,2c-.09.72-.19,1.5-.31,2.52l4.34.7.08.65-5.54,1.2-4.43-5-1.46,3.17-2.6-2.57,1.36-3.11-7.74,1.23.9,2.18L487.9,334l3.31,2.31,7.44-.86a54.68,54.68,0,0,1-4.92,3.83c-1.71,1-3.39,1.85-5.31-.21-2.56-2.73-5.66-.37-8.51-.32a27.76,27.76,0,0,1-2.79.37c4.6-3.35,9.56-6.07,12.88-10.84l-.52-.66-3.54,3.32-.49-.41,1.27-2.91c-4.24,2.78-7.76,5.07-9.38,10.45-.81-1.82-1.21-2.7-1.42-3.17,1-2.07,1.86-3.86,2.72-5.66l.16.38c1.25-1.12,2.36-2.6,3.8-3.28,2-1,4.29-1.26,6.42-2A16.22,16.22,0,0,0,493.6,322c-1.86-1.11-3.29-3.4-5.43-.3-.67,1-3.39.37-5.5.52-1.42,3-1.42,3-5.09,3.26.54-.86,1-1.58,2-3.19a19.12,19.12,0,0,0-4,.43c-.19.06.1,1.65.09,2.54,0,1.12-.09,2.24-.14,3.53l-2.73,1.05c.59.77,1.1,1.43,1.73,2.27l-8.59,8.16c.29-1.89.46-3,.59-3.81l-9.12,5.18-5.62-1.82,11.71-4.5-3-2.06,6.1-1.58-1.47-2.47c4.61-.22,6.27-3.41,7.2-7.7-2.41-.32-4.62-1.15-7.05,1.12-1.39,1.3-3.83,1.35-6.08,1.33l2.88-2-.38-.86-4.86,1.34-.2-.57,10.47-5.46-.63-1.54c-3,1.18-6.07,2.35-9.09,3.54a15.66,15.66,0,0,1-2.11.94,30.48,30.48,0,0,1-5.58.91c-1.1,0-3.33,1.68-3.12-1.35l-11.8,3.54-.48-1,11-6.8c-4.77.38-8.87.41-11.33,5.06-.49.94-2.18,2.1-2.86,1.84-4.64-1.81-8.83,1.59-13.29,1a53.47,53.47,0,0,1-10.53-2.28l7.88-.59,0-.79-2.79-.55,0-.69c1.69,0,3.48-.36,5.06.08a14.68,14.68,0,0,0,10.8-1c1.95-1,3.5-2.9,5.47-3.79s4.05-.91,6.1-1.28c.48-.08,1.16.2,1.45-.06,2.19-1.89,4.3-3.89,6.43-5.85l-.69-1.23c-1,.54-2.28.84-3,1.67-1.95,2.24-3.61,4.18-6.81,1.8-.77-.57-2.79.76-4.23,1.21l.07,1L431.34,309,429,311.63l-.45-.18.91-3.54-.51-.54a15.22,15.22,0,0,0-2.56,2.44c-1.42,2.12-2.63,1.44-4.12.12a7.42,7.42,0,0,0-2.55-1l-.42.93,1.5,2.48c-.67.83-1.35,1.67-2.07,2.58l-3.39-.61c.81-1,1.65-2,3.16-3.81a42.47,42.47,0,0,0-6.85,1.33c-.49.18-.41,2.12-.59,3.25l.83.34L409.33,317l-1.44-2.33c-2.05,3.18-4.65,4.79-8.92,4.33,3.63-2.47,6.72-4.59,9.81-6.71l-.58-1.21c-5.29,3.5-12.36.93-17.3,6.28a9.81,9.81,0,0,1,.41-1.3,3.58,3.58,0,0,1,.48-.75l-2.09-3.24c-3.8.46-7.91,3.71-13.16.82l9.16-1.08-4.56-3.32.38-1.55-3-.75-.09-.65c.77-.24,1.52-.52,2.3-.7s2.13,0,2.58-.54c2.24-2.77,4.58-1.48,7.2-.86,2.13.52,4.49,0,6.75-.07v-1l-4.93-1.14,0-.85,7.85-.43.18-1.29-8.88-2.6c2.69-2.35,5-1.35,6.94-.14,3.24,2.07,6.42,1.8,10.66.57L404,294.76l.08-.66c1.87.16,3.75.43,5.63.46s2.43-.75.67-2.77c4.25,1.13,8.28,2.8,12-1.79h-6.63l4.09-3.54-2.92-1c1.66-1.29,1.59-1.05,4.43-.1,1.37.46,3.12-.51,4.58-.22s2.88,1.36,4.31,2.09l.55-1-2.85-2.5,2.75-.68c1.74-.46,3.45-1,5.2-1.38a7.5,7.5,0,0,1,2.5,0c.34.05.64.71.95.7,2.45-.08,5.14-1,7.29-.22,2.61.94,4.58,1.9,6.54-.94a5.38,5.38,0,0,1,2.28-1.34,20.86,20.86,0,0,1,2.36-.74c0,.83,0,1.67.06,2.49a12.86,12.86,0,0,0,.47,1.9l-4.53,1.69c2.34,2.33,4.39,2.58,6.62.8,1.34-1.08,2.67-1.92,4.3-.2l-1.14,2.52c2.25,2.06,4.23,2.57,5.87-1.21l4.7,5.56c1.7-2.27,3.63-1,5.71.64,2.35,1.87,2.72,1.81,4.88.61l-2.77-1.18,0-.56a16.54,16.54,0,0,1,4.19-.23c1.95.39,3.8,1.39,5.53-.63.22-.26,1.34.08,1.86.43,2,1.34,3.85,1,5.92,0a12.39,12.39,0,0,1,4.84-1.08c2.61-.17,5.23,0,8.61,0-2-3-3.71-4.27-6.15-3.89a57.31,57.31,0,0,1-5.88,1.1c-2.29.11-4.64-.56-6.9-.29-2.57.3-5.69-2.47-7.72,1.34-.08.16-.38.4-.45.36-3.41-2.1-6.92,1-10.3-.26-.52-.2-.95-1.19-1.08-1.88-.19-1,0-2.13-.12-3.16-.29-1.78-1.13-2.51-3-1.8-.83.32-2.36.27-2.82-.29-3-3.73-2.95-3.79-8-2.9l1.92-3.87c-4.61,1.24-9.44.05-11.29,4.43-2.47.38-4.22.7-6,.91-.84.11-2.24.36-2.47,0-1.73-3-4.12-1.74-6.42-1.47a11.65,11.65,0,0,1-3.23-.06c-2.12-.34-4.22-.82-6.78-1.34,0,.13,0-.6-.09-1.6l-2.82,1.74c-.88-1.72-1.84-2.94-3.19-.51-1.14,2.07-2,2.49-4.11.68-1.38-1.18-4.11-1.09-6.13-.78-2.37.38-4.23.91-5.25-2.24-.31-1-1.77-1.49-2.68-2.26a7.15,7.15,0,0,1-1.95-2.34c5.28-.39,9.71,5.78,16.12,1.49l-7.32-3,.19-.87,4.1.47.63-2.91-9.9-1.72,0-1.05,7.74-2.51-.32-1.4-7.69.54,2.31-3H398.3c4.71-4,9.6-1,14.56-2.76L408,251.53l0-.55,6.22-.74,0-.83-4-.79-.05-.56c3.42-.89,6.84-1.79,9.57-2.52-.07,2.1-.44,4.12,0,6,.12.57,2.34.61,3.74.93.78,5,1.51,5.54,5.35,3.42L427,253.31c.79-.37,1.48-.71,2.18-1s1.3-.49,2.43-.92l-4-2.43,4.9-2.62-3.58-2c2.82-1,5-2.56,7.88-.59,1.38.94,3.55.58,5.46,1.36l-4.07,2,5.39,1.35c-.57.66-1,1.21-1.52,1.75,2.18,3.73,2.76,3.79,5.78,1.25a26.33,26.33,0,0,1,4.11-2.38c-.6-.77-1.11-1.45-1.76-2.31l2.56-2-3.33-3.81c2.4.3,4.22.61,6.06.73a3,3,0,0,0,2.23-.56c1.31-1.47,2.34-.94,3.19.31,1.41,2.05,2.92,2,4.94,1a6.15,6.15,0,0,1,4.46.09l-2.64,1.92a6.86,6.86,0,0,1,1.73,1.27,9.65,9.65,0,0,1,.83,2.18,7,7,0,0,1-1.85.59c-2.34.07-4.69,0-7.41,0,.45,1.28.7,2,1,2.95l-2.14.72c-.27,1.73,2.64,4,4.2,3.16,2-1,3.37-2.25,5.44.53,1.63,2.17,10.65-1.33,11.91-4.08.95-2.08,2.23-2.88,4.53-1.69,1.39.72,3.2.54,5,1.3l-5.77,2.06,5.77,2.48-.34.9c2.22.54,5-1.22,6.94,1.76l-5.48.68c1.82,2.15,3.76,1.87,5.89,1.2,1.31-.41,2.8-.17,4.17-.44a19.09,19.09,0,0,0,5.21-1.45c1.74-.9,3.23-2.1,6.09-.14L510,260.16c2.55,2.1,4.51,1.28,6.35.31s3.57-1.11,5.65.74l-4.22,2.33v.65l8.75-.69-.39,2.49,4.74-.61.11.55-3.87,2.9,2.47,1.31-2.59,2c.9,1.47,2.49,3-.76,3.61-1,.2-1.77,1.85-2.84,2.29-1.36.57-1.74,3.7-4,1.82l-1.86,3.27-3-2.29c-.83,1.38-.83,1.38,1.35,2.6.29,1.27.21,2.41.69,2.8,1.92,1.56,4,1.13,6.25.49,3.86-1.11,7.8-1.94,12-3l-2,2.47,9.27-4.39.49.8c-1,1.05-2,2.09-3.24,3.36,0,0,.26.42.7,1.1l-3.07,1.37c3.06,1.65,6.54.44,9.39-3.1,3,4.43,7.17-.48,10.4,1.7l-5.58,2.8c-1.1,1.23-3.11-1.66-4.49,2.3l15.73-3-6.28,3.59.1.86,6.81-1-1.48,2.05.23.47,6-2.75c.13,3.31-3,2.6-4.59,4.37h4.31L564.17,301c5.2,1.75,10,4.25,14.94,4.82,6.86.79,12.34,4.09,18.06,7.59,6,3.68,12.44,6.56,18.58,9.74.4-.39.65-.52.66-.66.16-3.32.69-6.7.3-10a24.22,24.22,0,0,0-2.71-8.21c-2.79-5.33-6.13-10.34-8.92-15.67a18.92,18.92,0,0,0-9.61-8.71l-.67.72,2.7,2.93-.86,1.07L602,285.9l-1,1.69,2.38,1.48v.6h-4c.47,4.34,4.83,2.67,6.72,5.4a10.08,10.08,0,0,0-2.65-.48c-2.45.3-4.88.76-8,1.28l2.92-2.31-.35-.86-3.09.89-.06-1.38-2.91.94-.16-.37,4.76-4-5.12-2.5,2.57-.87-.65-.79c-2.54.11-5.67-2-7,2.41a4.82,4.82,0,0,0,1.55,5.58l-2.85-.36c-.5-1.64-.88-2.93-1.28-4.25l-3.18,3.59-.55-.5,4.4-7.55c-.57.06-1.3-.06-1.45.19-1.37,2.36-4.95,2.13-5.58,5.4-.06.34-.92.52-1.41.77l-.42-1.15-6.85,1.91-.16-.78,8.09-4.91-.12-.79-6.34.61-.22-.88,8.39-3-.25-.38c2.1.11,4.2.24,6.3.32.27,0,.8-.26.79-.37-.27-3.9,3-1.62,5.12-3.28-5.86-3.19-11.39-5.71-17.36-7-5.57-1.16-11.21-1.93-17.38-3,3.61,3.64,4.21,3.6,8.16,3.48,2.35-.07,4.73.86,7.09,1.33a21.24,21.24,0,0,1,6.3,1.94,13.88,13.88,0,0,0-2,0c-1.41.23-3.54-1.73-4,1.44-1.26-.66-3,2.48-4-.67-.2-.64-1.19-1.1-1.9-1.43-.33-.15-.88.2-1.32.33l.57,1.55c-5.06,3.9-10.56,4.56-13,1.45-1.61,2.08-1.61,2.08.88,3.84-1,.64-2.09,1.39-3.24,2a1.76,1.76,0,0,1-1.33-.06c-2.32-1-4.62-2-6.84-2.92l2.89-.9.14-.76-4.3-1-.22-.47,5.45-1.3-.26-1.71-10,2.64-.34-1.3,5.52-1.71c-1.28-1.88-6.61-.72-9.52,1.84-.57-3.2,1-5.39,4.88-7-.21-1-.4-2-.65-3.26a10.63,10.63,0,0,1-2-.2,16.86,16.86,0,0,1-2.33-1l2.26-2.07-6.88-1.14c.26-1.23.51-2.43.76-3.63l-5.31.72c-.2-3.52-3.07-3.62-6.31-4.47l2.15,3.09-.46.9-6.47-3.46c-1.34.94-3.15,2.72-5.29,3.59-3.23,1.31-4.44.48-5.05-1.92L493.48,253l2.31-1.16c-1.4-2.87-3.5-3.56-6.27-2.36v-1.62c-1.69-.25-3.36-1-4.67-.58a14.9,14.9,0,0,0-6.13,3.51c-1.77,1.88-4.35,3-6.91,2-1.95-.74-4.07-1-6-2a25.74,25.74,0,0,0,4.58-.36,25,25,0,0,0,4.18-1.89L472,244.72c.3-1.39,1.14-3.07.68-3.71-.95-1.33-2.16-3.18-4.45-1.63-.58.4-1.9-.48-2.89-.72-2.57-.62-5.14-1.22-7.72-1.83l-.06-.81,7.1-1.4-.09-.89L460.87,232c.14-1.27.26-2.43.38-3.56H470l.14-.8-5.15-1.58c5.22-3.5,9.89.09,14.64.7,1.26.17,2.16,3,3.32,4.49.71.91,1.48,2.05,2.45,2.4,5.15,1.87,10-1.46,14.76-.7,1.57.85,3.1,2.25,4.74,2.44,4.6.53,9.24.57,13.86.79,3.1.15,6.21.25,9.31.51.4,0,.73.94,1.07,1.41,2.26.72,4.8,1.46,7.29,2.34,1.59.57,2.74.57,3.78-1.22,1.87-3.22,7.41-4.69,10.87-3.39a4.25,4.25,0,0,0,3.2-.38c4-2.2,7.8-.29,11.84-.6-.72,3.22,2.07,7.18,5.11,7.33,3.65.18,4.27,3.63,6.1,5.66,1.16,1.28,1.39,3.5,2,5.24l-14-1.56c.4,1.67,1.11,1.94,6,3.17l-2.53.6.94.68c1.18,1.12,2.29,2.35,3.56,3.34,1.64,1.29,2.58.51,3-1.66,3.22,2,7.51,1.45,9.86,5.42-6-1-6-1-8.79.6,1.94.87,3.67,1.58,5.35,2.4,7.15,3.49,14.32,6.92,21.41,10.56a16.41,16.41,0,0,1,8.27,9.92c2,5.83,6,10.35,10.18,15.36,3-4.45,5.64-8.42,5.6-13.7,0-4.79-1-9.06-4.61-12.55-2.62-2.52-4.62-5.75-6.92-8.65a7.35,7.35,0,0,0-1.13-1c-4.6-3.83-6.49-3.74-11-.13-1.5,1.2-3.47,1.76-5.22,2.61l-.47-1.05,2.4-1.2-.87-1.21a29.64,29.64,0,0,0,3.68-3.26c.53-.64.49-1.81.71-2.74-.89-.17-2-.79-2.62-.43-4.15,2.42-8.39.44-12.56.49-.43,0-.86-.3-1.28-1l6.47-.88c-1.66-1.66-1.66-1.66-9.81-1.72.53-.66,1-1.16,1.38-1.73s.54-1.05.93-1.81l-7.24-2.61,3.36-2.67-5.8-3.67c.62-1.14,1.1-2,2.13-3.89a35.14,35.14,0,0,0-5.42-.11c-4.58.65-4.57.73-4.52-4,.05-3.84-1.66-5.33-4.79-3.71-2.55,1.33-4.69,1.69-7.16-.1-1.08-.79-2.61-.86-4.15-1.32-1,3.63-2.83,3.83-5.32,1.91-1.78-1.37-3.57-1-5.25.33-1.26,1-2.46,2.17-3.8,3.08s-2.69,1.54-3.42-1c-.19-.63-1.7-1.26-2.53-1.17a32,32,0,0,0-5.12,1.36c-2.17-4.89-5.5-.18-8.38-1.14l.16-2-15.15,1.86-.14-.75,3.43-3.24-.43-1.18c-3.74,1.76-8.19-1.82-11.63,2.54a2.11,2.11,0,0,1-1.69.41c-3.63-.45-7.38-.58-10.46-3.08-.47-.39-1.06-1.12-1-1.63.31-2.85-1.49-3.28-3.45-3.74a29,29,0,0,1-3-1h-7.46l-.38-.57,1.71-.95-.18-.45H461c2.17-3.13,8.16-.62,7.3-7.53,1.23,1.13,1.93,1.82,2.68,2.46a6,6,0,0,0,7.52.39c1.15-.76,2.49-1.19,3.72-1.84a17.42,17.42,0,0,1,9.16-1.93c1.4.06,2.83-1,4.26-1.53l-.2-.77-5.82.64,3.24-2.57c-1.68-.26-2.74-.54-3.8-.58-2.7-.09-5.4,0-8.08-.19-.71-.06-1.35-1.09-2-1.68.76-.28,1.55-.89,2.27-.8,2.26.29,4.48.87,6.73,1.27.34.06.73-.19,2.15-.61a25.23,25.23,0,0,0-3.3-2,24,24,0,0,0-3.29-.83l0-1.22c1.31-.18,2.62-.43,3.94-.54s3,.47,2.72-2.12c0-.41,1.44-1.27,2.28-1.38.65-.08,1.42.65,2.08,1.11,1,.72,1.91,2,3,2.19a61.06,61.06,0,0,0,7.54.69l15.75-4-5-1.44,0-.89c1.51,0,3-.11,4.51,0,1.86.19,3.73.92,5.55.75a3.52,3.52,0,0,0,2.3-2.57c0-1.34-.52-3.18-2.66-2.94a5.88,5.88,0,0,1-3.64-.69l2.33-1.13c-.29-.52-.6-1.07-1.07-1.93,3.86.32,7.5.52,10.32-2.39l0-1.23c-1.37,0-3.06-.54-4,.12-1.49,1-2.54.78-4.09.42a11.66,11.66,0,0,0-5.42.39c-2.1.56-4,1.06-6.43-1l9.59-1.8-1.77-2.64c1.55.48,2.59.73,3.59,1.12,2.07.82,4,1.45,5-1.65.13-.39,1.61-.43,2.46-.39,1.57.06,3.14.3,5,.49-.18-1.73-.28-2.65-.41-3.87l11-1.49.12.71-2.42,2.38c1.7.32,3.18.26,4.25.94.62.4.57,2,.94,3.49,1.37-.17,3.35,3.47,5.79.63,2.89-3.35-1.87-4.09-2.12-6.47l5.92-.46.92,2.36,4-.93-.56,2.11,11.54,1.07a12.24,12.24,0,0,0-1.21,1.42c-.45.85-1.18,1.75-1.13,2.58,0,.54,1.2,1.23,2,1.45,3.15.91,6.34,1.67,9.76,2.55-.16.74-.38,1.67-.64,2.83L595.13,190s.62,1.38,1,1.32c1.59-.33,3.78-.56,4.53-1.71,2-3.17,4.31-3.1,7.19-1.85.84.36,1.92.07,2.88.12s2.07.15,3.25.24c-1,4.68-4.93,2.42-7.83,4.26L619.3,197c1.48-2.9.87-4.14-2.36-4.4.51-2.27-1.45-5.83-3.94-6.79a13.23,13.23,0,0,0-9.51-.51,4.85,4.85,0,0,1-1.43,0l-1.43-1.57c0-.87,0-1.73,0-2.6a12.1,12.1,0,0,0-2.42.62c-2.65,1.28-5.22,2.73-7.89,4-.53.25-1.33-.15-2-.24.4-.62.67-1.44,1.22-1.82a34.06,34.06,0,0,0,3.81-2.65c-5-.07-9.83,3.74-15-.57a12.71,12.71,0,0,1,2.36-2.51c2.49-1.53,5.07-2.91,7.69-4.19a4.15,4.15,0,0,1,2.45-.1c2.84.56,5.84-1.35,6.87-4.6-3.49-2.08-5.12,5.33-8.93,1.91l1.86-2.4c-4.47-.57-5.2,4.45-8.09,5.84l-.7-.65c.64-1.23,1.29-2.45,2.15-4.08l-12.08,4.18-.33-.8,2.43-2.42-3.74-2.72.2-.61h5.06l0-.5-7.23-1-.08-.65c2.16-.26,4.46-1.16,6.42-.62a15.5,15.5,0,0,0,10.18-.46c.6-.24,1.47-1,1.41-1.47a2.64,2.64,0,0,0-1.36-1.72,18.13,18.13,0,0,1-3.75-1.85,7.83,7.83,0,0,1,7.54,1c2.17,1.43,6.1,2.1,8.3.83.75-.43,1.58-.74,2.53-1.17l-2-2.37,6.76-.55v-.67l-2.77-.89c2.36-1.31,4.45-2.54,6.61-3.6a2,2,0,0,1,1.8.29c.39.34.33,1.21.57,1.8.35.87.77,2.41,1.2,2.42a40.8,40.8,0,0,0,8.27-.46c.83-.15,1.43-1.75,2-2.43l9.61-1.39c2.17,2.33,2.17,2.33,4.69-.1,3.09,3.07,6-1.47,9-.07l-.74,2h2.83c-.83,1.34-1.49,2.42-2.58,4.17a10.57,10.57,0,0,0,2.16-.69c1.17-.77,2.53-2.5,3.39-2.24,1,.31,1.67,2.25,2.77,3.93l5.38-3v2.83a17.84,17.84,0,0,0,2.93-.56,26.17,26.17,0,0,0,3.13-1.68c-.48,1.86-.77,2.95-1.06,4l5.1.53v3.28l3.11,1.13-2.37,1.27c4,.7,6.82-5,10.37-1.65-.83,3.16-5.42-.49-5.49,2.92,2.62,1.1,4.75,2.1,6.94,2.85.59.2,1.39-.44,2.11-.5a5,5,0,0,1,3.39.69l-6.12,3.08c2.47,1.32,4.54,2.57,7.1,1.13a7.44,7.44,0,0,1,2.32-.56c1.88-.35,2.95.23,2.32,2.69h3.25L694.38,174l13.36,2.77v2.54l4-.76-1.5,3.36c2.59-.17,4.84-.16,7-.49s4.32-1,6.48-1.55l.3.86-7.46,4,1.51,2.13c-.59,1.32-1.17,2.65-1.9,4.3l5.64,1.6c0,.39-.06.78-.08,1.17l-10.1.78,5.08,2.74-.28.74-2.24-.23,1.83,3.69-1.14.85c-.23-.47-.36-1.25-.71-1.38-2.35-.87-4.73-1.69-7.15-2.33-.95-.26-2.43.46-3-.07-2.59-2.55-5.77-.75-8.17-.59-4.28.28-8.39,3-13,2.67-.59,0-1.23.81-1.85,1.25a16.4,16.4,0,0,0,1.18,1.65,4.71,4.71,0,0,0,1.12.7c-2.88-.52-6,2.86-8.55-.7-.13-.19-.78-.11-1.11,0a63.23,63.23,0,0,0-6.18,2.76c-2.48,1.38-8,.82-10.32-1.29l3.13-2.32c-3.74-.23-5.19-1.8-4.72-5.36a13.84,13.84,0,0,0-3.67,4.45c-3.37,7.91-6.77,15.81-9.71,23.9-2.29,6.31-1.59,12.92-.13,19.39.31,1.37.9,2.91,2.63,1.87a63,63,0,0,0,5.24-4L646.32,242l1.18-6.69c-.25,0-1.22.2-1.52-.18-.7-.89-1.75-2.69-1.48-3a7.87,7.87,0,0,0,1.61-7c-.13-.76.21-2.22.67-2.4,2.2-.86,2.3-2.46,2.19-4.57-.16-3.19,2.53-5.13,5.49-5,1.95.07,4.58-.31,5.77-1.63,2.53-2.84,5.36-2.65,8.49-2.69a85.16,85.16,0,0,0,8.82-1,27.28,27.28,0,0,1,5-.6c3.25.23,4.83-.93,4.89-4.29l12-.69a1.53,1.53,0,0,0,.85-.27c2.77-2.39,5.39-.9,7.65.73,4.36,3.13,8.68,2.64,13.46.82-1.38-1.8-3.48-3.09-1.55-5.77,2.85,3.05,4.4.74,5.24-1.69.65-1.86-.66-3.25-2.36-4.4S719.87,188.69,718.44,187.12Zm-139,191.42.91.12a25.74,25.74,0,0,1,1.08,3.36c.32,1.76.14,3.65.67,5.32,4.11,13,7.78,26.24,12.77,38.88,2.71,6.87,7.67,12.75,11.74,19,1.6,2.46,3.37,1.86,4.68-.43a35.66,35.66,0,0,0,2.71-5.64c6.47-17.89,9.73-36.38,8.75-55.6-.12-2.37-.39-4.72-.6-7.27l-3,1.34-.58-.62c.47-.78,1-1.52,1.39-2.33.78-1.55,1.13-3.1-.92-3.85-1.82-.67-3.69-1.19-5.08-1.63v3.05a17.78,17.78,0,0,1-3.23-1.18,44.2,44.2,0,0,1-3.87-2.89c-.62,1.39-1.25,2.77-2.12,4.72l-3.14-3.26c-.47.67-1.58,1.6-1.44,2.18a21,21,0,0,0,1.79,4.05c-1.35,1.35-2.76,2.8-4.22,4.19a2.51,2.51,0,0,1-1.28.59c-1.36-2.08-3.72-1-5.37-1.95-4.06-2.32-4.28-2.27-5.33,2.31a13.54,13.54,0,0,1-.91,1.76L583,378l4-3.05-5.94-1.4ZM592.56,320c-1.14.64-2.31,1.4-3.55,2a3.17,3.17,0,0,1-1.86.13,10,10,0,0,1-1.95-.77l-.49,1.68c.81.18,1.76.76,2.4.5,5.53-2.27,10.48,2.64,15.91,1.34.23-.05.58.46,1.14.93L597.79,327l.06.93a21,21,0,0,1,3.38.35,17.64,17.64,0,0,1,2.88,1.31l-.32.53H599.6l.88,2.15-.47.48-4.35-3-4.95.39,3.4-2.23-.83-1.16-4.13,1.38c.09-.88.17-1.63.26-2.5l-4.64-.62-.18.61,2.08,1.58-6.61,7,3.05.16c1.43.08,2.85.18,4.27.24,3,.12,6.3,1.14,8.89.11a12,12,0,0,1,10,.37l5.67-4.64c-2.23-3.5-4.56-5.82-7.95-6.76a30.22,30.22,0,0,1-13.13-7.87,16,16,0,0,0-6.07-3.93,201.13,201.13,0,0,0-21.66-5.78c-8.63-1.63-17.4-2.4-26.11-3.57-1.81-.25-3.59-.86-5.39-.95-3.25-.16-6.5,0-9.75,0l0-.57,1.81-1-.5-1.09c-1.53.83-3,1.73-4.59,2.47a34.72,34.72,0,0,1-4.76,1.9,10.87,10.87,0,0,1-2.94.05l1.49,4.38-9-4.31,3.55-.65-3.36-2.58c-1.13,1.36-2.28,2.73-3.5,4.18l-6.86-1.09c.39.8.6,1.95,1.11,2.14a45,45,0,0,0,5.94,1.52c2.29.46,4.71.47,6.89,1.24,4.85,1.72,9.5,4.23,14.87,2.89.42-.11,1,.35,1.44.64a10.74,10.74,0,0,0,1.89,1.29c.82.28,1.82,0,2.62.34,5.1,2,10.16,4.19,15.24,6.29,8.25,3.42,16.41,7.15,24.83,10.05,2.41.83,5.59-.64,8.35-1.38.41-.11.29-2,.6-3a8.64,8.64,0,0,1,1.43-3.23c2.21-2.46,5.59-2,8.21-3.4C589.34,317.08,591,318.36,592.56,320Zm20.49-62.4c1.37,1.21,2.38,2.22,3.5,3.08,1.92,1.47,4.41,2.45,5.73,4.37,1.8,2.62,3.48,2.6,5.42.94a18.34,18.34,0,0,0,3.68-4.47c2.88-4.82,2.54-10.39,2.54-15.72,0-3.62-1.08-7.25-1.84-10.84-.14-.63-1.08-1.07-1.65-1.61-.41.6-.8,1.21-1.24,1.78s-1.16,1.41-1.74,2.12l-1-.13c1-3.23-.32-4.9-3.28-5.77,1.9-1.4,4-2.18,4.69-3.68s0-3.55-.09-4.43c-2.87,0-4.81,0-6.76,0-1.58,0-3.45-.56-4.13,2.47l7.28.86a11.09,11.09,0,0,1-2.43,1.75,3.22,3.22,0,0,0-1.18,1.82c-.27,1.61-.29,3.27-.41,5l3.87.41-2.36,4c3.36,2.67,6.16-1.42,9.64-.64l-3.3,3,2.61,1.54c-1.43,1.72-4.88,1.49-3.42,5.32-2.13,0-4-.1-5.83,0-.61.05-1.18.76-1.76,1.17.5.42.94,1,1.5,1.2a18.44,18.44,0,0,0,3.3.24c-3.21,4.89,2.43,2.71,2.88,4.48-1.27,1.26-2.2,2.61-3.44,3.26s-2.84.61-4.28.87l-.15-.89c3.23-.78,1.47-2.85,1.27-4.79l-3.22.72c-1.88-7.76-7.77-6.18-13-6.39-.19-2.7-1.13-4.23-4-2.75-.44.22-1.12,0-1.69-.12-3.08-.45-6.16-.92-9.24-1.38l-.41.76a51.58,51.58,0,0,0,6,4.17,59.57,59.57,0,0,0,8.94,3.54,9.13,9.13,0,0,0,4.47.06c1.56-.33,5.79,1.37,6.3,2.91Zm73.7-28.35c-3.72,2.29-6.77,7.24-12.3,4.05l-.59,2.38,2.79,1.57-.13.76c-4.31-1-7.57.44-9.79,4.73l3,1.65-11.44,3,.62-2.4-.73-.63-13.75,12.39c3.23,2.14,5,5.32,8.82,3.63a2.09,2.09,0,0,1,1.7.27c1.64,1.08,2.75.23,4-.89,6.67-6.21,13.33-12.43,20.07-18.55,2-1.85,4.11-4,6.53-5,7.6-3.1,15.37-5.71,23.06-8.57a21.22,21.22,0,0,0,2.83-1.56l-.28-.87c-2,0-4.57.84-5.89-.16-3.84-2.9-5.37.51-7.88,2.12s-5.65,2.57-8.58,3.57C688.3,230.91,687.48,229.81,686.75,229.23Zm-43.29,90.45c3.31-3.46,4.68-7.58,5.78-11.89,1.24-4.89,2.83-9.69,3.89-14.62a25.25,25.25,0,0,0,.27-7.72c-.16-1.65-1.41-1.95-2.54-.5-.44.58-.79,1.22-1.21,1.81-6.63,9.23-6.64,20.1-6.81,30.93A7.73,7.73,0,0,0,643.46,319.68Zm-20.1-128.27c.12,1.68.08,3.61,3.14,3.2a29.6,29.6,0,0,1,5.31.28l-1.35,2.34.18.78c4.72-2.83,9-.42,13.52-.14l.12,1-5.94,2.58,4.2,2.31-4.41,4.38.92,1.86c-.9.69-1.45,1.56-1.29,2.23.5,2.1-.53,2.65-2.09,3.41a6.43,6.43,0,0,0-3,3.2c-.31.81.76,2.22,1.21,3.36l1.13.17c2.09-3.44,4.27-6.84,6.23-10.37.9-1.61,1.27-3.53,2-5.23,1.82-4.08,3.74-8.11,5.55-12-2.73-.5-5.9,2.63-8.68-.24a24.27,24.27,0,0,1-3.85-.75c-2.22-.46-4.5-.69-5.76-3.16-.07-.15-.74,0-1.13.09Zm62.42,92.92c11.42,0,22.24-.15,33.06.05s21.47.75,32.2,1.16l.18-.87c-.91-.22-1.81-.48-2.72-.66a20.8,20.8,0,0,1-2.1-.29c-1.34-.44-2.61-1.3-4-1.44-4.83-.51-9.68-.8-14.53-1.12a14.41,14.41,0,0,0-2,.31c-1.23.1-2.47.15-3.71.18-1,0-2.13-.41-2.88,0-2.82,1.58-5.18,1.89-6.8-1.69-.07-.14-.35-.17-.8-.38-2.6,2.28-5.37,5.73-8,1.69-4.53.46-8.39,1.3-12.19,1A6.74,6.74,0,0,0,685.78,284.33Zm-45.39-2.27,1.2.47c2-2.94,4-5.85,5.91-8.87a2.17,2.17,0,0,0-.43-2c-2-1.65-4.09-3.13-6.68-5.06Zm-10,29.58c-5.68,4.24-1.89,11.46-5.63,16.3l4.86.31C629.84,322.47,630.09,317.06,630.34,311.64Zm-90.21-15.26-.16,1,15.4,2.52.11-.79Z"/><path class="cls-1" d="M600.63,183.73l1.43,1.57L593.31,188l-.46-1.35Z"/><path class="cls-1" d="M777.47,508.92s-139.71,60.63-309.07-7.8C479.55,512.09,618.49,637.05,777.47,508.92Z"/><text class="cls-2" transform="translate(19.58 821.91)">T<tspan class="cls-3" x="95.15" y="0">h</tspan><tspan x="202.47" y="0">e</tspan><tspan class="cls-4" x="299.63" y="0">r</tspan><tspan x="364.91" y="0">a</tspan><tspan class="cls-5" x="459.91" y="0">p</tspan><tspan x="563.84" y="0">y </tspan><tspan class="cls-6" x="699.49" y="0">C</tspan><tspan x="809.42" y="0">en</tspan><tspan class="cls-7" x="1012.97" y="0">t</tspan><tspan x="1077.33" y="0">er</tspan></text><text class="cls-8" transform="translate(111.95 927)">In<tspan class="cls-9" x="67.52" y="0">t</tspan><tspan x="94.51" y="0">ensi</tspan><tspan class="cls-10" x="235.75" y="0">v</tspan><tspan x="272.82" y="0">e Out</tspan><tspan class="cls-11" x="464.42" y="0">p</tspan><tspan class="cls-12" x="510.54" y="0">atient </tspan><tspan class="cls-13" x="733.14" y="0">P</tspan><tspan class="cls-14" x="781.04" y="0">r</tspan><tspan x="808.16" y="0">og</tspan><tspan class="cls-15" x="898.44" y="0">r</tspan><tspan x="925.83" y="0">am</tspan><tspan x="-111.95" y="72.25">Substa</tspan><tspan class="cls-16" x="126.05" y="72.25">n</tspan><tspan class="cls-17" x="172.66" y="72.25">c</tspan><tspan x="211.02" y="72.25">e Abuse a</tspan><tspan class="cls-16" x="548.43" y="72.25">n</tspan><tspan x="595.03" y="72.25">d Mental H</tspan><tspan class="cls-18" x="974.62" y="72.25">e</tspan><tspan x="1015.3" y="72.25">a</tspan><tspan class="cls-19" x="1056.04" y="72.25">l</tspan><tspan class="cls-20" x="1075.94" y="72.25">th</tspan></text></svg>