<?xml version="1.0" encoding="UTF-8"?>
<svg id="CAT"
    xmlns="http://www.w3.org/2000/svg" viewBox="0 0 2800 2800">
    <defs>
        <style>.cls-1{fill:#0074bc;}.cls-2{fill:#ee3d96;}.cls-3{fill:#f79548;}.cls-4{fill:#ece956;}.cls-5{fill:#ffcc4e;}.cls-6{fill:#fbb03b;}.cls-7{fill:#6c3f99;}.cls-8{fill:#00a188;}.cls-9{fill:#00a2a5;}.cls-10{fill:#a3cf62;}.cls-11{fill:#b43e97;}.cls-12{fill:#43408e;}.cls-13{fill:#2f2723;}</style>
    </defs>
    <polygon class="cls-3" points="2427.9 356.72 2372 300.82 2237.52 300.82 2206 332.34 2165.04 332.34 2072.33 425.05 2038.75 425.05 1892 571.8 1814.5 571.8 1763 520.3 1400 520.3 1037 520.3 985.5 571.8 908 571.8 761.25 425.05 727.67 425.05 634.96 332.34 594 332.34 562.48 300.82 428 300.82 372.1 356.72 372.1 683.93 474 1125.3 433.61 1345.8 433.61 1533.67 467.5 1567.55 467.5 1680.8 529.25 1742.56 529.25 1801.87 569.18 1841.79 569.18 1953.3 642.09 2026.21 642.09 2184.41 956.86 2499.18 1400 2499.18 1843.14 2499.18 2157.91 2184.41 2157.91 2026.21 2230.82 1953.3 2230.82 1841.79 2270.75 1801.87 2270.75 1742.56 2332.5 1680.8 2332.5 1567.55 2366.39 1533.67 2366.39 1345.8 2326 1125.3 2427.9 683.93 2427.9 356.72"/>
    <polygon class="cls-11" points="1500.25 1942.55 1489.5 1953.3 1472.42 1953.3 1472.42 1911.38 1443 1881.97 1443 1727.16 1534.19 1727.16 1559.38 1701.97 1559.38 1648.26 1506.33 1595.22 1472.42 1595.22 1441.48 1626.16 1422.62 1607.3 1400 1607.3 1377.38 1607.3 1358.52 1626.16 1327.58 1595.22 1293.67 1595.22 1240.62 1648.26 1240.62 1701.97 1265.81 1727.16 1357 1727.16 1357 1881.97 1327.58 1911.38 1327.58 1953.3 1310.5 1953.3 1299.75 1942.55 1235.67 2006.63 1235.67 2023.3 1259 2023.3 1289 1993.3 1317.83 1993.3 1306.08 2005.05 1315.08 2014.05 1348.42 1980.72 1365.67 1980.72 1365.67 1990.63 1400 1990.63 1434.33 1990.63 1434.33 1980.72 1451.58 1980.72 1484.92 2014.05 1493.92 2005.05 1482.17 1993.3 1511 1993.3 1541 2023.3 1564.33 2023.3 1564.33 2006.63 1500.25 1942.55"/>
    <polygon class="cls-8" points="1427.71 1845.97 1427.75 1799.55 1541 1686.3 1541 1645.63 1517.67 1622.3 1477.33 1622.3 1447 1652.63 1400 1652.63 1353 1652.63 1322.67 1622.3 1282.33 1622.3 1259 1645.63 1259 1686.3 1372.25 1799.55 1372.29 1845.97 1386.31 1859.99 1386.31 1893.97 1364.66 1915.62 1364.66 1953.3 1400 1953.3 1435.34 1953.3 1435.34 1915.62 1413.69 1893.97 1413.69 1859.99 1427.71 1845.97"/>
    <polygon class="cls-2" points="1833.33 940.63 1803 970.97 1803 937.3 1794.17 937.3 1794.17 961.47 1783.33 972.3 1783.33 991.63 1772.33 991.63 1772.33 1007.3 1748.83 1030.8 1742.83 1024.8 1755.33 1012.3 1755.33 996.97 1771.33 980.97 1771.33 944.97 1777 944.97 1777 954.3 1785 954.3 1785 927.63 1800 912.63 1800 896.97 1813.83 883.13 1807.67 876.97 1799.33 885.3 1793.67 885.3 1793.67 855.97 1786.08 855.97 1786.08 875.72 1769.17 892.63 1769.17 915.47 1748.67 935.97 1748.67 956.3 1731.5 973.47 1737 978.97 1757.67 958.3 1762.53 963.17 1745.73 979.97 1745.73 990.7 1724.46 1011.97 1724.46 1028.59 1712 1041.05 1717.75 1046.8 1727.38 1037.18 1732.83 1042.63 1714.67 1060.8 1714.67 1116.97 1655.67 1175.97 1647.67 1175.97 1618.33 1205.3 1609 1205.3 1609 1195.97 1590.33 1195.97 1590.33 1202.63 1565.67 1202.63 1565.67 1244.63 1539.67 1244.63 1523.33 1260.97 1523.33 1304.63 1505 1304.63 1505 1355.97 1493.67 1355.97 1493.67 1395.97 1473.67 1395.97 1473.67 1373.97 1453 1373.97 1453 1395.97 1400 1395.97 1347 1395.97 1347 1373.97 1326.33 1373.97 1326.33 1395.97 1306.33 1395.97 1306.33 1355.97 1295 1355.97 1295 1304.63 1276.67 1304.63 1276.67 1260.97 1260.33 1244.63 1234.33 1244.63 1234.33 1202.63 1209.67 1202.63 1209.67 1195.97 1191 1195.97 1191 1205.3 1181.67 1205.3 1152.33 1175.97 1144.33 1175.97 1085.33 1116.97 1085.33 1060.8 1067.17 1042.63 1072.62 1037.18 1082.25 1046.8 1088 1041.05 1075.54 1028.59 1075.54 1011.97 1054.27 990.7 1054.27 979.97 1037.47 963.17 1042.33 958.3 1063 978.97 1068.5 973.47 1051.33 956.3 1051.33 935.97 1030.83 915.47 1030.83 892.63 1013.92 875.72 1013.92 855.97 1006.33 855.97 1006.33 885.3 1000.67 885.3 992.33 876.97 986.17 883.13 1000 896.97 1000 912.63 1015 927.63 1015 954.3 1023 954.3 1023 944.97 1028.67 944.97 1028.67 980.97 1044.67 996.97 1044.67 1012.3 1057.17 1024.8 1051.17 1030.8 1027.67 1007.3 1027.67 991.63 1016.67 991.63 1016.67 972.3 1005.83 961.47 1005.83 937.3 997 937.3 997 970.97 966.67 940.63 962.5 944.8 981.67 963.97 981.67 987.97 989 987.97 989 979.3 994.33 979.3 1011 995.97 1011 1010.97 1019.83 1019.8 1013.83 1025.8 989.17 1001.13 983.25 1007.05 1007.38 1031.18 1002.25 1036.3 1029.25 1063.3 1025 1067.55 1009.38 1051.93 1002.62 1058.68 1021.62 1077.68 1013 1086.3 1001 1074.3 991.75 1083.55 1006.75 1098.55 1038.5 1098.55 1038.5 1124.3 1071.72 1157.52 1066.47 1162.77 1021 1117.3 1014.33 1123.97 1027.83 1137.47 1022.62 1142.68 1011.96 1132.01 1002.5 1141.47 989 1141.47 989 1155.97 1025.67 1155.97 1025.67 1166.3 1014.33 1166.3 1014.33 1226.63 1109.67 1226.63 1109.67 1261.3 1153 1261.3 1153 1315.3 1221 1383.3 1221 1474.8 1263.81 1474.8 1263.81 1499.61 1280.88 1516.68 1307.25 1490.3 1307.25 1514.55 1328.75 1536.05 1338 1526.8 1344.25 1533.05 1332.33 1544.97 1344.58 1557.22 1384.25 1517.55 1360.5 1493.8 1360.5 1484.3 1392.54 1484.3 1392.54 1472.76 1366.29 1446.51 1378.5 1434.3 1388 1434.3 1388 1455.8 1400 1455.8 1412 1455.8 1412 1434.3 1421.5 1434.3 1433.71 1446.51 1407.46 1472.76 1407.46 1484.3 1439.5 1484.3 1439.5 1493.8 1415.75 1517.55 1455.42 1557.22 1467.67 1544.97 1455.75 1533.05 1462 1526.8 1471.25 1536.05 1492.75 1514.55 1492.75 1490.3 1519.12 1516.68 1536.19 1499.61 1536.19 1474.8 1579 1474.8 1579 1383.3 1647 1315.3 1647 1261.3 1690.33 1261.3 1690.33 1226.63 1785.67 1226.63 1785.67 1166.3 1774.33 1166.3 1774.33 1155.97 1811 1155.97 1811 1141.47 1797.5 1141.47 1788.04 1132.01 1777.38 1142.68 1772.17 1137.47 1785.67 1123.97 1779 1117.3 1733.53 1162.77 1728.28 1157.52 1761.5 1124.3 1761.5 1098.55 1793.25 1098.55 1808.25 1083.55 1799 1074.3 1787 1086.3 1778.38 1077.68 1797.38 1058.68 1790.62 1051.93 1775 1067.55 1770.75 1063.3 1797.75 1036.3 1792.62 1031.18 1816.75 1007.05 1810.83 1001.13 1786.17 1025.8 1780.17 1019.8 1789 1010.97 1789 995.97 1805.67 979.3 1811 979.3 1811 987.97 1818.33 987.97 1818.33 963.97 1837.5 944.8 1833.33 940.63"/>
    <polygon class="cls-12" points="857 1287.97 735.67 1287.97 735.67 1298.63 705 1298.63 705 1287.97 689.67 1287.97 689.67 1305.3 598.33 1305.3 598.33 1312.63 611 1312.63 611 1323.97 598.33 1323.97 598.33 1331.63 613 1331.63 613 1341.3 598.33 1341.3 598.33 1354.97 581.17 1372.13 581.17 1379.3 570.33 1379.3 570.33 1373.63 559 1373.63 559 1392.3 571.5 1404.8 571.5 1417.3 554.92 1433.88 568 1446.97 587.83 1427.13 629.5 1468.8 692.33 1468.8 692.33 1456.63 652 1456.63 652 1442.63 692.17 1402.47 857 1402.47 857 1287.97"/>
    <polygon class="cls-4" points="859.5 1305.3 821 1305.3 787.03 1339.27 757.78 1310.02 751.25 1316.55 776.5 1341.8 767.25 1351.05 740.19 1323.99 733.75 1330.43 745.81 1342.49 736.62 1351.68 726.69 1341.74 697.06 1371.36 713.75 1388.05 713.75 1396.8 686 1396.8 686 1409.3 697 1409.3 719.75 1432.05 701 1432.05 701 1442.8 729 1442.8 741.25 1455.05 857 1455.05 857 1464.97 787.67 1464.97 787.67 1472.97 813.5 1498.8 872 1498.8 872 1508.3 902.5 1508.3 902.5 1524.3 916 1524.3 929.25 1537.55 973.5 1537.55 973.5 1550.63 1013 1550.63 1013 1563.3 1082 1563.3 1099.25 1546.05 1122 1546.05 1122 1305.3 859.5 1305.3"/>
    <path class="cls-11" d="M1144.33,1497.55v113.75h-13.33v12h42.67v-14.67h-14v-12l22.67-22.67h15.33v22.67h14.67l8-8,19.33,19.33h15.17v-37.33h-15.83v-36.67h-18.67v-36.54s-78.67,.13-76,.13Z"/>
    <polygon class="cls-12" points="1197.67 1282.63 1104.17 1189.13 1067 1188.3 931 1188.3 845.5 1273.8 845.5 1409.3 933.75 1497.55 1144.33 1497.55 1197.67 1444.22 1197.67 1282.63"/>
    <polygon class="cls-5" points="1070.17 1226.63 960.33 1226.63 895 1291.97 895 1399.3 960.67 1464.97 1083.67 1464.97 1139.5 1409.13 1139.5 1295.97 1070.17 1226.63"/>
    <polygon class="cls-13" points="710.5 1313.3 634.5 1313.3 634.5 1332.3 606.75 1360.05 606.75 1374.3 599 1374.3 599 1382.3 606 1382.3 606 1399.3 586.88 1418.43 609.62 1441.18 614.75 1436.05 609 1430.3 623.75 1415.55 623.75 1402.8 631.75 1402.8 650 1421.05 657.5 1413.55 646.25 1402.3 652.88 1395.68 652.88 1388.3 641.25 1388.3 641.25 1377.24 630.41 1366.39 638.12 1358.68 659.09 1379.64 664.97 1373.77 664.97 1363.55 659.5 1363.55 659.5 1352.3 673.5 1352.3 673.5 1342.97 688.33 1342.97 688.33 1335.3 677 1335.3 677 1322.3 710.5 1322.3 710.5 1313.3"/>
    <polygon class="cls-12" points="607.67 1513.63 628.33 1492.97 621.42 1486.05 621.42 1477.13 585.23 1440.95 578.69 1447.49 596 1464.8 596 1478.8 583.5 1478.8 566.84 1462.14 559.84 1469.14 559.84 1510.3 525 1510.3 525 1520.8 535 1520.8 535 1538.8 506.25 1567.55 467.5 1567.55 467.5 1651.3 492.92 1676.72 562 1607.63 554.96 1600.59 576.29 1579.26 576.29 1558.95 601.89 1533.35 601.89 1524.63 581.33 1524.63 581.33 1513.63 607.67 1513.63"/>
    <g>
        <rect class="cls-11" x="828.37" y="2030.36" width="103.3" height="16.5" transform="translate(-1183.77 1219.37) rotate(-45)"/>
        <polygon class="cls-11" points="948.42 2034.14 925 2034.14 866.49 2092.66 866.49 2102.83 892 2102.83 948.42 2046.42 948.42 2034.14"/>
        <polygon class="cls-11" points="977.75 2070.8 966.92 2081.63 961.31 2081.63 961.31 2060.49 936.62 2085.18 936.62 2095.55 986 2095.55 986 2070.8 977.75 2070.8"/>
    </g>
    <polygon class="cls-11" points="957 2215.3 957 2244.3 978.5 2244.3 1014 2279.8 1032.5 2261.3 1039.75 2268.55 1034.5 2273.8 1041 2280.3 1070.5 2250.8 1088.75 2269.05 1088.75 2280.3 1130 2280.3 1130 2234.8 1120.5 2234.8 1101.5 2253.8 1095 2247.3 1095 2225.8 1078.5 2225.8 1068 2236.3 1037 2236.3 1052.5 2220.8 1042.25 2210.55 1029.75 2223.05 992 2223.05 992 2210.55 957 2210.55 957 2215.3"/>
    <polygon class="cls-4" points="1240.62 1701.97 1168 1701.97 1168 1731.3 1123 1776.3 976 1776.3 943 1809.3 801 1809.3 801 1835.3 627 1835.3 363.73 2098.57 369.4 2104.23 628.33 1845.3 801 1845.3 845.5 1845.3 845.5 1868.3 811 1868.3 788 1891.3 715 1891.3 323 2283.3 330 2290.3 720.17 1900.13 779.17 1900.13 772.75 1906.55 816.75 1906.55 484.94 2238.36 491.06 2244.49 829 1906.55 829 1922.3 865 1922.3 887 1900.3 904 1900.3 862.5 1941.8 490.33 2313.97 496.33 2319.97 874.5 1941.8 895 1941.8 918.25 1918.55 941 1918.55 887.46 1972.09 887.46 1972.09 561.79 2297.76 566.17 2302.13 887.46 1980.84 887.46 2006.3 915.23 1978.53 951 1978.53 928.68 2041.54 637.79 2332.42 642.33 2336.97 975.89 2003.42 975.89 2035.3 1021.58 2035.3 1021.58 2052.3 1048 2052.3 1082.67 2017.63 1082.67 1986.3 1052 1986.3 1052 1969.63 1077 1969.63 1077 1953.3 1150 1953.3 1150 1937.8 1216 1937.8 1216 1953.3 1229.5 1953.3 1253.25 1929.55 1261.25 1937.55 1242.33 1956.47 1254.25 1968.38 1295.67 1926.97 1285.75 1917.05 1302.75 1900.05 1315.5 1900.05 1315.5 1879.3 1288.5 1879.3 1263 1853.8 1278.5 1838.3 1298.5 1858.3 1323 1858.3 1380 1801.3 1380 1701.97 1240.62 1701.97"/>
    <polygon class="cls-4" points="689 1245.13 689 1236.47 731.67 1236.47 731.67 1221.13 678.33 1221.13 678.33 1201.09 636 1201.09 636 1209.13 658.33 1209.13 658.33 1221.13 641.67 1221.13 641.67 1232.47 666.33 1232.47 666.33 1242.47 605.67 1242.47 605.67 1249.8 605.67 1249.97 626.33 1249.97 626.33 1259.8 648.69 1259.8 648.69 1268.47 690.33 1268.47 690.33 1255.8 745 1255.8 745 1245.13 689 1245.13"/>
    <polygon class="cls-12" points="1400 1661.3 1312 1661.3 1295.5 1677.8 1259 1677.8 1259 1686.3 1283.5 1710.8 1307 1710.8 1372.25 1776.05 1372.25 1821.3 1400 1849.05 1400 1661.3"/>
    <polygon class="cls-12" points="1400 1897.8 1377.38 1920.43 1377.38 1936.8 1400 1936.8 1400 1897.8"/>
    <g>
        <polygon class="cls-9" points="1197.5 1784.3 1197.5 1775.8 1143.5 1775.8 1121.5 1797.8 1072 1797.8 1072 1821.93 1051 1821.93 1051 1818.24 1014.81 1818.24 984 1849.05 984 1856.05 1069.25 1856.05 1082.5 1842.8 1130 1842.8 1169.5 1803.3 1248.5 1803.3 1248.5 1787.8 1248.5 1784.3 1197.5 1784.3"/>
        <polygon class="cls-9" points="1202.21 1871.18 1181.67 1871.18 1194.56 1858.28 1169 1858.28 1153.89 1873.39 1120.33 1873.39 1073.38 1920.35 1073.38 1926.63 1091 1926.63 1113.96 1903.68 1140.33 1903.68 1140.33 1909.97 1150.33 1909.97 1172.67 1887.63 1207 1887.63 1207 1897.8 1219.67 1897.8 1244 1873.47 1244 1849.05 1224.33 1849.05 1202.21 1871.18"/>
    </g>
    <polygon class="cls-5" points="892.75 542.05 867 542.05 810.62 485.68 793.5 485.68 747.81 439.99 728.5 439.99 687.66 399.14 679 399.14 659.58 379.72 642.5 379.72 642.5 368.3 620.67 368.3 620.67 352.63 608 352.63 608 347.3 599 347.3 599 341.97 583.67 341.97 566.33 324.63 545 324.63 536.33 315.97 474 315.97 474 337.3 514 337.3 542.5 365.8 568 365.8 568 353.3 595 353.3 595 378.8 604.5 378.8 604.5 397.3 623 397.3 623 391.8 660 391.8 660 410.3 638.75 431.55 644.75 437.55 672 410.3 733 471.3 756 471.3 775 490.3 775 504.3 801.5 504.3 869.75 572.55 892 572.55 964.88 645.43 964.88 683.93 995 683.93 995 726.3 1023 726.3 1045.5 748.8 1061 748.8 1061 710.3 892.75 542.05"/>
    <g>
        <polygon class="cls-7" points="654 442.05 656.46 444.51 644.33 456.63 649.33 461.63 622.33 488.63 632.67 498.97 657.33 474.3 711.67 474.3 711.67 467.47 670.12 425.93 654 442.05"/>
        <polygon class="cls-7" points="817 533.51 797.88 533.51 785.67 521.3 762 521.3 738 497.3 732 503.3 763 534.3 763 548.63 781.67 548.63 785.79 544.51 803.67 562.38 816.08 562.38 811.17 557.47 818.04 550.59 851.12 583.68 859.15 575.66 817 533.51"/>
    </g>
    <polygon class="cls-6" points="960.67 1464.97 1083.67 1464.97 1139.5 1409.13 1139.5 1317.8 1105.5 1317.8 1105.5 1335.24 1116 1335.24 1116 1345.8 1110 1345.8 1110 1386.3 1099.5 1386.3 1099.5 1410.63 1089.83 1410.63 1062.5 1437.97 1011.33 1437.97 1011.33 1448.97 989.67 1448.97 989.67 1439.3 970.33 1419.97 954.67 1419.97 954.67 1405.97 919 1405.97 919 1400 928.97 1400 928.97 1381.94 909.67 1362.63 921.67 1350.63 921.67 1291.97 895 1291.97 895 1399.3 960.67 1464.97"/>
    <polygon class="cls-12" points="1943 1287.97 2064.33 1287.97 2064.33 1298.63 2095 1298.63 2095 1287.97 2110.33 1287.97 2110.33 1305.3 2201.67 1305.3 2201.67 1312.63 2189 1312.63 2189 1323.97 2201.67 1323.97 2201.67 1331.63 2187 1331.63 2187 1341.3 2201.67 1341.3 2201.67 1354.97 2218.83 1372.13 2218.83 1379.3 2229.67 1379.3 2229.67 1373.63 2241 1373.63 2241 1392.3 2228.5 1404.8 2228.5 1417.3 2245.08 1433.88 2232 1446.97 2212.17 1427.13 2170.5 1468.8 2107.67 1468.8 2107.67 1456.63 2148 1456.63 2148 1442.63 2107.83 1402.47 1943 1402.47 1943 1287.97"/>
    <polygon class="cls-4" points="1940.5 1305.3 1979 1305.3 2012.97 1339.27 2042.22 1310.02 2048.75 1316.55 2023.5 1341.8 2032.75 1351.05 2059.81 1323.99 2066.25 1330.43 2054.19 1342.49 2063.38 1351.68 2073.31 1341.74 2102.94 1371.36 2086.25 1388.05 2086.25 1396.8 2114 1396.8 2114 1409.3 2103 1409.3 2080.25 1432.05 2099 1432.05 2099 1442.8 2071 1442.8 2058.75 1455.05 1943 1455.05 1943 1464.97 2012.33 1464.97 2012.33 1472.97 1986.5 1498.8 1928 1498.8 1928 1508.3 1897.5 1508.3 1897.5 1524.3 1884 1524.3 1870.75 1537.55 1826.5 1537.55 1826.5 1550.63 1787 1550.63 1787 1563.3 1718 1563.3 1700.75 1546.05 1678 1546.05 1678 1305.3 1940.5 1305.3"/>
    <path class="cls-11" d="M1655.67,1497.55v113.75h13.33v12h-42.67v-14.67h14v-12l-22.67-22.67h-15.33v22.67h-14.67l-8-8-19.33,19.33h-15.17v-37.33h15.83v-36.67h18.67v-36.54s78.67,.13,76,.13Z"/>
    <polygon class="cls-12" points="1602.33 1282.63 1695.83 1189.13 1733 1188.3 1869 1188.3 1954.5 1273.8 1954.5 1409.3 1866.25 1497.55 1655.67 1497.55 1602.33 1444.22 1602.33 1282.63"/>
    <g>
        <polygon class="cls-7" points="1144.33 1515.3 1158.33 1515.3 1169.33 1504.3 1169.33 1527.3 1157.67 1527.3 1157.67 1550.63 1197.67 1550.63 1197.67 1444.22 1144.33 1497.55 1144.33 1515.3"/>
        <polygon class="cls-7" points="1641.67 1515.3 1655.67 1515.3 1655.67 1497.55 1602.33 1444.22 1602.33 1550.63 1642.33 1550.63 1642.33 1527.3 1630.67 1527.3 1630.67 1504.3 1641.67 1515.3"/>
    </g>
    <polygon class="cls-5" points="1729.83 1226.63 1839.67 1226.63 1905 1291.97 1905 1399.3 1839.33 1464.97 1716.33 1464.97 1660.5 1409.13 1660.5 1295.97 1729.83 1226.63"/>
    <g>
        <polygon class="cls-9" points="1302 1002.63 1293 1002.63 1293 982.3 1279.33 982.3 1279.33 1004.63 1272 1004.63 1272 946.97 1265 946.97 1265 968.3 1254 968.3 1254 918.3 1241.67 918.3 1241.67 977.63 1234 977.63 1234 936.3 1225.75 936.3 1225.75 960.05 1215.5 970.3 1215.5 988.3 1227 988.3 1227 1009.8 1208.5 1009.8 1208.5 1034.3 1197.67 1034.3 1197.67 1124.63 1235.67 1162.63 1235.67 1188.3 1254.83 1188.3 1254.83 1128.13 1280.67 1102.3 1287.33 1108.97 1269.67 1126.63 1277.5 1134.47 1324.67 1087.3 1324.67 1068.63 1302 1068.63 1302 1002.63"/>
        <polygon class="cls-9" points="1591.5 1034.3 1591.5 1009.8 1573 1009.8 1573 988.3 1584.5 988.3 1584.5 970.3 1574.25 960.05 1574.25 936.3 1566 936.3 1566 977.63 1558.33 977.63 1558.33 918.3 1546 918.3 1546 968.3 1535 968.3 1535 946.97 1528 946.97 1528 1004.63 1520.67 1004.63 1520.67 982.3 1507 982.3 1507 1002.63 1498 1002.63 1498 1068.63 1475.33 1068.63 1475.33 1087.3 1522.5 1134.47 1530.33 1126.63 1512.67 1108.97 1519.33 1102.3 1545.17 1128.13 1545.17 1188.3 1564.33 1188.3 1564.33 1162.63 1602.33 1124.63 1602.33 1034.3 1591.5 1034.3"/>
    </g>
    <polygon class="cls-2" points="1697.67 2065.97 1697.67 2042.3 1684.33 2028.97 1684.33 2016.63 1678 2016.63 1678 2042.32 1671.98 2042.32 1660 2030.34 1660 2009.97 1625.67 1975.63 1610.67 1975.63 1610.67 1969.63 1604.67 1969.63 1604.67 1981.63 1570.42 1981.63 1570.42 1988.88 1591.67 2010.13 1596.83 2010.13 1602.83 2004.13 1633.33 2034.63 1633.33 2040.97 1621.67 2040.97 1613.5 2032.8 1599.33 2046.97 1592.92 2046.97 1592.92 2057.22 1580.33 2069.8 1535.17 2069.8 1541.5 2076.13 1534.15 2083.49 1512.81 2062.16 1506 2068.97 1523.83 2086.8 1520 2090.63 1499.83 2070.47 1494.38 2075.93 1509.5 2091.05 1503.25 2091.05 1470.5 2058.3 1457.5 2058.3 1457.5 2039.8 1441.5 2055.8 1435 2055.8 1435 2034.3 1424.5 2034.3 1424.5 2055.8 1414.5 2055.8 1414.5 2041.3 1400 2041.3 1385.5 2041.3 1385.5 2055.8 1375.5 2055.8 1375.5 2034.3 1365 2034.3 1365 2055.8 1358.5 2055.8 1342.5 2039.8 1342.5 2058.3 1329.5 2058.3 1296.75 2091.05 1290.5 2091.05 1305.62 2075.93 1300.17 2070.47 1280 2090.63 1276.17 2086.8 1294 2068.97 1287.19 2062.16 1265.85 2083.49 1258.5 2076.13 1264.83 2069.8 1219.67 2069.8 1207.08 2057.22 1207.08 2046.97 1200.67 2046.97 1186.5 2032.8 1178.33 2040.97 1166.67 2040.97 1166.67 2034.63 1197.17 2004.13 1203.17 2010.13 1208.33 2010.13 1229.58 1988.88 1229.58 1981.63 1195.33 1981.63 1195.33 1969.63 1189.33 1969.63 1189.33 1975.63 1174.33 1975.63 1140 2009.97 1140 2030.34 1128.02 2042.32 1122 2042.32 1122 2016.63 1115.67 2016.63 1115.67 2028.97 1102.33 2042.3 1102.33 2065.97 1088.33 2079.97 1096.88 2088.51 1109.88 2075.51 1119.33 2084.97 1113.12 2091.18 1123.12 2101.18 1123.12 2129.3 1135 2129.3 1135 2107.97 1152.33 2107.97 1152.33 2123.3 1169 2123.3 1169 2106.63 1187 2106.63 1187 2136.63 1201.67 2136.63 1201.67 2141.3 1217.67 2141.3 1217.67 2151.97 1197.67 2171.97 1205.33 2179.63 1237.58 2147.38 1237.58 2167.3 1250.33 2167.3 1250.33 2153.3 1269.67 2153.3 1269.67 2167.3 1255.67 2181.3 1262.67 2188.3 1296 2154.97 1296 2173.3 1288.17 2181.13 1296.17 2189.13 1327.42 2157.88 1327.42 2179.3 1346.33 2179.3 1346.33 2193.97 1359 2193.97 1375 2177.97 1400 2177.97 1425 2177.97 1441 2193.97 1453.67 2193.97 1453.67 2179.3 1472.58 2179.3 1472.58 2157.88 1503.83 2189.13 1511.83 2181.13 1504 2173.3 1504 2154.97 1537.33 2188.3 1544.33 2181.3 1530.33 2167.3 1530.33 2153.3 1549.67 2153.3 1549.67 2167.3 1562.42 2167.3 1562.42 2147.38 1594.67 2179.63 1602.33 2171.97 1582.33 2151.97 1582.33 2141.3 1598.33 2141.3 1598.33 2136.63 1613 2136.63 1613 2106.63 1631 2106.63 1631 2123.3 1647.67 2123.3 1647.67 2107.97 1665 2107.97 1665 2129.3 1676.88 2129.3 1676.88 2101.18 1686.88 2091.18 1680.67 2084.97 1690.12 2075.51 1703.12 2088.51 1711.67 2079.97 1697.67 2065.97"/>
    <g>
        <polygon class="cls-7" points="1342.33 951.3 1342.33 927.3 1329.67 927.3 1329.67 871.3 1318.33 871.3 1318.33 886.63 1310.33 886.63 1310.33 827.97 1297 827.97 1297 886.63 1290.33 886.63 1290.33 847.3 1279.67 847.3 1279.67 869.97 1273 869.97 1273 785.3 1261.17 785.3 1261.17 670.3 1249 670.3 1249 696.3 1227.5 696.3 1227.5 571.8 1249 550.3 1240.5 541.8 1214.17 568.13 1205.5 559.47 1181.67 583.3 1181.67 663.97 1170.33 663.97 1170.33 640.63 1163.67 640.63 1163.67 759.3 1153.67 759.3 1153.67 650.63 1145 650.63 1145 677.97 1136 677.97 1136 656.3 1115.67 635.97 1107.29 644.34 1123.58 660.63 1123.58 694.05 1140.17 710.63 1140.17 789.97 1140.17 825.3 1149.67 825.3 1149.67 849.97 1157.67 849.97 1157.67 818.63 1168.33 818.63 1168.33 883.97 1189 883.97 1189 869.97 1202.33 869.97 1202.33 915.63 1192 915.63 1173.67 897.3 1156.5 897.3 1156.5 918.13 1145.67 907.3 1135 907.3 1135 923.97 1119.67 923.97 1119.67 885.3 1109.67 885.3 1109.67 935.97 1100.33 935.97 1100.33 913.3 1087.67 913.3 1087.67 900.63 1079.67 900.63 1079.67 947.3 1093.67 961.3 1084.33 970.63 1113 999.3 1113 1009.97 1086.33 983.3 1078 991.63 1109.67 1023.3 1099.67 1023.3 1099.67 1045.97 1113 1045.97 1113 1067.97 1094.92 1067.97 1094.92 1093.38 1139.5 1137.97 1151 1137.97 1155.67 1137.97 1155.67 1126.63 1137.33 1108.3 1145 1100.63 1173 1128.63 1184.5 1117.13 1166.33 1098.97 1166.33 1090.97 1174.67 1090.97 1174.67 1043.97 1183 1043.97 1183 987.63 1205 987.63 1205 931.97 1219.33 931.97 1219.33 870.3 1232.33 870.3 1232.33 903.63 1263 903.63 1263 939.3 1272.67 939.3 1272.67 918.3 1284.67 918.3 1284.67 951.3 1298.67 951.3 1298.67 978.97 1313 993.3 1324.67 993.3 1324.67 1026.3 1333 1026.3 1333 1057.3 1356 1057.3 1356 1123.3 1368.33 1123.3 1368.33 961.97 1357.67 951.3 1342.33 951.3"/>
        <polygon class="cls-7" points="1687 1045.97 1700.33 1045.97 1700.33 1023.3 1690.33 1023.3 1722 991.63 1713.67 983.3 1687 1009.97 1687 999.3 1715.67 970.63 1706.33 961.3 1720.33 947.3 1720.33 900.63 1712.33 900.63 1712.33 913.3 1699.67 913.3 1699.67 935.97 1690.33 935.97 1690.33 885.3 1680.33 885.3 1680.33 923.97 1665 923.97 1665 907.3 1654.33 907.3 1643.5 918.13 1643.5 897.3 1626.33 897.3 1608 915.63 1597.67 915.63 1597.67 869.97 1611 869.97 1611 883.97 1631.67 883.97 1631.67 818.63 1642.33 818.63 1642.33 849.97 1650.33 849.97 1650.33 825.3 1659.83 825.3 1659.83 789.97 1659.83 710.63 1676.42 694.05 1676.42 660.63 1692.71 644.34 1684.33 635.97 1664 656.3 1664 677.97 1655 677.97 1655 650.63 1646.33 650.63 1646.33 759.3 1636.33 759.3 1636.33 640.63 1629.67 640.63 1629.67 663.97 1618.33 663.97 1618.33 583.3 1594.5 559.47 1585.83 568.13 1559.5 541.8 1551 550.3 1572.5 571.8 1572.5 696.3 1551 696.3 1551 670.3 1538.83 670.3 1538.83 785.3 1527 785.3 1527 869.97 1520.33 869.97 1520.33 847.3 1509.67 847.3 1509.67 886.63 1503 886.63 1503 827.97 1489.67 827.97 1489.67 886.63 1481.67 886.63 1481.67 871.3 1470.33 871.3 1470.33 927.3 1457.67 927.3 1457.67 951.3 1442.33 951.3 1431.67 961.97 1431.67 1123.3 1444 1123.3 1444 1057.3 1467 1057.3 1467 1026.3 1475.33 1026.3 1475.33 993.3 1487 993.3 1501.33 978.97 1501.33 951.3 1515.33 951.3 1515.33 918.3 1527.33 918.3 1527.33 939.3 1537 939.3 1537 903.63 1567.67 903.63 1567.67 870.3 1580.67 870.3 1580.67 931.97 1595 931.97 1595 987.63 1617 987.63 1617 1043.97 1625.33 1043.97 1625.33 1090.97 1633.67 1090.97 1633.67 1098.97 1615.5 1117.13 1627 1128.63 1655 1100.63 1662.67 1108.3 1644.33 1126.63 1644.33 1137.97 1649 1137.97 1660.5 1137.97 1705.08 1093.38 1705.08 1067.97 1687 1067.97 1687 1045.97"/>
    </g>
    <g>
        <polygon class="cls-12" points="1374.33 1069.97 1382.67 1078.3 1391.67 1078.3 1391.67 1087.97 1376.33 1103.3 1376.33 1132.63 1400 1132.63 1423.67 1132.63 1423.67 1103.3 1408.33 1087.97 1408.33 1078.3 1417.33 1078.3 1425.67 1069.97 1409 1053.3 1409 1041.97 1424.83 1041.97 1424.83 1001.47 1411.33 987.97 1411.33 975.63 1418.33 975.63 1418.33 918.3 1409 918.3 1409 875.97 1400 875.97 1391 875.97 1391 918.3 1381.67 918.3 1381.67 975.63 1388.67 975.63 1388.67 987.97 1375.17 1001.47 1375.17 1041.97 1391 1041.97 1391 1053.3 1374.33 1069.97"/>
        <polygon class="cls-12" points="1457 1186.47 1457 1156.63 1445 1156.63 1445 1198.3 1425 1198.3 1425 1216.3 1400 1216.3 1375 1216.3 1375 1198.3 1355 1198.3 1355 1156.63 1343 1156.63 1343 1186.47 1301.25 1228.22 1312.67 1239.63 1345 1207.3 1359 1221.3 1350.81 1229.49 1358.31 1236.99 1373.67 1236.99 1352.51 1258.14 1362.33 1267.97 1378.67 1251.63 1387.67 1251.63 1387.67 1286.63 1400 1286.63 1412.33 1286.63 1412.33 1251.63 1421.33 1251.63 1437.67 1267.97 1447.49 1258.14 1426.33 1236.99 1441.69 1236.99 1449.19 1229.49 1441 1221.3 1455 1207.3 1487.33 1239.63 1498.75 1228.22 1457 1186.47"/>
    </g>
    <polygon class="cls-12" points="1523.31 541.49 1510 541.49 1510 557.3 1501 557.3 1501 532.8 1481 532.8 1481 536.8 1452 536.8 1442.5 527.3 1442.5 544.8 1434.5 544.8 1434.5 520.3 1400 520.3 1365.5 520.3 1365.5 544.8 1357.5 544.8 1357.5 527.3 1348 536.8 1319 536.8 1319 532.8 1299 532.8 1299 557.3 1290 557.3 1290 541.49 1276.69 541.49 1256.38 561.8 1256.38 606.68 1268.25 594.8 1268.25 579.55 1278.5 569.3 1278.5 627.3 1288.5 617.3 1288.5 584.3 1303.5 569.3 1319.5 569.3 1319.5 597.3 1311.17 597.3 1311.17 611.47 1269 653.63 1277.42 662.05 1283.17 656.3 1283.17 700.8 1269.33 714.63 1269.33 778.3 1280.67 778.3 1280.67 723.63 1290 723.63 1290 745.3 1298.83 745.3 1298.83 718.13 1313.33 703.63 1313.33 685.3 1327.33 671.3 1327.33 622.97 1348.33 601.97 1348.33 649.3 1335 649.3 1335 658.63 1343.6 658.63 1343.6 709.24 1331.54 721.3 1331.54 750.84 1322.83 759.55 1322.83 776.13 1343 755.97 1355 767.97 1345.67 777.3 1345.67 803.3 1321.04 827.93 1332.21 839.09 1345.65 825.66 1353.81 833.82 1346 841.63 1353.96 849.59 1363.62 839.93 1370.17 846.47 1400 816.63 1429.83 846.47 1436.38 839.93 1446.04 849.59 1454 841.63 1446.19 833.82 1454.35 825.66 1467.79 839.09 1478.96 827.93 1454.33 803.3 1454.33 777.3 1445 767.97 1457 755.97 1477.17 776.13 1477.17 759.55 1468.46 750.84 1468.46 721.3 1456.4 709.24 1456.4 658.63 1465 658.63 1465 649.3 1451.67 649.3 1451.67 601.97 1472.67 622.97 1472.67 671.3 1486.67 685.3 1486.67 703.63 1501.17 718.13 1501.17 745.3 1510 745.3 1510 723.63 1519.33 723.63 1519.33 778.3 1530.67 778.3 1530.67 714.63 1516.83 700.8 1516.83 656.3 1522.58 662.05 1531 653.63 1488.83 611.47 1488.83 597.3 1480.5 597.3 1480.5 569.3 1496.5 569.3 1511.5 584.3 1511.5 617.3 1521.5 627.3 1521.5 569.3 1531.75 579.55 1531.75 594.8 1543.62 606.68 1543.62 561.8 1523.31 541.49"/>
    <g>
        <polygon class="cls-8" points="650.21 1747.84 684.25 1713.8 684.25 1692.05 696.5 1704.3 702.75 1698.05 690 1685.3 710.5 1664.8 752 1664.8 752 1652.8 729 1652.8 752 1629.8 731.5 1609.3 741 1599.8 731.75 1590.55 721 1601.3 697.5 1577.8 697.5 1567.3 714 1567.3 714 1557.3 670 1557.3 670 1545.3 683.5 1545.3 683.5 1535.8 652.5 1535.8 625 1563.3 589 1563.3 589 1576.55 599.75 1576.55 599.75 1584.3 589.67 1584.3 589.67 1591.3 600.33 1591.3 600.33 1604.63 588.33 1604.63 573.67 1619.3 604.33 1649.97 573.67 1680.63 566.33 1673.3 552 1687.63 579 1714.63 579 1728.63 597 1728.63 597 1747.84 650.21 1747.84"/>
        <polygon class="cls-8" points="794.98 1752.32 786.6 1743.95 816.62 1713.93 816.62 1701.97 776.5 1701.97 752.08 1726.38 734.5 1726.38 734.5 1720.8 713 1720.8 713 1729.3 686.5 1755.8 677.02 1746.32 642.02 1781.32 622.5 1781.32 603.26 1800.56 618.81 1816.11 665 1816.11 665 1805.8 734 1805.8 751.75 1788.05 769.5 1788.05 793.12 1764.43 810 1764.43 810 1750.8 818.5 1742.3 811.75 1735.55 794.98 1752.32"/>
        <polygon class="cls-8" points="2233.67 1673.3 2226.33 1680.63 2195.67 1649.97 2226.33 1619.3 2211.67 1604.63 2199.67 1604.63 2199.67 1591.3 2210.33 1591.3 2210.33 1584.3 2200.25 1584.3 2200.25 1576.55 2211 1576.55 2211 1563.3 2175 1563.3 2147.5 1535.8 2116.5 1535.8 2116.5 1545.3 2130 1545.3 2130 1557.3 2086 1557.3 2086 1567.3 2102.5 1567.3 2102.5 1577.8 2079 1601.3 2068.25 1590.55 2059 1599.8 2068.5 1609.3 2048 1629.8 2071 1652.8 2048 1652.8 2048 1664.8 2089.5 1664.8 2110 1685.3 2097.25 1698.05 2103.5 1704.3 2115.75 1692.05 2115.75 1713.8 2149.79 1747.84 2203 1747.84 2203 1728.63 2221 1728.63 2221 1714.63 2248 1687.63 2233.67 1673.3"/>
        <polygon class="cls-8" points="2157.98 1781.32 2122.98 1746.32 2113.5 1755.8 2087 1729.3 2087 1720.8 2065.5 1720.8 2065.5 1726.38 2047.92 1726.38 2023.5 1701.97 1983.38 1701.97 1983.38 1713.93 2013.4 1743.95 2005.02 1752.32 1988.25 1735.55 1981.5 1742.3 1990 1750.8 1990 1764.43 2006.88 1764.43 2030.5 1788.05 2048.25 1788.05 2066 1805.8 2135 1805.8 2135 1816.11 2181.19 1816.11 2196.74 1800.56 2177.5 1781.32 2157.98 1781.32"/>
    </g>
    <polygon class="cls-13" points="2089.5 1313.3 2165.5 1313.3 2165.5 1332.3 2193.25 1360.05 2193.25 1374.3 2201 1374.3 2201 1382.3 2194 1382.3 2194 1399.3 2213.12 1418.43 2190.38 1441.18 2185.25 1436.05 2191 1430.3 2176.25 1415.55 2176.25 1402.8 2168.25 1402.8 2150 1421.05 2142.5 1413.55 2153.75 1402.3 2147.12 1395.68 2147.12 1388.3 2158.75 1388.3 2158.75 1377.24 2169.59 1366.39 2161.88 1358.68 2140.91 1379.64 2135.03 1373.77 2135.03 1363.55 2140.5 1363.55 2140.5 1352.3 2126.5 1352.3 2126.5 1342.97 2111.67 1342.97 2111.67 1335.3 2123 1335.3 2123 1322.3 2089.5 1322.3 2089.5 1313.3"/>
    <polygon class="cls-12" points="2192.33 1513.63 2171.67 1492.97 2178.58 1486.05 2178.58 1477.13 2214.77 1440.95 2221.31 1447.49 2204 1464.8 2204 1478.8 2216.5 1478.8 2233.16 1462.14 2240.16 1469.14 2240.16 1510.3 2275 1510.3 2275 1520.8 2265 1520.8 2265 1538.8 2293.75 1567.55 2332.5 1567.55 2332.5 1651.3 2307.08 1676.72 2238 1607.63 2245.04 1600.59 2223.71 1579.26 2223.71 1558.95 2198.11 1533.35 2198.11 1524.63 2218.67 1524.63 2218.67 1513.63 2192.33 1513.63"/>
    <g>
        <polygon class="cls-5" points="1101.67 2401.63 1084.67 2384.63 1105 2364.3 1105 2346.3 1073.38 2346.3 1073.38 2329.3 1093 2329.3 1093 2309.3 1042 2309.3 1042 2324.3 1024 2324.3 1024 2305.55 960.75 2305.55 927.5 2272.3 927.5 2218.8 921.17 2212.47 885.67 2247.97 860.33 2222.63 889.33 2193.63 872.5 2176.8 841.17 2208.13 818.67 2185.63 848 2156.3 841 2149.3 809.5 2180.8 794.5 2165.8 847 2113.3 847 2089.3 787 2089.3 805.5 2070.8 793.5 2058.8 767 2085.3 756 2074.3 801 2029.3 790 2018.3 763 2045.3 763 2012.3 739 2012.3 739 1978.3 725 1978.3 725 1962.3 710.88 1962.3 710.88 1926.63 687 1926.63 687 1902.3 646 1902.3 646 1869.63 627.67 1869.63 597.33 1899.97 611 1913.63 597.67 1926.97 605.33 1934.63 620.67 1934.63 620.67 1984.3 587 2017.97 599 2029.97 612 2016.97 621 2025.97 607.67 2039.3 607.67 2168.97 589.67 2186.97 589.67 2218.47 615.17 2218.47 584.83 2248.8 597.79 2261.76 628.46 2231.09 638.67 2241.3 622 2257.97 628 2263.97 650.17 2241.8 665.27 2256.91 632.67 2289.51 654.06 2310.91 698.13 2266.85 698.13 2359.84 680.88 2377.09 699.63 2395.84 739.37 2356.09 758.12 2374.84 758.12 2401.65 781.94 2401.65 809.12 2428.84 833.12 2404.84 856.37 2428.09 834.62 2449.84 834.62 2463.34 902.12 2463.34 902.12 2499.18 1076.12 2499.18 1122 2453.3 1122 2433.3 1135 2433.3 1135 2453.3 1155.35 2453.3 1155.35 2391.65 1133.5 2369.8 1101.67 2401.63"/>
        <polygon class="cls-5" points="2202.21 2261.76 2215.17 2248.8 2184.83 2218.47 2210.33 2218.47 2210.33 2186.97 2192.33 2168.97 2192.33 2039.3 2179 2025.97 2188 2016.97 2201 2029.97 2213 2017.97 2179.33 1984.3 2179.33 1934.63 2194.67 1934.63 2202.33 1926.97 2189 1913.63 2202.67 1899.97 2172.33 1869.63 2154 1869.63 2154 1902.3 2113 1902.3 2113 1926.63 2089.12 1926.63 2089.12 1962.3 2075 1962.3 2075 1978.3 2061 1978.3 2061 2012.3 2037 2012.3 2037 2045.3 2010 2018.3 1999 2029.3 2044 2074.3 2033 2085.3 2006.5 2058.8 1994.5 2070.8 2013 2089.3 1953 2089.3 1953 2113.3 2005.5 2165.8 1990.5 2180.8 1959 2149.3 1952 2156.3 1981.33 2185.63 1958.83 2208.13 1927.5 2176.8 1910.67 2193.63 1939.67 2222.63 1914.33 2247.97 1878.83 2212.47 1872.5 2218.8 1872.5 2272.3 1839.25 2305.55 1776 2305.55 1776 2324.3 1758 2324.3 1758 2309.3 1707 2309.3 1707 2329.3 1726.62 2329.3 1726.62 2346.3 1695 2346.3 1695 2364.3 1715.33 2384.63 1698.33 2401.63 1666.5 2369.8 1644.66 2391.65 1644.66 2453.3 1665 2453.3 1665 2433.3 1678 2433.3 1678 2453.3 1723.88 2499.18 1897.88 2499.18 1897.88 2463.34 1965.38 2463.34 1965.38 2449.84 1943.63 2428.09 1966.88 2404.84 1990.88 2428.84 2018.06 2401.65 2041.88 2401.65 2041.88 2374.84 2060.63 2356.09 2100.37 2395.84 2119.12 2377.09 2101.87 2359.84 2101.87 2266.85 2145.94 2310.91 2167.33 2289.51 2134.73 2256.91 2149.83 2241.8 2172 2263.97 2178 2257.97 2161.33 2241.3 2171.54 2231.09 2202.21 2261.76"/>
    </g>
    <g>
        <rect class="cls-11" x="1911.73" y="1986.97" width="16.5" height="103.3" transform="translate(-879.17 1954.72) rotate(-45)"/>
        <polygon class="cls-11" points="1851.58 2034.14 1875 2034.14 1933.51 2092.66 1933.51 2102.83 1908 2102.83 1851.58 2046.42 1851.58 2034.14"/>
        <polygon class="cls-11" points="1822.25 2070.8 1833.08 2081.63 1838.69 2081.63 1838.69 2060.49 1863.38 2085.18 1863.38 2095.55 1814 2095.55 1814 2070.8 1822.25 2070.8"/>
    </g>
    <polygon class="cls-11" points="1843 2215.3 1843 2244.3 1821.5 2244.3 1786 2279.8 1767.5 2261.3 1760.25 2268.55 1765.5 2273.8 1759 2280.3 1729.5 2250.8 1711.25 2269.05 1711.25 2280.3 1670 2280.3 1670 2234.8 1679.5 2234.8 1698.5 2253.8 1705 2247.3 1705 2225.8 1721.5 2225.8 1732 2236.3 1763 2236.3 1747.5 2220.8 1757.75 2210.55 1770.25 2223.05 1808 2223.05 1808 2210.55 1843 2210.55 1843 2215.3"/>
    <polygon class="cls-4" points="1559.38 1701.97 1632 1701.97 1632 1731.3 1677 1776.3 1824 1776.3 1857 1809.3 1999 1809.3 1999 1835.3 2173 1835.3 2436.27 2098.57 2430.6 2104.23 2171.67 1845.3 1999 1845.3 1954.5 1845.3 1954.5 1868.3 1989 1868.3 2012 1891.3 2085 1891.3 2477 2283.3 2470 2290.3 2079.83 1900.13 2020.83 1900.13 2027.25 1906.55 1983.25 1906.55 2315.06 2238.36 2308.94 2244.49 1971 1906.55 1971 1922.3 1935 1922.3 1913 1900.3 1896 1900.3 1937.5 1941.8 2309.67 2313.97 2303.67 2319.97 1925.5 1941.8 1905 1941.8 1881.75 1918.55 1859 1918.55 1912.54 1972.09 1912.54 1972.09 2238.21 2297.76 2233.83 2302.13 1912.54 1980.84 1912.54 2006.3 1884.77 1978.53 1849 1978.53 1871.32 2041.54 2162.21 2332.42 2157.67 2336.97 1824.11 2003.42 1824.11 2035.3 1778.42 2035.3 1778.42 2052.3 1752 2052.3 1717.33 2017.63 1717.33 1986.3 1748 1986.3 1748 1969.63 1723 1969.63 1723 1953.3 1650 1953.3 1650 1937.8 1584 1937.8 1584 1953.3 1570.5 1953.3 1546.75 1929.55 1538.75 1937.55 1557.67 1956.47 1545.75 1968.38 1504.33 1926.97 1514.25 1917.05 1497.25 1900.05 1484.5 1900.05 1484.5 1879.3 1511.5 1879.3 1537 1853.8 1521.5 1838.3 1501.5 1858.3 1477 1858.3 1420 1801.3 1420 1701.97 1559.38 1701.97"/>
    <g>
        <polygon class="cls-12" points="414 685.55 437.75 685.55 494.25 629.05 486.25 621.05 475.88 631.43 468.88 624.43 480.75 612.55 474.25 606.05 453.25 627.05 447.5 621.3 469 599.8 459.75 590.55 443 607.3 437 601.3 470.25 568.05 463.25 561.05 448.5 575.8 444.5 571.8 470.25 546.05 465.75 541.55 455.5 551.8 448.5 544.8 461.5 531.8 461.5 525.68 439.88 525.68 469 496.55 489.25 496.55 514 471.8 514 449.3 505 440.3 482 463.3 477.5 458.8 500 436.3 490.5 426.8 439.75 477.55 434.5 472.3 484 422.8 484 415.05 454.75 415.05 441.75 428.05 433.5 419.8 456 397.3 476 397.3 476 378.8 414.5 378.8 398.34 394.96 398.34 452.64 382.69 468.3 382.69 530.99 393 541.3 393 601.3 413.5 621.8 394.75 640.55 414 659.8 426.5 659.8 414 672.3 414 685.55"/>
        <polygon class="cls-12" points="633.25 754.05 628.5 749.3 648.41 729.39 642.03 723.02 629.5 735.55 600.25 735.55 579.75 756.05 574.5 750.8 585.5 739.8 569.5 739.8 541.25 768.05 536.12 762.93 566.5 732.55 587.75 732.55 602.5 717.8 602.5 709.21 549.59 709.21 541.84 701.46 551.88 691.43 544.38 683.93 517 711.3 501.5 711.3 501.5 699.8 474.5 699.8 474.5 692.8 445 692.8 423.08 714.72 426.83 718.47 436.67 708.63 440.33 712.3 430.67 721.97 434 725.3 441.83 717.47 445.23 720.86 435.46 730.63 435.46 790.51 444.92 799.97 444.92 827.39 457.67 840.13 470.17 840.13 478 832.3 493.67 832.3 510.33 815.63 540.67 815.63 582.67 773.63 588.5 779.47 608.58 759.38 618 768.8 640.17 768.8 620.67 788.3 626.67 794.3 681.67 739.3 684.67 742.3 679.5 747.47 683.17 751.13 697.67 736.63 697.67 751.63 706 751.63 727.67 729.97 727.67 713.55 673.75 713.55 633.25 754.05"/>
        <polygon class="cls-12" points="2401.66 452.64 2401.66 394.96 2385.5 378.8 2324 378.8 2324 397.3 2344 397.3 2366.5 419.8 2358.25 428.05 2345.25 415.05 2316 415.05 2316 422.8 2365.5 472.3 2360.25 477.55 2309.5 426.8 2300 436.3 2322.5 458.8 2318 463.3 2295 440.3 2286 449.3 2286 471.8 2310.75 496.55 2331 496.55 2360.12 525.68 2338.5 525.68 2338.5 531.8 2351.5 544.8 2344.5 551.8 2334.25 541.55 2329.75 546.05 2355.5 571.8 2351.5 575.8 2336.75 561.05 2329.75 568.05 2363 601.3 2357 607.3 2340.25 590.55 2331 599.8 2352.5 621.3 2346.75 627.05 2325.75 606.05 2319.25 612.55 2331.12 624.43 2324.12 631.43 2313.75 621.05 2305.75 629.05 2362.25 685.55 2386 685.55 2386 672.3 2373.5 659.8 2386 659.8 2405.25 640.55 2386.5 621.8 2407 601.3 2407 541.3 2417.31 530.99 2417.31 468.3 2401.66 452.64"/>
        <polygon class="cls-12" points="2325.5 692.8 2325.5 699.8 2298.5 699.8 2298.5 711.3 2283 711.3 2255.62 683.93 2248.12 691.43 2258.16 701.46 2250.41 709.21 2197.5 709.21 2197.5 717.8 2212.25 732.55 2233.5 732.55 2263.88 762.93 2258.75 768.05 2230.5 739.8 2214.5 739.8 2225.5 750.8 2220.25 756.05 2199.75 735.55 2170.5 735.55 2157.97 723.02 2151.59 729.39 2171.5 749.3 2166.75 754.05 2126.25 713.55 2072.33 713.55 2072.33 729.97 2094 751.63 2102.33 751.63 2102.33 736.63 2116.83 751.13 2120.5 747.47 2115.33 742.3 2118.33 739.3 2173.33 794.3 2179.33 788.3 2159.83 768.8 2182 768.8 2191.42 759.38 2211.5 779.47 2217.33 773.63 2259.33 815.63 2289.67 815.63 2306.33 832.3 2322 832.3 2329.83 840.13 2342.33 840.13 2355.08 827.39 2355.08 799.97 2364.54 790.51 2364.54 730.63 2354.77 720.86 2358.17 717.47 2366 725.3 2369.33 721.97 2359.67 712.3 2363.33 708.63 2373.17 718.47 2376.92 714.72 2355 692.8 2325.5 692.8"/>
    </g>
    <polygon class="cls-4" points="2111 1245.13 2111 1236.47 2068.33 1236.47 2068.33 1221.13 2121.67 1221.13 2121.67 1201.09 2164 1201.09 2164 1209.13 2141.67 1209.13 2141.67 1221.13 2158.33 1221.13 2158.33 1232.47 2133.67 1232.47 2133.67 1242.47 2194.33 1242.47 2194.33 1249.8 2194.33 1249.97 2173.67 1249.97 2173.67 1259.8 2151.31 1259.8 2151.31 1268.47 2109.67 1268.47 2109.67 1255.8 2055 1255.8 2055 1245.13 2111 1245.13"/>
    <g>
        <polygon class="cls-1" points="654.67 798.3 644.33 787.97 612.67 819.63 605.33 812.3 547 870.63 547 881.3 571.67 881.3 654.67 798.3"/>
        <polygon class="cls-1" points="619.93 923.76 609.44 913.27 526 996.71 526 1011.97 561.28 1011.97 680 893.25 665.22 878.47 619.93 923.76"/>
        <polygon class="cls-1" points="654.67 998.3 654.67 979.3 677.83 956.13 663.67 941.97 570.33 1035.3 523.67 1035.3 523.67 1050.63 523.67 1071.3 556 1103.63 556 1139.3 625 1139.3 625 1123.97 644.33 1123.97 644.33 1075.3 664.33 1075.3 664.33 1063.97 650.33 1063.97 650.33 1050.63 637.67 1050.63 637.67 1016.63 625 1003.97 630.67 998.3 654.67 998.3"/>
        <polygon class="cls-1" points="600 899.63 592.67 892.3 555.42 929.55 541.67 929.55 559.46 911.76 549 901.3 506.67 943.63 531.33 968.3 600 899.63"/>
        <polygon class="cls-1" points="2253 881.3 2253 870.63 2194.67 812.3 2187.33 819.63 2155.67 787.97 2145.33 798.3 2228.33 881.3 2253 881.3"/>
        <polygon class="cls-1" points="2274 1011.97 2274 996.71 2190.56 913.27 2180.07 923.76 2134.78 878.47 2120 893.25 2238.72 1011.97 2274 1011.97"/>
        <polygon class="cls-1" points="2136.33 941.97 2122.17 956.13 2145.33 979.3 2145.33 998.3 2169.33 998.3 2175 1003.97 2162.33 1016.63 2162.33 1050.63 2149.67 1050.63 2149.67 1063.97 2135.67 1063.97 2135.67 1075.3 2155.67 1075.3 2155.67 1123.97 2175 1123.97 2175 1139.3 2244 1139.3 2244 1103.63 2276.33 1071.3 2276.33 1050.63 2276.33 1035.3 2229.67 1035.3 2136.33 941.97"/>
        <polygon class="cls-1" points="2207.33 892.3 2200 899.63 2268.67 968.3 2293.33 943.63 2251 901.3 2240.54 911.76 2258.33 929.55 2244.58 929.55 2207.33 892.3"/>
    </g>
    <polygon class="cls-12" points="1400 1661.3 1488 1661.3 1504.5 1677.8 1541 1677.8 1541 1686.3 1516.5 1710.8 1493 1710.8 1427.75 1776.05 1427.75 1821.3 1400 1849.05 1400 1661.3"/>
    <polygon class="cls-12" points="1400 1897.8 1422.62 1920.43 1422.62 1936.8 1400 1936.8 1400 1897.8"/>
    <polygon class="cls-10" points="1400 1680.8 1351 1680.8 1351 1709.8 1388.25 1747.05 1400 1747.05 1411.75 1747.05 1449 1709.8 1449 1680.8 1400 1680.8"/>
    <g>
        <polygon class="cls-9" points="1602.5 1784.3 1602.5 1775.8 1656.5 1775.8 1678.5 1797.8 1728 1797.8 1728 1821.93 1749 1821.93 1749 1818.24 1785.19 1818.24 1816 1849.05 1816 1856.05 1730.75 1856.05 1717.5 1842.8 1670 1842.8 1630.5 1803.3 1551.5 1803.3 1551.5 1787.8 1551.5 1784.3 1602.5 1784.3"/>
        <polygon class="cls-9" points="1597.79 1871.18 1618.33 1871.18 1605.44 1858.28 1631 1858.28 1646.11 1873.39 1679.67 1873.39 1726.62 1920.35 1726.62 1926.63 1709 1926.63 1686.04 1903.68 1659.67 1903.68 1659.67 1909.97 1649.67 1909.97 1627.33 1887.63 1593 1887.63 1593 1897.8 1580.33 1897.8 1556 1873.47 1556 1849.05 1575.67 1849.05 1597.79 1871.18"/>
    </g>
    <polygon class="cls-5" points="1907.25 542.05 1933 542.05 1989.38 485.68 2006.5 485.68 2052.19 439.99 2071.5 439.99 2112.34 399.14 2121 399.14 2140.42 379.72 2157.5 379.72 2157.5 368.3 2179.33 368.3 2179.33 352.63 2192 352.63 2192 347.3 2201 347.3 2201 341.97 2216.33 341.97 2233.67 324.63 2255 324.63 2263.67 315.97 2326 315.97 2326 337.3 2286 337.3 2257.5 365.8 2232 365.8 2232 353.3 2205 353.3 2205 378.8 2195.5 378.8 2195.5 397.3 2177 397.3 2177 391.8 2140 391.8 2140 410.3 2161.25 431.55 2155.25 437.55 2128 410.3 2067 471.3 2044 471.3 2025 490.3 2025 504.3 1998.5 504.3 1930.25 572.55 1908 572.55 1835.12 645.43 1835.12 683.93 1805 683.93 1805 726.3 1777 726.3 1754.5 748.8 1739 748.8 1739 710.3 1907.25 542.05"/>
    <g>
        <polygon class="cls-7" points="2146 442.05 2143.54 444.51 2155.67 456.63 2150.67 461.63 2177.67 488.63 2167.33 498.97 2142.67 474.3 2088.33 474.3 2088.33 467.47 2129.88 425.93 2146 442.05"/>
        <polygon class="cls-7" points="1983 533.51 2002.12 533.51 2014.33 521.3 2038 521.3 2062 497.3 2068 503.3 2037 534.3 2037 548.63 2018.33 548.63 2014.21 544.51 1996.33 562.38 1983.92 562.38 1988.83 557.47 1981.96 550.59 1948.88 583.68 1940.85 575.66 1983 533.51"/>
    </g>
    <polygon class="cls-6" points="1839.33 1464.97 1716.33 1464.97 1660.5 1409.13 1660.5 1317.8 1694.5 1317.8 1694.5 1335.24 1684 1335.24 1684 1345.8 1690 1345.8 1690 1386.3 1700.5 1386.3 1700.5 1410.63 1710.17 1410.63 1737.5 1437.97 1788.67 1437.97 1788.67 1448.97 1810.33 1448.97 1810.33 1439.3 1829.67 1419.97 1845.33 1419.97 1845.33 1405.97 1881 1405.97 1881 1400 1871.03 1400 1871.03 1381.94 1890.33 1362.63 1878.33 1350.63 1878.33 1291.97 1905 1291.97 1905 1399.3 1839.33 1464.97"/>
    <polygon class="cls-12" points="1052.97 1255.66 1002.03 1255.66 983.65 1273.44 965.2 1292.82 965.2 1391.99 1003.41 1430.2 1045.36 1430.2 1077.97 1397.59 1077.97 1280.66 1052.97 1255.66"/>
    <polygon class="cls-12" points="1809.8 1247.97 1758.86 1247.97 1740.49 1265.75 1722.03 1285.13 1722.03 1384.3 1760.24 1422.51 1802.2 1422.51 1834.8 1389.91 1834.8 1272.97 1809.8 1247.97"/>
</svg>