<?xml version="1.0" encoding="UTF-8"?>
<svg id="Layer_1" xmlns="http://www.w3.org/2000/svg" viewBox="0 0 3284.68 2239.95">
    <defs>
        <style>.cls-1{fill:#f6fafe;}.cls-2{fill:#f2f6f9;}.cls-3{fill:#f2f1f4;}.cls-4{fill:#f2f2f7;}.cls-5{fill:#eef0f4;}.cls-6{fill:#eef1f5;}.cls-7{fill:#eef1f2;}.cls-8{fill:#f0f8f8;}.cls-9{fill:#f0f6f7;}.cls-10{fill:#f0f2f5;}.cls-11{fill:#eaecee;}.cls-12{fill:#eaf0f2;}.cls-13{fill:#e6ebf2;}.cls-14{fill:#e6e8ec;}.cls-15{fill:#e9ebf0;}.cls-16{fill:#e9ebed;}.cls-17{fill:#f5fcff;}.cls-18{fill:#f5f7fc;}.cls-19{fill:#e7ecef;}.cls-20{fill:#e3e5e7;}.cls-21{fill:#e3e7ec;}.cls-22{fill:#e8ebf0;}.cls-23{fill:#e2e6ea;}.cls-24{fill:#e8eaee;}.cls-25{fill:#f0f1fa;}.cls-26{fill:#f0f3f9;}.cls-27{fill:#f1f3fe;}.cls-28{fill:#e5e4e7;}.cls-29{fill:#e2e3e7;}.cls-30{fill:#e2e2e4;}.cls-31{fill:#eceff5;}.cls-32{fill:#eceef4;}.cls-33{fill:#eff5f9;}.cls-34{fill:#eff3f6;}.cls-35{fill:#e4e7ea;}.cls-36{fill:#e4e6ec;}.cls-37{fill:#e4e6ea;}.cls-38{fill:#eff2f8;}.cls-39{fill:#eff2f9;}.cls-40{fill:#eff2f5;}.cls-41{fill:#eff1f2;}.cls-42{fill:#eff1f3;}.cls-43{fill:#e4e8ed;}.cls-44{fill:#919599;}.cls-45{fill:#7f8386;}.cls-46{fill:#9ca0a5;}.cls-47{fill:#9da0aa;}.cls-48{fill:#b8bcbf;}.cls-49{fill:#b3b7be;}.cls-50{fill:#b3b6bf;}.cls-51{fill:#c1c5c9;}.cls-52{fill:#73777d;}.cls-53{fill:#b7bbc1;}.cls-54{fill:#b7bfc7;}.cls-55{fill:#ced2d7;}.cls-56{fill:#ced1d6;}.cls-57{fill:#ced3d6;}.cls-58{fill:#cdced4;}.cls-59{fill:#dadfe2;}.cls-60{fill:#d8dbdf;}.cls-61{fill:#d8dbde;}.cls-62{fill:#bfc4ca;}.cls-63{fill:#b1b6c0;}.cls-64{fill:#bbbfc5;}.cls-65{fill:#c4c9d2;}.cls-66{fill:#c4c8ce;}.cls-67{fill:#ccd1da;}.cls-68{fill:#ccd4dc;}.cls-69{fill:#caced3;}.cls-70{fill:#cacbd1;}.cls-71{fill:#cfd5da;}.cls-72{fill:#d0d4d8;}.cls-73{fill:#c7cbd2;}.cls-74{fill:#c7cbd3;}.cls-75{fill:#c7cbd1;}.cls-76{fill:#dee0e4;}.cls-77{fill:#dee0e3;}.cls-78{fill:#dee0ea;}.cls-79{fill:#dee1e7;}.cls-80{fill:#dee1e3;}.cls-81{fill:#dee1eb;}.cls-82{fill:#dde2e7;}.cls-83{fill:#dddfe5;}.cls-84{fill:#dddee5;}.cls-85{fill:#dde0e7;}.cls-86{fill:#dde0e4;}.cls-87{fill:#dde1e5;}.cls-88{fill:#d2d6db;}.cls-89{fill:#d1d7db;}.cls-90{fill:#d1d4dc;}.cls-91{fill:#cfd2d8;}.cls-92{fill:#d6d9de;}.cls-93{fill:#d6d8e4;}.cls-94{fill:#d6dbe3;}.cls-95{fill:#d6dbe1;}.cls-96{fill:#dce0e2;}.cls-97{fill:#dce0e4;}.cls-98{fill:#dce1eb;}.cls-99{fill:#dfe1e5;}.cls-100{fill:#dfe1e4;}.cls-101{fill:#dfe1e3;}.cls-102{fill:#dcdee4;}.cls-103{fill:#dcdde4;}.cls-104{fill:#dcdde0;}.cls-105{fill:#dbdfe3;}.cls-106{fill:#dbdfe5;}.cls-107{fill:#dbdee4;}.cls-108{fill:#dbdee3;}.cls-109{fill:#dbdfe2;}.cls-110{fill:#dbdfe4;}.cls-111{fill:#dbdde3;}.cls-112{fill:#d4d8db;}.cls-113{fill:#dadde1;}.cls-114{fill:#dadde2;}.cls-115{fill:#dadce3;}.cls-116{fill:#d9dee3;}.cls-117{fill:#d9dde1;}.cls-118{fill:#dfe3e7;}.cls-119{fill:#dfe4e9;}.cls-120{fill:#d7dbde;}.cls-121{fill:#d7dcdf;}.cls-122{fill:#d7dce0;}.cls-123{fill:#d3d8dd;}.cls-124{fill:#d3d5d7;}.cls-125{fill:#c5cad7;}.cls-126{fill:#c6cad1;}.cls-127{fill:#e1e1e4;}.cls-128{fill:#e1e4eb;}.cls-129{fill:#e1e4ec;}.cls-130{fill:#e1e2e5;}.cls-131{fill:#e1e3e5;}.cls-132{fill:#e1e5ea;}.cls-133{fill:#e0e1e5;}.cls-134{fill:#e0e4eb;}.cls-135{fill:#e0e2e8;}.cls-136{fill:#e0e2e4;}.cls-137{fill:#e0e2e6;}.cls-138{fill:#d5d7de;}.cls-139{fill:#d5d7db;}.cls-140{fill:#d5d7dd;}.cls-141{fill:#d5dadd;}.cls-142{fill:#dee2e8;}.cls-143{fill:#dfe0e2;}.cls-144{fill:#dfe0e6;}.cls-145{fill:#dfe2e8;}.cls-146{fill:#dfe2e6;}.cls-147{fill:#dfe2e4;}.cls-148{fill:#0f121d;}.cls-149{fill:#6f767b;}.cls-150{fill:#878c92;}.cls-151{fill:#6d6d6f;}.cls-152{fill:#888c94;}.cls-153{fill:#767d86;}</style>
    </defs>
    <path class="cls-131" d="M2630.9,584.56c13.48,18.06,8.77,41.56,18.18,60.84,9.63,12.25,10.03,26.34,8.29,40.84-2.31,11.98-10.68,21.11-15.41,31.97-4.03,9.27-9.87,17.04-2.11,29.33,8.31,13.15,3.44,29.22-11.52,35.59-16.26,6.92-25.67-6.37-33.59-18.36-4.24-6.43-5.03-14.16-6.29-21.68-6.9-41.08-44.44-57.56-80.98-35.62-1.84,1.1-3.12,3.58-4.97,4.09-47.1,12.94-58.21,46.33-52.28,90.17,.99,7.34-1.72,15.05-7.34,20.93-25.96,9.89-32.53-7.04-35.98-26.77-2.78-15.92,.26-32.36-2.44-48.31-3.21-18.98-15.65-25.03-29.28-12.17-17.24,16.26-35.48,18.37-56.51,13.78-18.25-3.98-29.64,10.56-44.3,16.27-11.1,4.33-18.01,15.56-30.02,18.55-9.63,.1-14.77-6.55-19.94-13.18-2.29-4.55-3-9.39-2.47-14.42,2.14-9.35,5-18.29,14.73-22.7,17.22,3.68,23.75-6.09,26.08-21.01,1.5-10.25,3.62-20.31,8.34-29.61,9.05-14.45,8.32-29.44,2.38-44.73-.97-17.92,8.73-31.7,17.65-45.79,4.29-5.92,9.19-11.24,15.31-15.31,9.08-4.96,7.1-13.7,7.25-21.7,.43-28.91,27.5-46.9,29.24-76.55,2.19-37.51,4.68-37.37-33.94-33.79-3.18,.3-6.36,.57-9.58,.62-15.7,.33-26.14-8.59-35.19-19.94-5.11-5.17-10.17-10.43-17.19-13.18-4.01-2.04-7.51-4.66-9.82-8.61-1.26-5.36-1.97-10.55,4.39-13.42-3.64,.08-5.74,3.04-8.56,4.62-6.95,3.9-14.88,5.24-21.49,1.53-18.4-10.34-3.19,8.59-8.47,9.34-7.05,8.88-16.61,14.28-26.44,19.35-11.98,3.06-22.56,15.47-36.54,5.68-6.78-8.36-6.39-18.5-7.03-28.38-2.45-16.42,2.69-28.76,18.9-35.13,13.17-.43,25.92-3.89,38.89-6.07,34.2,2.92,67.97,7.79,102.32-3.09,29.91-9.47,35.2-15.49,26.78-45.24-3.07-10.84-8.73-19.83-17.52-26.45-33.81-25.45-63.21-54.95-87.6-89.71-14.49-20.66-36.14-25.72-60.28-22.01-42.65,16.13-87.32,24.66-131.29,35.93-17.87,1.58-35.75,3.61-53.39-1.7-23.65-14.52-14.4-32.42-5.22-50.35,4.2-6.93,7.12-14.51,10.46-21.89,14.54-22.33,28.18-45.36,47.45-64.25C2071.66,31.19,2131.6,14.81,2192.25,0c4.78-.05,9.5,.53,14.14,1.6,12.99,4.86,26.1,5.31,39.35,.92,5.99-1.18,11.98-1.24,17.98-.18,5.86,1.06,11.69,2.35,17.61,3.23,6.09,.58,12.2,.83,18.27,1.76,3.2,.36,6.29,1.09,9.37,1.95,38.31,8.63,77.8,12.24,111.67,36.14,25.65,18.1,49.32,37.24,65.48,64.53,15.37,37.45,42.49,68.46,58.13,105.83,4.1,9.8,9.58,18.96,10.27,29.88,.27,18.74,1.21,37.49-.95,56.16-4.21,31.26-16.87,53.48-47.74,69.97-45.91,24.52-55.33,88.45-27.73,144.84,6.35,13.51,20.61,21,26.71,34.71,9.68,19.28,26.86,21.74,45.87,21.13,25.42-.82,51.75-4.3,68.21,23.19,1.26,2.11,5.19-10.1,12.01-11.1Z" />
    <path class="cls-78" d="M2622.09,469.36c-11.39,16.55-20.02,35.59-37.38,46.98-8.97,5.89-19.38,27.56-29.61-2.27-3.42-9.98-29.26-.95-37.97-17.02,2.24-12.5,8.59-20.73,22.23-21.42,3.49,.49,6.98,.97,10.46,1.46,12.73,4.26,25.48,3.26,38.23,.09,25.06-6.94,6.1-35.25,22.53-46.39,6.74-5.09,.18-13.81,5.29-19.34,2.1-9.38-15.03-8.95-10.08-19.78,3.12-4.11,6.28-8.15,12.21-7.95,22.91,27.51,11.02,56.69,4.11,85.62Z" />
    <path class="cls-142" d="M2604.85,353.02c2.89-56.78,19.5-115.16-23.97-169.94,29.01,4.11,34.12,24.52,42.31,41.55,4.2,8.73,2.6,23.9,19.86,15.3,6.77,.66,8.66,4.64,7.7,10.89-6.15,39.99-12.07,80.04-33.33,115.67-7.8-1.13-8.88-8.51-12.57-13.47Z" />
    <path class="cls-134" d="M2501.31,553.83c39.41,21.58,72.66,16,115.08-19.3,3.11-2.41,5.98-2.15,8.62,.76-8.88,17.72-5.73,34,5.89,49.26-1,8.6-3.59,16.49-11.04,24.69-17.71-31.71-46.4-30.73-76.11-27.46-21.73,2.39-39.85-9.92-42.44-27.96Z" />
    <path class="cls-125" d="M2649.99,197.91c20.77-24.89,17.53-58.68,31.87-85.95,4.22,.76,6.78,3.27,7.8,7.4-1.84,28.1-9.6,54.92-20.24,80.63-6.22,15.04-15.24,20.05-19.43-2.08Z" />
    <path class="cls-68" d="M2700.55,52.25c2.75-14.77-18.27-33.56,7.51-44.45,4.33,.22,8.66,.45,12.99,.67,11.01-2.47,15.09,2.11,13.12,12.87-2.32,6.45-4.63,12.91-6.95,19.36-2.93,11.47-10.39,18.41-21.62,21.57-4.76-1.79-8.14-4.27-5.05-10.02Z" />
    <path class="cls-65" d="M2625.01,535.29c-2.87-.25-5.75-.51-8.62-.76,2.39-8.58,4.77-17.15,7.16-25.73,6.61-4.79,13.23-14.55,19.77,.07,2.25,12.04-1.79,20.78-13.42,25.52-1.6,.5-3.23,.8-4.89,.91Z" />
    <path class="cls-27" d="M2604.85,353.02c4.19,4.49,8.38,8.98,12.57,13.47,.19,5.75,.38,11.5,.57,17.24-2.51,5.05-6.81,7.34-12.21,7.95-2.12-12.85-7.44-25.61-.92-38.67Z" />
    <path class="cls-98" d="M2689.66,119.36c-2.6-2.47-5.2-4.93-7.8-7.4-7.96-13.27,9.27-19.9,8.26-31.34,12.03,.11,7.53,7.29,5.69,13.32-2.05,8.47-4.1,16.95-6.14,25.42Z" />
    <path class="cls-63" d="M2695.8,93.94c-1.9-4.44-3.79-8.88-5.69-13.32,2.99-9.63,2.9-20.41,10.44-28.37,2,2.52,4,5.04,6.01,7.56,.16,1.88,.42,3.74,.8,5.59-3.85,9.51-7.71,19.03-11.56,28.54Z" />
    <path class="cls-136" d="M2239.98,781.85c12.4-24.1,45.48-43.66,57.72-41.5,37.59,6.64,63.49-12.55,94.15-22.62,14.57-4.79,23.68,6.93,23.6,23.03-.09,17.33,.55,34.68-.04,51.99-.62,18.51,6.04,29.29,26.12,28.1,10.16-10.51,23.49-9.31,36.31-9.63,25.76-.63,51.27-.52,77.03-5.58,25.44-4.99,48.59,7.91,68.52,22.45,16.36,11.94,12.97,26.12-6.72,37.55-15.18,8.81-39.85,12.67-31.7,36.89,6.98,20.77,30.06,8.73,45.57,12.86,26.57,7.07,40.35-15.42,60.14-23.98,3.14-1.43,6.37-1.81,9.77-1.24,3.18,1.51,5.69,3.74,7.6,6.68,10.28,42.9,22.64,84.98,38.06,126.51,10.91,29.39,.36,39.89-28.8,38.71-25.6-11.63-49.04-27.4-74.5-39.51-21.28-10.12-41-12.12-61.22,1.97-17.11,11.91-36.78,18.18-56.72,23.52-8.6,2.23-17.7,1.77-26.13,4.96-2.72,1.11-5.5,2.01-8.27,2.92-11.33,3.17-21.11,11.29-33.66,10.62-23.43-21.29-39.17-48.66-58.06-73.56-2.71-3.77-4.78-7.89-6.86-11.99-31.24-13.59-64.15-15.17-97.33-13.07-21.54,1.36-43.25,2.09-64.33-1.1-20.15-3.05-39.45-11.03-51.41-29.84-9.15-23.13-38.56-35.51-34.65-65.9,.85-6.63-4.3-7.38-11.1-6.29-19.52,3.15-33.95-10.88-48.44-19.58-16.04-9.63-16.07-24.8,4.38-33.66,17.16,14.29,23.73-6.92,35.5-10.7,12.94-3.74,27.39,.68,39.47-7.55,17.74-9.04,34.12-21.86,55.7-20.1-1.19,21.51,13.83,5.06,20.32,8.63Z" />
    <path class="cls-29" d="M2694.36,893.04c-12.6,10.37-15.1,32.29-37.19,31.88-19.4-.35-38.81,.25-58.2-.21-11.18-.27-26.11,3.49-26.73-14.64-.48-14.22-6.5-30.97,11.76-40.03,4.83-2.4,9.66-4.77,14.47-7.19,10-5.04,27.91-3.36,27.69-17.34-.28-17-19.87-16.16-31.56-22.73-30.44-17.11-61.09,1.89-91.67-1.51-20.23-2.24-40.91-.43-61.39-.43,0-24.85-.05-49.71,.06-74.56,.04-8.58-1.68-21.56,6.68-23.48,42.27-9.7,77.82-46.75,126.24-31.33,19.22,6.12,21.85,21.7,23.01,38.39,.81,11.64-2.87,24.27,5.95,34.23,5.51,6.23,10.25,16.02,20,14.23,9.91-1.82,11.52-12.01,12.38-20.49,1.16-11.42-6.37-14.59-16.28-15.17-3.89-.22-7.68-2.02-21.72-5.98,34.98-5.19,32.27-35.53,52.22-45.96,7.26,47.23,25.91,91.28,38.35,137.06,.51,21.88,10.87,42.87,5.94,65.24Z" />
    <path class="cls-84" d="M2130.52,495.51c-4.61-32.58-5.05-64.92,5.53-96.63,7.65,9.55-1.49,22.47,6.43,31.96,11.07-4.24,22.15-8.48,33.22-12.71-11.13,15.08-22.26,30.15-33.38,45.23-10.07,8.47,6.76,26.81-11.8,32.16Z" />
    <path class="cls-84" d="M2240.01,403.55c-13.02-6.27-26.03-4.88-39.03,.06,2.43-4.95-2.73-21.35,4.06-14.05,11.19,12.03,38.46-22.92,34.97,13.99Z" />
    <path class="cls-97" d="M2220.4,775.04c2.02-2.12,4.04-4.23,6.07-6.35,8.31,.48,13.07,4.6,13.52,13.16-5.46,4.36-10.92,8.73-16.6,13.27-5.58-6.07-1.73-13.48-2.99-20.07Z" />
    <path class="cls-115" d="M2546.53,239.54c12.48,22.76,8.44,45.28-1,67.72,.33-22.57,.67-45.15,1-67.72Z" />
    <path class="cls-102" d="M2278.86,684.38c6.18-15.48-7.04-30.85-.25-46.33,17.28,15.35,9.24,30.84,.25,46.33Z" />
    <path class="cls-97" d="M2237.85,735.41c10.78-7.67,27.08-6.19,33.91-20.42-5.04,17.2-8.68,36.73-33.91,20.42Z" />
    <path class="cls-84" d="M2154.86,372.12c9.68-7.07,19.12-15.4,31.91-6.06-9.16,9.82-20.11,10.15-31.91,6.06Z" />
    <path class="cls-1" d="M2208.07,9.44c12.64-.07,25.29-.14,37.93-.21-12.6,8.53-25.24,8.45-37.93,.21Z" />
    <path class="cls-129" d="M2310.14,577.69c2.92-5.57,5.83-11.13,8.75-16.7,6.4,6.07,7.13,12.74,.98,19.12-3.82,3.96-7.31,1.75-9.73-2.42Z" />
    <path class="cls-39" d="M2142.48,430.84c-9.92-9.09-4.35-21.29-6.43-31.96,1.92-.91,3.83-1.82,5.75-2.73,.23,11.56,.45,23.13,.68,34.69Z" />
    <path class="cls-138" d="M2543.88,430.48c4.85-7.04,9.54-14.2,14.6-21.09,7.72-10.53,15.55-3.62,21.96,1.17,8.52,6.36,1.87,10.16-3.79,13.66-5.41,3.34-12.38,6.88-6.36,14.53,8.74,11.1,6.8,19.3-5.14,25.81-15.89,8.66-19.26-6.79-26.88-14.05-5.94-8.87-2.06-14.98,5.62-20.02Z" />
    <path class="cls-13" d="M2539.35,475.64l-22.23,21.42c-4.01-4.72-8.01-9.45-12.02-14.17-3.06-22.39-7.32-44.93,8.34-64.91,1.51-.36,3.03-.7,4.55-1.03,8.53-3.78,10.32,2.51,12.47,8.29,.37,2.98,.25,5.97-.21,8.93-1.29,11.99-11.18,24.65,2.79,35.48,2.1,2,4.21,3.99,6.31,5.99Z" />
    <path class="cls-67" d="M2577.71,401.47c-6.98-13.17-19.43-20.01-10.05-33.31,1.52-2.16,9.5-2.95,11.36-1.15,9.01,8.76,7.73,18.98-1.31,34.46Z" />
    <path class="cls-90" d="M2538.04,422.34c-3.36,3.41-6.72,6.82-10.09,10.23-1.72-6.22-3.44-12.45-9.96-15.61,3.83-7.75,9.41-15.7,18.43-11.99,5.89,2.43,1.88,11.32,1.62,17.38Z" />
    <path class="cls-78" d="M2528.19,431.91c-1.6,11.11-5.84,22.54,4.02,32.22-.25,1.92,.03,3.76,.84,5.52-30.22-8.9-14.35-23.73-4.85-37.74Z" />
    <path class="cls-130" d="M2760.03,853.79c52.15-4.68,100.44,11.86,148.97,27.06,8.97-2.32,17.29,1.42,25.88,2.77,5.91,1.53,11.94,2.42,17.89,3.79,14.34,3.62,28.94,1.65,43.43,2.09,11.96,.07,23.9-.13,35.83,.41,22.07,2.37,42.96,9.97,64.55,14.4,56.09,10.71,58.01,10.92,55.95,70.25-1.32,37.94,16.33,62.28,44.75,82.15,6.33,4.43,12.05,8.75,14.38,16.44,.6,3.42,.18,6.69-1.19,9.87-14.2,18-33.78,12.76-52.28,12.19-3.25-.49-6.4-1.45-9.44-2.67-20.97-10.5-37.32-28.12-58.54-38.33-24.89-12.64-53.69-8.64-79.2-18.62-74.3-8.75-147.45-23.55-220.23-40.35-52.17-19.65-74.24-63.04-88.59-112.51-.08-3.06,.37-6.06,1.27-8.98,6.71-12.35,16.33-19.74,30.64-13.78,10.84,4.51,17.86-1.92,25.95-6.18Z" />
    <path class="cls-130" d="M2694.36,893.04c-8.84-21.12-18.76-42.15-5.94-65.24,7.85,31.51,37.7,13.49,54.74,24.32-9.75,12.31-28.49,.84-37.8,14.28-5.66,7.59-2.11,18.73-9.81,25.53l-1.19,1.11Z" />
    <path class="cls-29" d="M2695.7,861.52c13.32-15.78,32.04-4.23,47.46-9.4l16.87,1.68c-6.16,10.82-10.64,26.38-27.6,13.53-11.69-8.85-16.85,3.8-25.17,5.79-10.6,2.86-6.96-8.47-11.56-11.6Z" />
    <path class="cls-30" d="M1895.31,300.48c6.93-10.62,13.85-21.25,20.78-31.87,19.64-2.16,24.19,11.1,23.81,25.92-.26,10.32-.45,21.4-5.66,31.16-10.3,17.38,15.94,29.42,6.8,46.63-6.42,27.35-3.58,55.08-3.4,82.74,1.27,18.66-2.78,37.53,2.57,55.97-1.14,11.16-1.08,22,8.04,30.44,6.09,12.44-8.14,27.79,5.6,39.14,2.62,8.58,5.24,17.15,7.86,25.73,19.27,21.21,16.92,51.79,33.59,74.91,15.53,21.52,26.61,46.29,44.45,66.47,3.11,3.07,6.03,6.34,8.94,9.59,3.91,4.14,7.73,8.38,11.27,12.86,2.63,3.5,4.1,7.42,4.17,11.83,8.85,10.59,17.71,21.19,26.56,31.78-14.71,12.69-13.34,29.11,4.55,29.08,15.86-.03,26.71,27.04,46.92,5.83,7-7.35,13.5,8.79,13,18.97-.76,15.69-12.05,35.33,19.79,35.24,7.61-.02-1.9,21.7,7.66,30.76,2.55,4.36,2.15,8.37-1.42,12-8.66,1.52-13.44-3.78-17.71-10.01-3.73-8.84-9.69-15.77-18-20.62-3.72-2.56-6.45-6.56-11.1-7.4-6.26,27,1.3,54.44-4.36,81.18-6.8,22.83-32.13,23.6-45.77,38.5-34.92,38.13-74.65,71.15-112.96,105.71-25.06,22.61-44.85,49.33-55.51,81.9-1.96,7.37-6.92,14.47-1.77,22.36,2.23,1.17,4.51,1.85,7.05,1.69,9.65-2.17,18.45-7.39,28.62-7.19,9.18,1.04,17.97,3.14,25.24,9.35,10.47,15.23,3.23,28.1-5.15,41.12-6.08,9.44-16.57,18.08-7.64,31.2,7.71,7.82,19.46,4.65,27.92,10.35,2.76,1.97,4.22,4.62,4.46,7.98-12.74,16.75-17.47,35.18-18.21,56.58-1.68,48.67-15.92,91.93-63.98,115.68-1.7,.84-2.59,1.64-2.63,1.82-14.07,53.97-65.18,40.36-100.67,55.26-9.83,.96-18.94-2.14-28.09-4.98-9.64-4.59-19.92-4.35-30.26-3.75-11.66-2.29-17.39-11.22-22.94-20.38-8.01-14.38-17.09-28-28.81-39.74-24.15-24.44-24.67-59.27-38.97-88.07-1.62-11.41-1.19-22.89-1.19-34.34,.58-22.57,9.26-43.3,15.76-64.39,4.38-14.23,3.78-26.78-3.14-39.45-1.34-21.23-12.24-39.65-17.86-59.71-4.19-29.96-2.28-58.99,12.8-86.06,6.22-8.53,13.97-15.14,24.01-18.79,4.65-1.44,9.43-1.86,14.26-1.51,10.19,2.07,20.83,.86,30.99,3.72,22.86,16.92,43.21,13.97,63.17-5.97,12.13-12.12,27.37-20.94,38.92-33.96,47.09-53.08,49-68.72,16.14-135.62-.93-2.81-1.31-5.73-1.3-8.67,1.4-11.65,7.75-23.62-2.17-34.54-5.26-1.89-11.05-2.41-15.4-6.42-2.87-3.35-4.6-7.24-6.12-11.31-7.36-19.78-4.33-47.19-25.44-57.13-27.98-13.17-59.45-21.03-91.07-13.96-23.57,5.27-42.26-1.93-60.25-15.37-16-15.47-33.88-29.6-38.33-53.36-1.69-66.04,4.33-70.99,70.31-60.57,28.96,4.57,57.2,12.21,85.61,19.03,24.44,5.86,36.98-3.34,41.69-27.04,3.18-15.98,5.76-31.87,5.75-48.25,0-15.59,2.31-30.6,19.65-37.35,21.2-21,20.49-48.05,21.36-74.97,.44-13.8,3.08-27.54,4.73-41.31,7.05-8.67,.85-19.7,5.13-28.88,3.36-17.33-.17-34.99,2.64-52.34,4.63-12.27-.6-25.73,4.6-37.91-1.06-7.72,4.11-12.27,8.7-17.12,10.49-2.92,6.43-14.09,11.42-20.14Z" />
    <path class="cls-110" d="M2083.94,666.38c-4.47-2.66-8.94-5.32-13.41-7.99-6.94-2.36-10.42-7.57-11.94-14.42,1.21-1.15,1.65-2.54,1.33-4.17,5.16-8.07,13.98-3.96,20.88-6.27,5.39-4.99,10.78-9.98,16.17-14.98,18.31-4.55,38.68,7.66,55.47-8.68,6.59,39.85-27.68,67.09-68.49,56.51Z" />
    <path class="cls-95" d="M2071.04,704.99l-12.64-7.57c-2.17-10.25,5.45-8.97,11.41-9.72,11.38-1.42,23.29,3.02,34.23-3.15,2.2,.8,4.18,.42,5.92-1.15,21-1.73,42.84,5.22,62.91-6.11,4.83-2.52,9.63-3.58,14.33,.28-4.03,13.15-17.18,16.43-26.19,24.19-29.65,10.49-59.89,4.73-89.98,3.23Z" />
    <path class="cls-106" d="M2265.97,417.37c.23,11.42,4.57,20.58,14.63,26.59-3.64,4.64-8.7,5.19-14.06,4.85-4.01-5.49-13.66-10.21-15.61-7.36-33.96,49.69-32.7-24.44-54.59-15.22-.02-7.59,7.61-5.65,11.09-8.89,19.51,0,39.02,.02,58.54,.03Z" />
    <path class="cls-86" d="M1934.81,451.2c-3.55-5.13-11.05-13.76-10.06-14.88,16.58-18.76,2.31-45.06,16.29-63.99v49.05c15.47-26.19,39-13.42,58.41-18.38,3.3,.53,6.6,1.06,9.89,1.6-2.9,22.75-24.53,21.97-38.54,30.79-9.69,4.35-21.65,.49-30.36,8.46l-1.29,1.19,.78,1.57c-.12,3.31-1.75,4.93-5.13,4.6Z" />
    <path class="cls-75" d="M2032.28,436.29c14,8.95,12.24,17.31-.95,25.24-24.55,16.12-33.82-12.23-51.02-17.52-3.75,1.17-6.52,.01-8.33-3.48-.09-3.64,1.2-6.69,3.88-9.16,19.7-8.57,39.43-17.52,56.41,4.92Z" />
    <path class="cls-126" d="M2072.28,742.21c-.22-3.56-.45-7.13-.67-10.69,18.89-11.82,40.69,.61,60.07-7.2,8.63,.91,21.89-7.03,21.45,11.22-1.76,2.24-3.52,4.47-5.28,6.71-5.74,6.12-11.99,4.94-18.41,1.27-15.2,.08-30.4,.16-45.6,.23-4.25,2.5-8.27,3.23-11.55-1.54Z" />
    <path class="cls-150" d="M2031.55,477.25c-1.82,6.62-6.47,10.47-12.58,12.89-13.55-4.47-30.33,5.07-45.44-12.89h58.02Z" />
    <path class="cls-66" d="M1973.58,437.62c2.25,2.13,4.49,4.26,6.74,6.39-.71,1.43-1.11,2.94-1.19,4.54-1,7.99-5.69,12.52-13.37,14.25-6.68,1.33-11.91-1.02-15.23-6.79-3.94-6.86,5.91-6.28,6.28-10.95,3.39-7.44,8.09-11.92,16.77-7.44Z" />
    <path class="cls-62" d="M2130.52,495.51c10.35-8.37-.43-24.49,11.8-32.16,.6,12.59,2.78,25.35,1.4,37.72-1.9,17.05-8.95,3.25-13.91,1.19,.24-2.25,.47-4.5,.71-6.75Z" />
    <path class="cls-47" d="M2265.93,461.68c4-.57,8.01-1.14,12.01-1.7-.13,2.99,.96,7.09-.59,8.8-7.6,8.39-16.13,9.71-24.75,1.04,4.44-2.71,8.89-5.42,13.33-8.13Z" />
    <path class="cls-93" d="M2253.18,469.52c4.34,13.77-5.74,13.48-14.12,13.79-3.28,.12-10.44,2.51-9.21-3.95,.68-3.56,7.5-5.94,11.54-8.85,3.93-.33,7.85-.66,11.78-.98Z" />
    <path class="cls-17" d="M2187.2,677.57c-4.78-.09-9.55-.18-14.33-.28,3.41-9.64,10-14.48,19.47-9.36,2.5,1.35-.82,7.6-5.14,9.63Z" />
    <path class="cls-86" d="M1934.24,325.7c-3.37-6.44-8.58-13.59-4.46-20.41,11.27-18.69-1.95-27.17-13.69-36.68,4.51-5.97,9.02-11.95,13.53-17.92,7.58,.3,11.25-13.17,18.99-7.34,7.79,5.87-.02,13.42-2,20.13-1.76,5.98-3.45,11.97-5.17,17.96,3.18,15.17,6.24,30.34-1.54,45.13-1.96,.19-3.85-.1-5.66-.89Z" />
    <path class="cls-101" d="M3269.02,1023.21c-9.03,29.36-32.92,41.8-58.96,51.81-27.83-6.89-40.31-32.85-60.61-49.12-10.79-8.65-4.92-22.33-5.63-33.76-.81-12.95,.32-26-.3-38.97-1.04-21.57,2.44-48.23-34.68-33.48-2.65,1.05-8.39-5.66-12.7-8.77,.67-1.87,1.64-3.57,2.92-5.1,1.08-1.88,2.34-3.76,4.24-4.54q37.47-15.49,24.55-53.84c-1.35-4.01-2.53-8.04-3-12.29-.2-18.19,13.38-24.36,26.73-30.77,3.08-1.26,6.29-1.88,9.6-1.97,9.71,3.7,19.29-.18,28.95-.55,55.68,14.22,88.41,49.42,90.19,96.95,8.05,37.86,4.28,75.11-5.82,112.03-6.29,2.14-6.74,6.87-5.48,12.36Z" />
    <path class="cls-32" d="M2810.64,865.36l-38.18,2.66c-.15-1.7-.29-3.41-.44-5.11h37.46l1.16,2.45Z" />
    <path class="cls-72" d="M2968.08,892.22c2.18,.14,4.35,.28,6.53,.42,5.26,2.61,10.6,3.2,16.05,.57,2.57,.6,4.45,2.07,5.66,4.41-16.16,.79-32.8,6.45-47.75-4.81,6.35-5.25,12.88-4.75,19.51-.59Z" />
    <path class="cls-145" d="M953.45,210.01c-2.45-8.94-3.67-17.92,7.99-20.92,13.44-3.46,13.61-15.26,17.28-25.01,18.8,.65,11.2,17.61,15.87,26.78,2.1,4.12-6.25,12.51,5.27,13.99,7.55,.97,12.04-1.65,14.09-9.36,1.05-3.96,4.35-7.27,5.97-11.15,3.54-8.47,8.15-16.4,18.68-13.22,9.8,2.96,5.38,12.6,6.06,19.42,.64,6.36-.16,12.87-.32,19.31-2.71,8.59-5.41,17.17-8.12,25.76-2.23,2.14-4.87,2.93-7.9,2.4-11.37-3.1-22.62-10.94-34.38-.97-6.85,21.27,7.73,26.08,23.18,29.46,16.79,3.67,22.62,15.68,6.4,21.85-47.83,18.21-50,62.72-64.61,100.55-3.05,7.9-7.31,15.33-11.02,22.98-5.27,2.93-8.08,9.88-15.4,9.48-10.94-3.09-20.82-9.09-32.67-10.16-10.61-.96-17.69-6.8-13.74-19.29,21.69-14.13,48.82-23.68,48.01-56.82,6.29-33.02,29.68-62.86,18.46-99.14-1.06-8.7,7.04-17.08,.89-25.96Z" />
    <path class="cls-86" d="M1875.19,337.74c.25,13.72,.5,27.43,.75,41.15-8.77,16.38,1.92,35.12-6.26,51.57-1,9.14,2.39,19.43-6.86,26.43,.12-40.13-2.4-80.53,12.37-119.14Z" />
    <path class="cls-86" d="M1895.31,300.48c-3.2,7.05,16.06,26.84-11.42,20.14,3.81-6.71,7.61-13.42,11.42-20.14Z" />
    <path class="cls-80" d="M2135.71,1254.43c15.15-10.36,30.3-20.71,45.45-31.07,9.8,11.07,5.23,19.19-5.46,25.84-7.04,4.38-14.04,8.66-16.2,17.12,6.19-12.97,16.75-21.21,31.21-18.77,10.66,1.8,14.13,11.76,12.7,22.53-36.3,52.27-90.59,81.23-144.71,111.07,37.49-15.01,77.47-8.22,115.62-15.69,24.56-4.81,44.96-12.87,58.62-35.23,8.64-14.14,20.27-25.65,39.56-21.88,45.81-21.76,99.26-14.68,144.58-38.28,29.77-10.66,59.45-21.6,89.35-31.91,42.19-14.55,84.25-30.04,130.13-26.83,2.61,31.23-6.55,44.02-34.1,41.78-19.26-1.56-38.13,5.17-57.29,1.49,12.88,1.64,25.42,5,38.78,3.97,9.32-.72,17.14,2.37,16.33,14.28-25.19,30.02-60.73,31.06-94.59,29.04-28.46-1.7-55.85-1.84-83.18,7.19,20.7-2.48,41.45-6.17,62.15-1.67,9.62,2.09,19.83,5.34,22.13,16.26,2.34,11.08-5.94,18.19-14.18,23.35-26.35,16.47-55.71,26.92-86.19,20.78-30.8-6.2-61.94-.01-85.4-7.1,.96,.01,8.48,.6,11.32,9.79-6.32,8.35-14.08,6.96-21.99,4.43,9.8,4.28,18.19,1.72,25.52-6.38,14.3-7.34,29.92-6.41,44.53-4.15,60.69,9.4,120.72,22.42,180.66,35.72,14.84,3.29,26.3,12.26,24.99,29.02-1.06,13.56-11.92,22.93-24.35,21.37-43.14-5.42-82.63,22.41-126.89,11.16-17.14-4.36-35.98-5.42-53.92-8.74-20.09-6.81-40.01-14.13-58.64-24.44-11.41-8.62-23.75-8.08-36.47-3.5-4.22,1.15-8.52,1.83-12.88,2.23-6.63,.96-13.54-.55-19.56,2.4,8.87,8.94,21.8,9.1,31.41,16.07,16.4,11.91,25.79,25.9,17.07,46.78-34.65,50.54-76.47,59.1-120.73,25.98-8.42-6.3-15.11-8.73-19.56,3.61-4,11.11-14.48,11.6-24.49,14.47,13.26,33.02,25.12,66.19,35.81,99.82-3.37,18.09-16.91,13.69-28,11.64-18.01-3.33-35.03-10.57-52.66-15.45-13.26-6.44-20.85-18.46-28.98-29.93-7.61-10.72-16.12-20.48-28.48-25.86-7.16-3.12-14.75-4.88-21.36,1-6.94,6.18-4.58,13.79-1.85,21.02,3.08,8.15,8.32,15.16,12.5,22.73,18.55,33.58,14.65,44.12-20.82,58.79-10.08,4.17-19.84,8.5-34.18,2.81,1.98,29.45-.69,57.04-6.66,84.26-4.63,21.1-15.61,30.45-37.34,20.7-4.38-2.76-7.5-6.55-9.6-11.25-2.63-6.45-2.88-13.26-3.13-20.06,.12-11.41-.6-22.89,1.7-34.19,3.28-12.65,8.57-25.34-.45-37.91-1.58-2.65-2.72-5.44-3.67-8.36-2.57-11.53,.32-21.59,8.13-30.32,2.38-1.96,6.56-2.19,7.88-4.01,4.31-5.95-2.88-3.83-4.56-4.71-6.33-3.31-13.52-4.31-20.38-6.18-20.95-16.78-36.53,7-55.21,7.4-16.7-8.74-29.26-25.4-50.18-26.18-6.31-3.6-9.77-9.16-11.26-16.13-1.91-17.63,4.39-31.3,19.62-40.65,17.16-12.08,33.62-22.06,57.12-14.02,14.49,4.96,27.8-2.51,27.87-21.49,.04-11.88,5.02-24.98,15.29-25.68,27.98-1.92,29.91-23.46,42.82-40.53,20.25-26.79,21.34-52.75,19.48-81.09-1.48-22.44,6.09-36.57,26.58-44.46,43.62-11.18,84.38-28.27,119.11-57.78,3.17-12.25,9.15-20.36,23.59-16.04Z" />
    <path class="cls-118" d="M1705.96,1100.25c7.13-25.59-1.2-33.09-25.57-21.85-9.96-1.06-21.36-.42-18.91-16.07,24.42-1.15,44.7-11.85,60.31-29.75,8.64-9.91,6.16-22.09-3.53-35.16-18.07,14.43-36.87,27.04-61.14,26.52-2.5-12.69,7.48-15.81,13.47-19.88,7.99-5.43,19.41-8.4,15.39-20.65-3.3-10.05-13.53-12.56-23.7-13.79-11.77-1.43-23.27-4.25-32.55-12.5l6.1-11.57c14.15-10.6,31.74,.92,46.28-7.17,20.19-17.08,18.12-26.42-6.1-38.47-11.32-5.63-35.69,.03-31.98-17.13,3.34-15.49,24.51-1.78,37.71-3.21,12.25-1.33,25.31,2.46,37.71,5.29,18.08,4.12,14.26,14.73,6.45,25.86-1.03,10.61-6.37,21.3,.63,31.75,30.58,23.81,49.01-2.36,71.74-18.08,12.75,18.16,12.27,37.03-7.05,46.26-49.02,23.42-39.5,70.66-46.06,109.9-2.01,12.01-8.42,17.58-12.29,26.3-8.92,.76-17.88,5.76-26.72-.31-1.83-1.35-2.46-2.73-1.9-4.15,.56-1.43,1.14-2.15,1.73-2.15Z" />
    <path class="cls-106" d="M1674.19,1263.36c-16.26,1.23-24.71-9-31.61-21.52-2.88-15.82,10.37-22.41,18.33-32.03,5.93,8.07,16.51,13.97,12.7,26.62-6.19,20.53,13.1,4.25,16.62,12.07,.96,11-14,6.48-16.04,14.86Z" />
    <path class="cls-152" d="M1979.86,1243.32l-2.69,.48-2.71-.33c-9.51-.28-19.04-.52-27.09-6.7,2.22-2.32,4.43-4.64,6.65-6.95,8.86-5.72,17.62-3.9,26.36,.33l-.51,13.18Z" />
    <path class="cls-52" d="M1857.02,924.27c-19.69-10.9,4.8-35.55-14.5-46.57,2.64-6.19,8.2-4.43,12.98-4.76,7.2,14.8,6.04,29.9,1.62,45.12-.13,2.07-.16,4.14-.1,6.21Z" />
    <path class="cls-15" d="M1869.68,430.45c2.35-17.16-5.73-35.58,6.26-51.57-2.67,17.12,6.13,35.63-6.26,51.57Z" />
    <path class="cls-136" d="M2103.39,862.75c-12.13,2.54-20.65-2.07-30-12.62,14.38-1.17,21.97,6.92,30,12.62Z" />
    <path class="cls-2" d="M1857.13,918.06c-.54-15.04-1.08-30.08-1.62-45.12,9.43,14.72,17.06,29.51,1.62,45.12Z" />
    <path class="cls-38" d="M1778.68,1549.83c-2.32,1.63-4.64,3.27-6.95,4.9-6.17-2.89-14.99,3.23-19.39-5.69,9.07-9.15,17.86-9.41,26.35,.8Z" />
    <path class="cls-58" d="M1661.41,1399.36c1.51-11.86-2.76-24.6,5.33-35.48,.36,14.05,.72,28.11,1.08,42.17-1.5-1.34-3.19-2.37-5.06-3.11,.88-1.69,.43-2.89-1.35-3.59Z" />
    <path class="cls-86" d="M1892.42,345.61c-2.31,3-4.21,7.36-5.84,7.26-5.84-.35-3.75-5.6-3.74-9.03,.01-3.01,1.09-6.93,5.22-5.19,2.03,.85,2.89,4.46,4.36,6.96Z" />
    <path class="cls-86" d="M1916.65,303.3c-1.21,1.48-3.19,3.88-5.16,6.29-1.97-2.1-5.79-4.56-5.47-6.22,.5-2.57,3.43-5.65,6.03-6.61,3.83-1.42,5.95,.95,4.6,6.54Z" />
    <path class="cls-103" d="M2167.8,933.08c-7.69-5.56-14.41-11.93-17.52-21.27,12.59,1.53,18.2,8.81,17.52,21.27Z" />
    <path class="cls-151" d="M1907.9,1216.9c.71,2.39,1.42,4.77,2.14,7.16,2.51,8.52,3.03,16.95-1.12,25.18-13.83-10.35-7.55-21.34-1.02-32.34Z" />
    <path class="cls-80" d="M1954.09,1320.9c10.65,2.7,22.62-.69,32.17,7.03-10.93-1.4-23.38,4.15-32.17-7.03Z" />
    <path class="cls-83" d="M2726.72,1193.42c1.52,11.28-9.69,15.13-13.57,23.25-14.94,22.41-42.03,25.61-62.33,39.56-17.52,5.15-31.58,23.6-52.99,13.99-20.3-2.48-40.59-5.01-60.9-7.4-7.42-.87-16.8-.34-15.31-11.3,1.28-9.44,13.52-12.07,17.54-9.67,22.52,13.42,44.88-4.64,68.35,2.25,22.18,6.51,21.41-19.57,29.05-32.77,31.85,3.04,57.56-24.77,90.17-17.91Z" />
    <path class="cls-116" d="M2198.91,1209.98c27.46-22.48,54.17-45.99,82.75-66.94,11.61-8.51,24.62-23.42,42.65-10.12-18.21,27.93-49.04,40.24-73.98,59.84-12.37,9.72-24.37,19.93-36.53,29.92-7.25-1.55-12.99-4.86-14.89-12.69Z" />
    <path class="cls-109" d="M2240.09,1250.04c-.55,1.57-.76,3.19-.62,4.85-6.75,9.62-17.82,10.49-27.74,13.68-3.63-.16-7.26-.33-10.9-.49-17.31-22.15-24.05-20.52-45.35,10.93-10.09-27.13,30.47-30.95,25.67-55.65l-.09,.17c9.29-.2,20.14-6.36,25.95,6.78-1.33,15.95,10.26,12.23,19.17,12.59,7.42-3.04,14.55-5.5,13.91,7.14Z" />
    <path class="cls-53" d="M2279.69,1217.72c15.88-15.22,35.03-22.41,61.06-27.37-15.86,22.59-33.13,31.82-54.13,35-4.15-.87-6.41-3.47-6.93-7.63Z" />
    <path class="cls-48" d="M2240.09,1250.04c-4.64-2.38-9.27-4.76-13.91-7.14,10.99-4.37,21.99-8.75,32.98-13.12,3.09,2.65,3.3,5.51,.64,8.58-2.49,3.2-4.97,6.39-7.46,9.59-4.08,.7-8.17,1.39-12.25,2.09Z" />
    <path class="cls-80" d="M2207.01,1230.31c-8.65-2.26-17.3-4.52-25.95-6.78,3-8.4,11.37-9.73,17.85-13.55,4.96,4.23,9.93,8.46,14.89,12.69-2.26,2.55-4.53,5.09-6.79,7.64Z" />
    <path class="cls-33" d="M2259.81,1238.36c-.21-2.86-.43-5.72-.64-8.58,6.84-4.02,13.68-8.04,20.52-12.06,2.31,2.55,4.62,5.09,6.93,7.63-8.94,4.34-17.87,8.67-26.81,13.01Z" />
    <path class="cls-16" d="M3269.02,1023.21c-5.27-2.89-8.42-6.84-4.55-12.68,3.11-4.7,6.82-4,10.03,.32,.75,5.26,.1,9.9-5.48,12.36Z" />
    <path class="cls-136" d="M503.14,365.37c28.48-14.4,56.11-7.17,83.46,3.58,3.86,1.52,7.82,4.2,10.38,7.42,43.75,54.98,51.31,179.43,15.5,243.85-4.68,8.41-17.77,17.29-6.44,27.83,9.91,9.22,22.1,3.45,33.34-1.36,15.77-6.75,28.59-19.54,46.22-22.35,22,5.43,29.72-9.59,36.71-25.64,9.52-19.14,41.48-18.95,40.54-47.08,10.72,3.56,8.06,15.44,13.75,22.13,.8,16.56-.17,28.34,24.79,16.61,16.58-7.79,37.34,10.88,58.31,10.63,13.85-.17,25.03,1.21,31.38-14.52,6.57-16.3,20.94-11.43,33.44-9.45,61.87,9.78,123.82,19.11,185.5,29.95,24.09,4.24,44.91,.24,63.93-14.66,26.3-8.58,32.61,9.47,38.11,28.59,10.85,10.77,24.55,4.18,36.86,6.06,11.89,2.65,23.3,7.04,35.17,9.77,6.84,2.44,7.22,8.41,7.82,14.27-3.12,2.68-6.83,4.25-10.64,5.64,3.94-1.12,7.49-2.93,10.46-5.8,2.09,1.88,4.17,3.76,6.26,5.64,1.54,3.41,2.81,6.88,2.39,10.47-2.26,2.48-3.22,4.04,1.4,1.4,.83-.47,1.99-.37,3.16-.54,8.62,1.27,17.58-1.59,25.63,3.04l-.24-.17c3.01,3.01,.07,9.34,.52,9.19,24.56-7.99,49.14,1.64,73.65-.46,12.7,1.58,24.28,5.93,34.25,14.06,9.33,7.61,13.48,15.98,3.45,26.2-9.55,6.55-20.54,9.61-31.43,12.91-7.61,2.48-15.23,4.98-23.38,4.79-31.79-12.25-69.98,.77-98.59-25.2-6.34-5.76-11.14,2.77-16.44,5.71-22.25,12.34-45.23,13.17-61.81-7.09-21.56-26.35-49.01-39.73-82.32-47.71-7.42,31.89-1.25,64.34-4.19,96.23-.25,2.76-2.37,6.55,5.63,6.55,36.9-.02,17.9,17.77,9.42,31.87,.46,3.43,2.3,6.27,4.01,9.2,.8,2.29,1.09,4.61,1.04,6.98,1.52,7.03,10.82,8.1,11.83,15.43-6.48,20.63-34.19,2.3-40.9,22.44-6.68,18.97-3.64,42.26-24.53,54.78-14.92,.85-18.09-12.03-24.64-20.99-1.78-14.87,4.62-28.06,6.29-40.01-5.64,17.33-9.21,37.22-8.64,57.89-7.35,23.09-15.07,46.08-22.69,69.1-4.48,13.54-5.76,26.75,1.18,39.83,4.38,30.39,1.07,32.75-34.5,21.41,21.71,13.74,44.23,20.84,59.02,39.25,6.28,17.79-4.29,25.84-18.83,29.55-8.05,2.05-16.47,2.51-23.86,6.95-17.05,1.79-28.21-10.68-41.89-17.15-13.37-8.13-19.99-20.17-20.63-35.67,.46-7.82,2.09-15.56,1.73-23.46-.37-6.28,0-12.51,.7-18.74,3.58-16.41,9.21-31.43-2.35-48.85-9.25-13.93-2.78-31.18,6.45-45.42,4.69-6.24,11.7-2.1,17.88-3.3-3.75-6.91-11.78-5.66-16.17-10.28-11.88-14.23-13.8-37.45-37.28-41.17-8.82-9.24-15.68-19.39-14.83-32.97-13.2-24.34-38.56-11.23-57.25-18.54-11.84-4.51-24.3-3.12-36.53-3.89-4.82-.22-9.55-.94-14.23-2.1-10.68-4.42-22.04-3.96-33.27-4.48-5.03-.24-9.98-.97-14.88-2.14-16.65-5.49-33.69-3.89-50.72-2.76-26.2-.49-51.81,2.19-76.27,12.51-14.27,6.03-29.32,7.49-44.59,5.11-55.61-8.65-111.13-17.73-163.49-39.83-18.51-9.18-37.64-17.9-44.32-40-3.56-11.78-4.63-23.51,5.71-33,14.06-5.74,14.6,25.26,31.63,11.62,22.17-4.5,42.53-14.18,63.54-21.85,31.45-11.49,43.16-39.31,53.74-67.71,3.91-8.17,8.65-15.95,11.09-24.77,5.69-15.73,13.15-30.99,12.2-48.4,1.36-15.99-1.39-31.44-5.98-46.65-1.19-11.1-6.36-21.39-6.73-32.64-3.73-12.01,2.11-24.91-3.46-36.76-11.28-23.59-31.09-38.25-53.02-50.71,5.38-12.37,15.85-12.03,23.44-10.71-3.54-.05-8.77-2.53-11.01-9.48Z" />
    <path class="cls-96" d="M1200.99,507.27c2.02-7.81-8.24-17.9,2.38-23.4,8.75-4.53,14.16,4.47,17.5,10.47,8.77,15.75,25.12,4.99,36.45,11.72,7.47,4.44,20.42-1.38,22.98,12.67,2.39,13.1-10.51,11.29-15.86,16.81-3.71,3.82-7.34,7.72-11.01,11.58,6.07,8.49,15.18,1.6,22.36,4.4,8.7,3.3,10.84,11.73,14.71,18.82,.3,1.31,.59,2.63,.87,3.95l-7.02,6.31c-35.52,14.16-70.78,23.67-103.93-5.67-14.19-23.17-9.48-51.15-19.12-75.54-1.39-3.52-.81-9.32,5.38-9.09,4,.15,9.71,.98,11.55,3.64,5.99,8.66,10.55,18.32,15.67,27.59,2.64,1.59,5.08,3.53,7.92,4.8,2.27-6.47,1.14-12.79-.84-19.07Z" />
    <path class="cls-117" d="M1425.81,535.6c3.66,7.97,23.79,.04,17.01,19.94-3.5,10.26,9.82,12.2,18.04,11.38,10.36-1.03,20.48-4.34,30.71-6.66,4.99-3.54,10.11-3.49,15.34-.58,7.31-1.27,14.61,1.84,15.86,7.92,2.17,10.5-7.9,6-12.94,7.74-13.71,4.72-27.34,9.68-41.06,14.37-17.75,6.07-35.24,9.78-47.45-9.97-14.78-23.9-40.42-23.21-62.84-24.74-30.98-2.11-48.04-14.89-51.12-51.21,27.16,30.67,61.14,28.6,94.19,30.02,8.31-2.41,16.62-4.91,24.27,1.77Z" />
    <path class="cls-114" d="M932.08,418.18c5.27-2.1,10.55-4.2,15.82-6.31-22.69,27.6-15.66,53.77,3.81,79.34,5.5,3.45,4.51,7.15,.44,10.98-6.01,3.17-11.17,11.39-18.44,.7-39.45-57.99-44.55-58.62-102.34-11.68,5.29-29.53-13.98-30.28-37.78-30.29,27.2-27.08,75.69-7.06,87.67-49.67,10.31-2.4,19.61-.97,27.09,7.05,1.8,2.42-.44,6.39,2.92,8.41,.18-1.87,1.13-3.64,2.89-5.35,5.45-4.31,12.22-.7,17.93-3.19Z" />
    <path class="cls-121" d="M1531.33,768.69c19.46-1.79,35.46,.99,34.49,26.15-17.6,23.14,7.17,38.77,10.33,58.23-1.71-.04-3.39,.14-5.05,.55-9.93,21.48-25.25,32.25-49.66,25.03-4.79-1.96-8.48-5.21-11.05-9.68,3.07-25.06,9.97-49.21,18.14-73.02,5.19-4.49,7.7-9.58,3.36-16.17-1.74-3.64-2.79-7.29-.55-11.08Z" />
    <path class="cls-140" d="M1537.85,736.34c-17.66-11.19-20.39-35.11-38.88-45.59,.75-1.16,1.51-2.32,2.25-3.5,6.06-5.99,15.25-4.9,21.77-9.78,4.28-3.2,7.2-7.22,7.97-12.63,.67-6.67-10.27-16.79,.37-18.97,8.68-1.78,21.16,4.89,25.1,14.92,4.21,10.73,4.56,22.98,6.6,34.56,.48,19.11-3.86,35.26-25.17,40.99Z" />
    <path class="cls-85" d="M1498.97,690.75c-17.79-12.5-37.34-20.72-58.9-23.87-9.64-1.41-20.38-1.08-19.38-15.57,24.77-19.29,56.48-14.95,91.64,12.54,5.91,12.97-2.84,19.11-11.74,25.18l-1.62,1.72Z" />
    <path class="cls-71" d="M764.46,489.3c-17.18-33.69-31.92-69.14-65.89-90.62,5.04-7.46,14.13-.94,19.92-5.78,3.5,.02,7,.04,10.49,.06,15.84,.94,20.01,12.16,22.15,25.16-2.09,8.34,5.17,12.83,7.9,19.2,4.38,5.71,8.1,11.66,6.89,19.36,4.71,11.06,12.49,21.03,12.1,33.9-4.82,2.71-9.35,2.43-13.56-1.28Z" />
    <path class="cls-22" d="M776.61,573.75c-9.36-4.41-12.12-12.92-13.75-22.13,.84-5.14,1.68-10.29,2.52-15.43,6.07-11.15-11.99-30.88,12.61-35.45,7.71,24.49,5.58,48.79-1.38,73.01Z" />
    <path class="cls-123" d="M1504.18,507.42c-2.43-15.52,12.16-24.57,14.53-38.26-2.47-5.19,.79-6.67,4.91-7.6,4.03,1.5,5.17,5.61,7.69,8.49,8.41,23.05-4.54,37.7-20.2,51.27-12.55,.48-8.2-7.48-6.93-13.89Z" />
    <path class="cls-101" d="M1349.36,670.89c17.33,4.54,34.66,9.07,51.99,13.61-27.08,8.98-55.8-7.36-90.35,11.78,10.31-13.63,14.84-19.61,19.36-25.59,6.33,.07,12.67,.13,19,.2Z" />
    <path class="cls-139" d="M1278.24,554.76c-7.61-4.7-20.87,8.99-24.81-7.63,11.55,.09,23.1,.53,34.64,.16,9.01-.29,18.15,.17,20.68,10.2,3.54,14.04-8.82,13.97-17.37,16.82-1.04-.54-1.96-1.24-2.77-2.09-4.55-5.17-6.06-12.14-10.37-17.45Z" />
    <path class="cls-73" d="M998.18,483.33c16.35-2.13,32.61-3.87,50.1,11.31-19.93,2.38-35.24,3.38-49.88-4.98-2.3-1.33-3.09-2.71-2.39-4.15,.71-1.46,1.43-2.19,2.18-2.19Z" />
    <path class="cls-12" d="M718.49,392.91c-5.21,6.87-13.31,3.76-19.92,5.78-13.71,2.61-25.75-3.24-38.11-7.48,11.71-22.84,27.8-11.71,43.24-5.56,2.89,6.58,9.27,6.05,14.79,7.27Z" />
    <path class="cls-71" d="M703.71,385.64c-14.28,2.9-30.04-5.69-43.24,5.56-6.17,.8-12.38,.76-14.75-6.16-.37-1.07,5.2-4.17,8.02-6.34,15.22-4.59,30.4-5.18,45.55,.32,1.47,2.2,2.95,4.4,4.42,6.61Z" />
    <path class="cls-49" d="M1540.56,419.11l22.51-.38c2.49,3.99,4.98,7.99,7.47,11.98,4,7.42-.86,10.04-6.6,12.17-4.6-11.06-24.14-7.44-23.38-23.77Z" />
    <path class="cls-21" d="M1362.61,651.7c-4.19-6.95-12.11-11.88-11.7-23.39,12.18-2.06,21.88,.72,25.26,13.66,3.36,12.88-7.23,9.03-13.7,9.66l.14,.06Z" />
    <path class="cls-79" d="M1500.59,689.02c3.91-8.39,7.82-16.78,11.74-25.18,3.56,.98,7.12,1.96,10.68,2.94,7.64,3.64,6.67,9.11,3.22,15.11-6.68,9.09-16.75,5.97-25.64,7.13Z" />
    <path class="cls-44" d="M1147.74,557.96c-3.04-16.42-8.72-26.78,1.86-39.64,9.63,13.49,15.19,23.97-1.86,39.64Z" />
    <path class="cls-46" d="M1504.18,507.42l6.93,13.89c-5.44,12.35-9.73,24.83-4.21,38.38-5.11,.19-10.22,.38-15.34,.58,11.13-15.96,2.03-36.75,12.61-52.84Z" />
    <path class="cls-74" d="M1511.86,442.64c10.9,2.94,8.31,13.84,12.31,20.85-1.82,1.89-3.64,3.77-5.46,5.66-6.35-2.56-12.69-5.13-19.04-7.69-2.77-10.69,4.93-14.61,12.19-18.81Z" />
    <path class="cls-31" d="M993.94,237.04c3.66-11.73,18-12.47,36.61-1.9-6.45,6.46-13.66,3.89-20.84,1.78-5.25,.04-10.51,.08-15.76,.12Z" />
    <path class="cls-26" d="M998.18,483.33c.18,2.11,.26,4.22,.22,6.34-1.48,.82-3.07,1.12-4.75,.91-5.26,1.37-7.97,9.75-15.26,5.56-1.57-.57-3.19-.8-4.86-.69-4.51-3.15-6.21-7.76-6.79-12.97,10.84-13.11,20.78,7.45,31.45,.85Z" />
    <path class="cls-64" d="M1009.71,236.92c6.95-.59,13.9-1.18,20.85-1.77,1.88,.28,3.77,.43,5.67,.47v18.98c-9.7-6.46-18.11-12.07-26.52-17.67Z" />
    <path class="cls-101" d="M1330.6,670.86c-11.08,.17-22.17,.33-33.25,.5h-.01c.22-4.96,.45-9.91,.67-14.86,7.71,11.93,22.6,7.59,32.59,14.37Z" />
    <path class="cls-149" d="M1563.94,442.89c2.2-4.06,4.4-8.12,6.6-12.17,7.1,6.8,8.74,16.57,2.77,22.37-3.82,3.71-6.35-6.27-9.36-10.2Z" />
    <path class="cls-44" d="M1153.42,512.54c-.62,.27-3.21,1.75-5.99,2.49-4.24,1.13-8.34-.05-9.46-4.44-.37-1.46,2.89-4.84,5.14-5.76,3.75-1.55,7.92-1.58,10.31,7.72Z" />
    <path class="cls-50" d="M978.38,496.14c5.09-1.85,10.18-3.71,15.26-5.56,.94,6.77,1.88,13.54,2.89,20.79-10.87-.13-14.3-7.94-18.16-15.23Z" />
    <path class="cls-148" d="M1491.21,415.4c-4.89,.49-8.11-.32-6.15-4.32,1.15-2.34,4.51-4.37,7.21-4.92,2.18-.44,4.85,1.56,7.3,2.48-3.12,2.52-6.23,5.04-8.36,6.76Z" />
    <path class="cls-18" d="M953.45,210.01c8.17,8.94,8.27,17.61-.89,25.96-7.38-8.92-.84-17.35,.89-25.96Z" />
    <path class="cls-51" d="M1901.82,1808.86c4.44-10.69,8.88-21.37,13.33-32.06,.79-2.83,2.47-3.72,5.17-2.35,2.55,2.81,5.11,5.62,7.66,8.43-6.58,13.99-7.19,28.94-7.09,44-4.84,6.05-11.27,12.4-18.5,7.1-9.36-6.86-6.89-16.55-.56-25.12Z" />
    <path class="cls-20" d="M1919.35,1647.14c-6.96-6.76-16.63-10.97-19.96-21.15,18.84-4.18,32.23,6.47,47.08,14.4-8.01,15.26-18.76,3.91-27.12,6.75Z" />
    <path class="cls-42" d="M2331.52,1372.84c-7.22,8.15-15.79,8.65-29.92,3.11,13.04-1.33,21.59-2.2,30.14-3.07l-.23-.04Z" />
    <path class="cls-136" d="M1525.64,1898.27c2.74,15.48,5.48,30.96,8.23,46.44-8.16,5.35-9.44,15.22-14.79,22.46-5.08,3.58-10.74,4.15-16.67,3.38-14.92-3.36-27.61-15.26-44.42-11.42-6.01,.34-11.92-.18-17.76-1.59-7.29-2.24-14.67-4.18-21.96-6.43-13.38-5.18-28.25-1.14-41.58-6.65-14.63-7.22-28.34-15.64-37.57-29.7-2.17-4.32-3.19-8.91-3.21-13.73,12.92-18.4-6.98-20.19-14.47-28.23-32.34-37.73-69.01-72.82-77.23-125.44,2.22-21.48,9.03-41.85,15.25-62.34,11.8-38.89,25.47-77.44,18-119.23,1.52-8.06,4.64-15.6,7.63-23.18,4.3-8.64,11.82-16,13.54-25.55,3.87-21.48,18.45-28.56,37.23-27.01,13.23,1.1,33.19,41.67,24.7,53.77-12.53,17.87-3.88,24.48,9.87,31.56,21.82,11.23,22.81,33.83,29.39,53.37,7.56,22.43,28.16,34.97,53.5,32.39,12.22,12.84,6.66,28.92,7.97,43.75-7.34,23.7-11.99,47.44-1.22,71.45,13.21,20.01-10.81,39.64-.6,59.62,3.37,19.58,22.35,20.94,34.75,30.09,10.89,8.04,25.31,12.5,29.88,27.48-2.26,4.02-4.5,8.04-3.75,12.94,2.48-2.28,1.17-7,5.31-8.2Z" />
    <path class="cls-82" d="M1309.64,1378.63c5.69-24.78-12.74-42.45-18.8-63.76,22.83-16.26,42.88-4.08,62.56,6.77,19.02,10.49,35.98,15.23,47.18-9.87,10.41-8.41,23.42-10.99,35.45-15.71,48.99-19.23,49.33-20.41,39.84-71.23-3.04-16.3-12.9-33.13-.57-49.84,11.72-6.23,18.46-15.93,22.21-28.73,2.09-7.12,3.53-17.84,16.2-13.16,1.77,74.92,15.5,147.06,49.67,214.48,.34,7.29,.92,14.54,2.81,21.64-1.93,8.17-5.42,14.03-15.33,10.39-4.68-4.2-9.37-8.4-14.05-12.6-14.61-4.86-19.31-18.24-26.77-29.71-5.4-8.31-8.77-23.58-24.79-14.44,4.43,12.07,23.39,10.31,24.17,25.62-.4,12.93-7.27,20.6-19.4,24.01-10.12,6.57-20.23,13.14-30.35,19.7-16.99,7.39-33.97,14.78-50.96,22.17-6.06-1.51-13.58,3.2-18.28-4.3-5.74-14.7-11.56-29.32-24.2-39.79-5.63-.66-11.67,1.55-16.81-2.43-19.5-3.02-24.5,13.25-33.04,24.81-12.43,.21-9.05-7.16-6.72-14.02Z" />
    <path class="cls-135" d="M1453.31,1661.14c-.71,19.2-5.73,28.84-23.39,10.56-1.49-1.54-2.84-3.73-4.68-4.36-25.9-8.9-41.19-29.08-40.32-54.17,.9-25.64-16.81-30.9-31.61-36.88-18.84-7.61-24.86-16.37-7.14-27.87,19.38-12.58,4.6-23.81,1.25-34.22-2.16-6.71-2.25-21.8-16.92-17.37-11.2,3.38-25.21,3.76-23.16,23.26,.87,8.25-6.44,18.04-16.36,22.27-10.57-11-5.66-22.19-.43-33.39-5.81-34.72,29.01-34.69,44.09-51.55,2.31-.05,4.63-.11,6.94-.16,11.16-3.71,14.03,2.37,14,11.86-12.89,33.58,16.27,52.98,27.23,78.21,17.88,41.16,47.75,75.37,70.51,113.79Z" />
    <path class="cls-136" d="M1355.58,1469.15c-4.67-3.95-9.33-7.91-14-11.86,.47-7.91,1.24-16.33,12.36-9.85,10.17,5.93,12.8,13.6,1.64,21.71Z" />
    <path class="cls-136" d="M1381.69,1425.87c-.42-7.75,5.49-10.8,10.68-14.38,5.61-.03,12.1-4.99,16.32,2.87-7.97,6.26-14.47,15.97-27,11.51Z" />
    <path class="cls-94" d="M1517.65,872.58c22.49,6.85,37.29-7.94,53.44-18.96-.17,6.58-.33,13.17-.5,19.75-5.02,11.55-14.56,14.71-26.14,14.09-16.68,16.83,1.57,33.63,.04,50.45l-.06,.06c-25.8-1.31-51.59-41.2-40.45-63.2,2.75-5.42,8.44-5.56,13.67-2.19Z" />
    <path class="cls-133" d="M1513.71,1133.09c-10.85,4.32-7.3,14.27-8.84,22.31-2.69,14.09-8.89,24.5-25.68,22.91-22.95-17.71-42.37-40.48-44.71-68.63-5.26-63.19-49.71-86.01-98.98-105.68-24.91-9.95-52.82-11.52-75.9-26.76-5.21-3.41-9.58-7.79-13.93-12.18-7.2-7.81-18.65-10.7-24.13-20.6-1.49-2.91-2.49-5.96-3.17-9.16-1.22-8.5-.42-16.68,3.75-24.36,5.32-7.51,12.61-11.02,21.78-10.72,14.54,1.76,27.8,9.23,42.68,9.59,29.35,8.06,55.49,25.75,86.56,28.66,13.78,6.56,24.96,19.36,42.29,17.47,3.24,.39,6.38,1.1,9.52,1.95,25.24,6.6,53.5,4.25,74.01,24.85,17.9,15.15,52.46,15.94,45.34,52.63-2.26,12.99,17.44,21.8,6.98,36.41-1.01,2.82-2.37,5.45-3.96,7.99-4.62,13.21-20.11,6.35-27.3,14.83-2.1,12.83-4.21,25.66-6.31,38.49Z" />
    <path class="cls-36" d="M1520.02,1094.6c-2.91-1.07-7.79-1.5-8.37-3.31-2.36-7.35,4.03-10.26,8.5-8.16,11.85,5.58,17.43-2.48,24.22-8.77,1.4,1.48,2.87,2.88,4.42,4.21-1.5-1.37-2.99-2.76-4.4-4.22,11.65-20.77-14.48-30.24-15.1-47.5,9.33-3.39,9.05,7.69,15.01,8.52,21.69,13.2,29.98,34.97,36.87,57.63-20.24,5.98-40.77,.86-61.15,1.6Z" />
    <path class="cls-9" d="M1569.76,1359.02c-1.94,2.62-3.88,5.23-5.83,7.85-8.02-6.21-8.2-12.64-.55-19.3,2.13,3.82,4.25,7.63,6.38,11.45Z" />
    <path class="cls-128" d="M1674.4,1080.74c-12.3-1.36-30.75,5.44-25.51-19.21,4.2,.26,8.39,.53,12.59,.79,3.47,8.69,12.37,11,18.91,16.07-2,.78-3.99,1.56-5.99,2.35Z" />
    <path class="cls-87" d="M2623.57,1536.29c36.87,4.6,72.36-14.12,109.41-6.48,.45,4.21,.9,8.42,1.35,12.63-8.24,28.26-30.55,31.72-55.06,31.33-16.02-3.92-32.1-10.81-48,.57-4.61,3.76-9.29,5.89-14.21,.52-27.56,.58-55.13,1.6-82.69,1.53-12.86-.04-25.18-3.58-34.55-13.54-9.13-9.04-21.04-1.46-31.05-5.17,4.69-22.14,30.1-35.71,53.47-28.29,9.76,3.1,18.51,10.61,29.82,6.43,23.86-2.79,47.6,11.13,71.52,.49Z" />
    <path class="cls-100" d="M2715.5,1627.12c16.97-15.48,33.95-30.97,50.92-46.45,2.02,.04,3.98-.29,5.87-.99,23.18,12.7,30.89,41.88,17.76,70.58-3.32,7.25-12.32,12.52-4.99,21.97-7.01,21.53-29.67,31.61-38.14,52.08-1.46,24.25-20.65,40.78-27.26,62.81-20.04,36.09-30.74,75.95-46,113.95-8.31,20.7-19.36,38.46-38.89,50.05-35.68,24.29-13.64,57.64-11.39,86.48,1.2,15.43,6.12,28.52-7.49,40.02-8.24,5.83-16.17,11.97-20.01,21.86-8.83,17.38-18.34,33.33-40.96,35.62-15.91,1.61-12.47,20.98-22.86,28.31-27.25,11.96-40.52-4.41-49.47-25.92-9.21-22.12-23.16-29.64-45.72-20.32-20.08,8.29-17.8,24.67-14.91,40.91,4.44,24.95-1.31,44.83-25.77,56.39-13.21,4.65-26.93,3.85-40.6,3.61-2.98-.35-5.89-1.06-8.75-1.97-11.92-4.14-23.13-12.95-36.82-5.51-16.09,1.53-32.39,1.41-47.98,6.7-22.66-4.31-43.7-2.79-65.58,7.63-15.99,7.62-35.36,9.71-54.05,6.52-17.36-4.54-35.32-5.49-52.86-8.82-14.37-1.31-28.51,.01-42.44,3.69-12.33,.6-24.12,7.4-36.86,3.45-6.98-3.68-12-12.07-21.82-9.11-2.81-.62-5.32-1.85-7.63-3.53-4.39-3.67-8.63-7.47-10.39-13.2-.97-3.09-1.65-6.31-4-8.77,1.71,3.93,3.57,7.86,.23,11.9-12.69,5.86-15.57-6.04-21.88-12.44-10.95,7.37-13.03,21.16-22.02,29.76-16.4,14.42-34.8,19.62-55.92,12.28-10.09-8.36-10.45-16.31,2.9-20.44,10.18-3.15,20.31-5.68,27.21-13.38-15.06,2.42-31.24-10.86-47.69-.07-2.52,1.31-5.15,2.4-7.79,3.44-9.91,4.65-21.33,5.25-30.72,11.45-2.23,1.85-4.48,3.59-6.69,5.46-9.9,8.75-21.88,10.67-34.47,10.78-15.37,.38-28.5-6.01-41.28-13.48-13.32-8.21-28.04-5.5-42.43-5.36-13.69-.54-26.95-2.4-37.47-12.37-.53-25.23,16.1-39.86,48.86-37.58,20.9,1.46,40.66-1.9,60.98-3.96,21.03-2.13,28.45-13.51,27.22-32.47-1.4-21.52-14.63-23.58-32.12-18.51-15.82,4.58-30.16,0-33.26-16.39-2.96-15.7,11.1-18.44,23.81-19.06,2.95,.14,5.87,.62,8.74,1.29,9.54,3.28,18.92,4.93,27.33-2.91,6.95-5.4,13.99-10.57,23.54-9.24,10.75,5.44,21.17,15.19,33.39,2.52,7.9,1.2,13.62,5.33,17.22,12.41,3.53,9.82,1.5,23.54,17.44,24.58,7.23,1.79,14.45,3.53,21.65,5.39,13.87,4.65,28.22,2.38,42.37,2.96,5.06,.17,10.09,.53,15.07,1.47,35.29,6.92,70.36,16.3,106.77,8.06,74.64,13.01,144.88-16.63,217.57-22.64,15.32-1.27,24.17-13.15,33.85-23.2,6.36-6.58,14.2-11.21,21.69-16.27,5.52-4.02,10.82-8.35,15.69-13.18,4.78-4.62,9.48-9.32,14.28-13.94,2.9-2.83,6.05-5.35,9.34-7.7,10.8-6.51,17.74-16.56,24.5-26.79,21.1-33.47,51.92-50.28,90.78-54.91,14.97-1.79,29.04-8.33,42.81-14.9,11.96-5.71,9.03-12.45,2.4-20.02-5.16-12.53,1.65-21.13,10.55-27.74,22.53-16.75,35.11-40.33,47.06-64.69,21.16-43.13,52.45-78.72,90.88-117.47-18.77,3.11-30.8,10.32-43.97,9.64-15.05-3.8-42.97,5.9-29.34-27.91,19-11.39,38.01-22.79,57.02-34.18,15.16-4.07,30.33-8.14,45.49-12.21,7.26,.74,11.88,10.01,20.76,6.31-2.66-6.09-11.62-5.34-13.25-12.3Z" />
    <path class="cls-81" d="M2785.06,1672.23c-6.64-4.96-16.33-5.61-20.49-14.31,29.93-8.89,33.39-44.87,7.73-78.24,4.41-13.84,8.9-27.65,13.22-41.51,4.05-13.01,9.45-24.17,26.32-21.13,4.42,13.66-5.8,24.77-6.56,37.53-9.59,16.78-1.39,34.48-2.64,51.71,3.19,11.76,5.84,23.44-3.44,33.91,3.12,14.14-4.57,23.5-14.14,32.04Z" />
    <path class="cls-100" d="M2805.15,1607.38c-.54,10.53-1.08,21.05-1.63,31.58-1.55,.05-2.99,.46-4.33,1.23,.22-14.42,.44-28.83,.66-43.26,1.6,1.93,3.21,3.87,4.81,5.81-1.49,1.72-1.33,3.27,.49,4.64Z" />
    <path class="cls-127" d="M404.62,417.39c2.86-2.37,5.71-4.74,8.57-7.11,56.17-25.74,94.99,1.23,129.11,42.47,9.14,7.36,6.77,17.83,7.46,27.47,.09,3.23,.33,6.47,.77,9.68,1.72,7.92,1.24,15.79-.59,23.61-4.28,11.54-5.04,23.14-.31,34.81,1.67,5.97,2.35,12.11,3.34,18.22,3.1,11.2,3.07,22.31-.86,33.33-4.01,9.11-7.05,18.97-17.65,23.04-20.26,2.32-38.82-.57-53.08-17.09-5.33-6.17-12.95-9.23-20.4-8.22-29.34,3.96-51.43-10.45-72.93-26.97-28.54-2.63-41.28-25.71-55.74-45.16-7-9.41-7.02-23.54,1.37-33.54,7.71-9.19,17.91-3.05,27-.25,6.24,1.93,12.65,2.72,19.07,3.15,2.81-1.72,7.15,3.88,8.83-2.03-23.28-27.03-17.88-51.92,16.05-75.4Z" />
    <path class="cls-137" d="M722.32,598.7c8.89,16.32-5.55,24.29-13.65,32.61-8.95,9.2-17.01,1.16-23.06-6.97,12.24-8.55,24.48-17.09,36.71-25.64Z" />
    <path class="cls-23" d="M503.14,365.37c6.53,2.94,13.05,5.88,23.7,10.67-14.04,4.34-26.73,2.23-36.12,9.52-6.06-13.01,3.07-16.66,12.42-20.19Z" />
    <path class="cls-101" d="M381.45,500.45c-15.57,9.99-27.14-5.14-40.89-6.61-5.02,31.17,14.81,59.62,46.63,67.01,5.02,4.71,8.88,11.76,5.58,17.02-10.49,16.73,3.09,22.47,12.21,30.61,5.47,12.24,4.5,25.58,6.82,38.38-2.9,17.21-13.07,18.04-26.41,11.74-7.25-4.99-10.73-11.73-9.36-20.61,2.5-5.87,10.96-13.43-4.15-14.45-30.75-11.38-54.32-5.33-75.99,21.75-21.71,27.13-43.95,25.96-67.27,3.37-.53-19.07-6.23-38.27,4.25-56.92,5.46-9.71,1.39-21.12-7.33-25.74-38.79-20.54-33.71-52.31-24.27-85.99-4.49,8.55,.26,20.09-7.49,26.91-7.9,6.95-10.91,1.47-11.35-6.64,2.46-23.01-5.72-46.63,4.33-69.11,26.28-22.55,56.04-38.1,90.17-44.86,15.87-8.06,24.44,1.19,31.76,13.39,4.06,8.4,8.12,16.8,12.18,25.2,15.22,8.8,13.68,26.04,19.89,39.34,4.3,11.72,14.68,15.47,25.18,19.04,5.33,2.19,10.29,4.96,14.33,9.16,1.78,2.46,2.23,5.12,1.16,8Z" />
    <path class="cls-99" d="M186.91,508.86c9.08-11.43,3.51-24.97,5.45-37.42,1.23-7.89,.15-20.09,13.72-14.97,8.23,3.11,14.14,11.31,7.05,20.82-5.43,7.28-7.3,15.14-8.76,23.77-3.36,19.92-5.36,36.29,17.81,49.3,20.35,11.43,38.58,30.4,13.17,56.47-6.08,6.24-2.74,13.22,2.83,19.95,8.65,10.46-.83,14.79-8.37,19.17-14.29,10.8-26.64,1.64-38.79-4.37-49.69-24.59-94.84-58.1-150.4-71.48-13.02-3.13-29.99-12.2-36.61-28.85-5.19-12.92-5.61-25.8,.35-38.62,8.49-20.97,25.69-22.6,44.73-20.13,18.87,5.32,30.94,16.07,27.27,37.34-2.77,16.07,7.69,22.49,19.35,24.75,14.17,2.75,21.89-8.22,24.26-20.4,2.02-10.36,2.37-21.88,0-32.07-3.09-13.27-12.7-25.08,8.01-33.67,20.44-8.47,23.25,9.27,32.47,17.97,3.7,7.89,10.51,14.72,8.43,24.59-3.66,11.48-3.72,22.98-.21,34.51,.69,4.41,1.11,8.76-2.42,12.34-5.57,5.28-9.23,11.22-6.52,19.3q28.39,5.03,22.76-31.09c1.77-9.03-4.12-19.29,4.44-27.19Z" />
    <path class="cls-101" d="M184.8,539.47c14.8,12.49,17.29,27.94,2.68,40.09-12.75,10.6-17.11-10.8-27.77-12.42,20.32,3.19,16-14,20.07-24.25,.6-2.72,2.32-3.79,5.02-3.41Z" />
    <path class="cls-101" d="M1440.37,723.34c8.12-4.66,22.22,14.09,26.84-8.06,2.07-9.93,10.51-1.49,14.24,1.59,12.02,9.94,15.77,24.36,18.61,38.98,4.87,3.99,10.29,7.58,10.73,14.8,.29,4.95-.9,9.48-3.83,13.52-7.16,7.04-15.81,9.91-25.74,9.11-19.93-3.7-26.4,7.72-27.78,24.85-2.69,24.71-20.46,36.85-47.25,27.25-19.35-6.94-33.67-5.06-51.36,4.67-50.57,27.83-73.87,23.19-117.43-18.62,.07-9.27,10.67-11.19,13.13-18.83-5.95,2.14-10.23,7.63-16.83,8.59-12.7,3.49-25.72,1.86-38.59,2.61-16.72,.11-32.37-3.32-45.85-13.82-5.54-5.91-11.36-10.13-19-2.98-9.68-3.35-17.79-7.77-4.38-16.47,6.81-4.42,17.21-3.51,20.22-14.75-9.59-5.67-19.12-7.15-30.54,2.6,0-40.65-.19-77.06,.14-113.47,.08-8.73,2.48-18.55,10.9-21.93,9.45-3.8,11.8,5.8,15.43,12.32,1.9,3.42,6.38,8.64,8.61,8.15,37.82-8.32,48.22,26.12,68.7,44.08,16.63,14.59,39.06,13.57,52.33-5.79,9.48-13.83,19.83-15.26,24.56,.73,5.27,17.79,21.7,19.11,30.39,17.36,23.12-4.66,41.82,6.58,62.46,10.33,3.17,6.21-9.29,8.92-3.45,15.71,10.09,14.51,7.24-4.72,11.79-4.56,3.61-4.91,8.18-8.52,13.8-10.79,9.9-1.65,17.74-11.72,29.17-7.15Z" />
    <path class="cls-132" d="M1044.97,1158.83c-14.17-13.92-6.87-36.81-21.2-50.66,5.22-4.74,1.5-18.87,18.16-12.23,8.55,3.4,23.71-4.93,21.37-21.75,3.4-3.64,7.75-4.79,12.53-4.81,13.44,2.92,26.87,2.99,40.32-.25,4.85-.19,9.34,.86,13.29,3.79,1.83,2.57,3.02,5.41,3.52,8.53,.49,7.65-3.62,14.65-3.8,21.99-.55,23.29-6.83,37.12-34.41,27.56-12.09-4.19-22.78-.8-26.83,14.66-2.78,10.62-8.7,20.35-22.95,13.17Z" />
    <path class="cls-146" d="M932.07,860.37c-9.47,.76-18.68,.32-26.65-5.82-5.27-8.46-11.38-5.91-17.63-1.34-31.48,4.02-59.91-14.63-91.17-12.27-10.35-10.73-17.21,5.36-26.42,3.46-2.85-.48-5.38-1.67-7.61-3.51-3.32-6.1-8.12-11.87-4.77-19.61,2.18-2.21,4.36-4.43,6.54-6.64,19.66-8.42,40.76,.26,60.65-5.14,34.03,12.8,73.19,3.79,105.35,24.66,7.8,2.28-23.79,24.29,7.55,15.05,3.18-.94,6.63,2.79,4.51,5.61-2.14,2.84-6.79,3.77-10.34,5.54Z" />
    <path class="cls-70" d="M1063.49,905.4c11.28-3.04,14.96-9.26,8.3-19.81,13.06,.11,8.86,15.17,16.96,19.58-1.01,13.4-10.56,25.37-20.75,24.42-11.89-1.11-3.23-15.65-4.5-24.18Z" />
    <path class="cls-101" d="M1297.35,671.35c-3.15,15.22-11.58,13.78-23.06,8.49,5.91-12.24,15.58-6.9,23.05-8.5h.01Z" />
    <path class="cls-124" d="M393.53,705.91c8.69,5.83,17.39,11.65,26.08,17.48-16.51,5.82-23.84-2.03-26.08-17.48Z" />
    <path class="cls-101" d="M1291.75,650.85c-4.65,11.47-13.13,12.57-24.85,8.27,6.08-11.26,17.09-5.43,25.03-8.11l-.18-.16Z" />
    <path class="cls-10" d="M1144.09,612.64c-9.15,9.84-15.69,4.94-24.96,7.1,8.92-9.25,15.46-4.2,24.96-7.1Z" />
    <path class="cls-6" d="M1141.35,814.34c6.12,2.26,11.84,4.87,11.46,12.9-6.41-2.96-12.82-5.93-19.23-8.89,2.59-1.34,5.18-2.67,7.77-4.01Z" />
    <path class="cls-5" d="M1278.24,554.76c7.32,3.53,13.25,7.88,10.38,17.45-12.65-.37-10.22-9.68-10.38-17.45Z" />
    <path class="cls-31" d="M908.88,423.38c1.9-.77,3.53-.39,4.91,1.12,2.45,3.24,4.89,6.48,7.34,9.72-2.6,.7-5.64,2.61-7.7,1.86-5.98-2.19-12.38-5.18-4.54-12.7Z" />
    <path class="cls-141" d="M1534.71,800.46c6.36-7.78,5.79-16.08,1.85-24.64,19.56,9.73,11,17.35-1.85,24.64Z" />
    <path class="cls-108" d="M1797.59,1937.96c9.38-29.3,16.43-58.94,13.15-90.09,5.31-9.13-4.53-22.26,7.81-29.53,25.19-32.96,26.44-73.89,37.19-111.67-9.87-16.52-1.08-23.89,13.85-28.27,4.37,4.27,8.74,8.54,13.1,12.81,4.58,13.37,4.7,26.73-.09,40.08-11.06,28.94-20.93,58.44-39.06,84.1-5.72,24.22,7.29,47.44,3.52,71.87-1.93,12.52-.86,25.59-3.8,38.17,.12,11.57-.08,23.08-7.52,32.92q-36.85,4.07-38.15-20.4Z" />
    <path class="cls-120" d="M1571.69,1977.35c16.11-2.4,22.35,9.85,22.57,20.82,.29,14.75-13.64,12.05-23.83,12.03-27.07-4.15-42.01-22.13-52.06-45.67,2.8-8.46-12.63-31.17,15.5-19.82,7.23,1.93,8,13.28,17.46,11.96l-.82,2.38c2.73,11.12,13.8,12.57,21.18,18.29Z" />
    <path class="cls-41" d="M1525.64,1898.27c-.83,6.8-1.65,13.59-2.83,23.23-7.19-11.96-12.1-20.78,1.27-27.96,2.07,1.07,2.59,2.64,1.56,4.73Z" />
    <path class="cls-59" d="M2552.05,1535.8c-5.52,7.41-12.54,6.97-19.58,3.07-27.02-14.98-45.12,3.72-64.74,16.81,2.32,1.23,3.07,2.42,2.27,3.59-.78,1.15-1.57,1.73-2.37,1.73-56.79-5.03-98.02-41.45-142.8-70.73-2.51-11.26,1.74-15.26,12.81-11.91,17.5,6.18,36.25-1.62,53.73,4.77,18.73,5.02,37.45,10.05,56.18,15.07l104.51,37.6Z" />
    <path class="cls-77" d="M2460.95,1646.4c-18.63-4.71-27.09-23.48-43.34-31.35-7.6-3.68-16.69-8.67-23.89-1.85-7.31,6.92,1.93,13.4,4.53,19.55,6.16,14.57,13.13,28.91,26.85,38.33-3.31,14.33-11.46,23.46-26.73,24.91-23.17-11.93-37.01-35.21-58.84-48.48-11.99,7.99-3.41,23.58-12.25,32.53-4.07,5.09-9.4,8.41-15.23,11.08-23.45,10.83-41.8,4.83-55.82-16.56-11.09-16.92-31.65-27.18-34.93-49.62-11.24-16.11-37.82-28.42-28.94-49.55,7.62-18.11,34.34-11.94,52.85-14.62,43.04-6.22,87.34-9.89,129.03,1.36,38.11,10.28,74.93,27.33,107.96,51.08,19.04,13.69,40.4,23.52,64.9,25.53,22.46,1.84,13.37,12.79,4.97,22.59-19.16,7.22-35.85,.24-52.13-9.05-12.22-7.09-26.87,1.95-38.99-5.86Z" />
    <path class="cls-34" d="M2467.63,1560.99c.06-1.77,.09-3.55,.1-5.32,10.98,1.14,23.55-4.87,32.09,7.16-10.73-.62-21.46-1.23-32.19-1.85Z" />
    <path class="cls-76" d="M2006.08,1699.76c33.28-17.61,42.82-14.91,70.49,19.96,20.7,9.07,25.1,29.75,33.86,47.36,2.89,10.64,8.46,20.08,13.53,29.81,1.44,3.11,2.73,6.23,4.09,9.38,13.13,40.71,.15,83.39,9.92,124.56,4.93,20.77,11.07,41.43,13.05,62.91,1.92,20.84,.31,41.07-12.15,58.59-12.83,18.04-22.99,16.91-37.97-3,5.28-9.71,3.85-17.07-2.9-28.94-5.73-10.07-10.48-20.78-14.13-31.89-4.33-15.42-.58-31.83-5.86-47.12-2.15-10.36-.67-21.21-4.63-34.44-13.97,26.3-2.5,58.42-25.14,78.97-4.03-8.59-17.16-4.24-20.29-14.21-.77-4.7,.86-8.94,2.41-13.19,10.41-14.46,15.09-30.62,14.27-48.39-4.5-24.16-4.47-48.33-.02-72.5,.54-10.33,2.47-20.84,1.23-30.96-1.35-11-4.09-23.57-20.93-17.24-7.72,16.03,1.04,34.08-6.15,50.18-4.53,.04-6.43,13.75-13.13,2.53-6.94-10.19,1.46-23.16-6.03-33.26-9.14-25.94-8.87-51.93-.43-77.97,8.53-9-1.18-22.04,6.91-31.14Z" />
    <path class="cls-113" d="M2044.6,1837.61c0,24.17,.01,48.33,.02,72.5-8.71-24.16-10.89-48.33-.02-72.5Z" />
    <path class="cls-69" d="M2018.75,1839.59c-1.44-17.15-5.38-34.61,6.15-50.18-.44,16.92,5.93,34.68-6.15,50.18Z" />
    <path class="cls-69" d="M1999.59,1808.87c10.17,9.61,6,21.81,6.03,33.26-6.96-10.19-6.62-21.7-6.03-33.26Z" />
    <path class="cls-55" d="M2006.08,1699.76c-1.11,10.64,3.67,22.6-6.91,31.14,.12-10.86-3.64-22.59,6.91-31.14Z" />
    <path class="cls-111" d="M1797.59,1937.96c.95,28.8,28.2,8.43,38.15,20.4,.11,3.7,.22,7.4,.34,11.11-14.26,19.06-35.29,45.15-54.96,29.7-15.92-12.5,4.14-41.76,16.48-61.2Z" />
    <path class="cls-111" d="M1843.26,1925.43c2.86-36.67-5.42-73.38,.28-110.04,1.95,36.69,11.65,73.39-.28,110.04Z" />
    <path class="cls-122" d="M1869.58,1678.39c.03,11.7-19.58,13.78-13.85,28.27-21.28-16.57-21.7-28.89,7.19-35.22,2.22,2.32,4.44,4.63,6.66,6.95Z" />
    <path class="cls-122" d="M1882.59,1731.29c.03-13.36,.06-26.72,.09-40.08,10.19,13.38,8.1,26.74-.09,40.08Z" />
    <path class="cls-72" d="M2391.37,1483.13c-17.97-.91-36.63,5.88-53.73-4.77,18.12-.81,36.58-5.41,53.73,4.77Z" />
    <path class="cls-104" d="M2174.93,1704.33c2.39,23.8-12.69,37.95-32.1,38.52-16.84,.5-34.81-9.5-33.02-33.79,.77-10.4-6.56-17.48-14.19-23.65,12.1-18.4,45.28-20.69,60.38-4.42,3.38,3.65,7.84,6.3,11.8,9.41,6.24,2.67,9.78,6.71,7.13,13.93Z" />
    <path class="cls-61" d="M2174.93,1704.33c-2.38-4.64-4.76-9.29-7.13-13.93,.02-1.75,.23-3.48,.64-5.19,11.38-1.16,22.65-1.65,32.55,5.69,4.59-3,8.92-2.61,13.03,.96,20.78,15.11,47.86,25.33,45.46,58.46-7.67,10.99-17.91,15.22-31.05,11.8-3.2-1.41-5.6-3.68-7.22-6.78-27.18-6.34-32.35-32.64-46.27-51Z" />
    <path class="cls-136" d="M1044.97,1158.83c4.6-2.29,11.75-3.42,13.42-7.05,16.9-36.84,21.39-38.97,63.14-23.19-11.81-19.94,.68-33.48,7.09-48.48,38.87-1.05,70.97,19.33,105.15,33.14,38.03,21.18,68.61,55.16,113.32,65.13,8.11,1.81,14.34,9.18,19.69,16.07,21.68,37.56,22.2,81.17,34.58,121.41-2.45,18.29-36.3,34.57-47.32,20.62-17.71-22.43-40.34-19.97-63.19-21.62-20.71-54.33-78.75-63.21-117.05-96.13-12.07-7.26-24.13-14.52-36.2-21.78-17.72-6.74-37.17,2.69-54.69-5.89-7.22-17.12-24.66-22.23-37.93-32.24Z" />
    <path class="cls-25" d="M1284.09,1561.94c-1.97-10.85-3.94-21.71-5.91-32.56,3.99-6.88,3-16.77,12.37-20.39,.14,11.13,.28,22.26,.42,33.39-.47,7.16,.67,14.89-6.88,19.56Z" />
    <path class="cls-54" d="M1309.64,1378.63c2.24,4.67,4.48,9.35,6.72,14.02-2.1,6.48-4.21,12.96-6.31,19.44-12.46,.77-8.96-7.11-7.52-13.87,1.45-6.87-.04-14.8,7.12-19.6Z" />
    <path class="cls-153" d="M1302.52,1398.23c2.11,4.84,.24,11.83,7.52,13.87-.46,6.14-5.82,11.14-9.48,7.92-7.48-6.57-1.74-14.68,1.96-21.79Z" />
    <path class="cls-112" d="M1498.81,1963.74c-14.73,.69-28.07-3.76-40.62-11.06,16.95-8.83,28.36,2.67,40.62,11.06Z" />
    <path class="cls-88" d="M1341.78,1902.62c-2.23-3.06-4.46-6.11-6.69-9.17-2.09-8.57-4.18-17.15-6.27-25.72,13.74,8.13,19.1,19.38,12.96,34.89Z" />
    <path class="cls-136" d="M1446.02,1330.51c-.62,4.54-3.37,9.03-7.5,6.42-3.6-2.28-5.38-8.04-6.85-12.62-.33-1.04,4.18-5.33,6-5.06,5.84,.88,7.88,5.75,8.35,11.25Z" />
    <path class="cls-57" d="M1245.32,905.12c14.52,.26,28.14,3.29,39.56,13-14.57-.13-28.24-2.99-39.56-13Z" />
    <path class="cls-133" d="M1544.39,1074.35c5.86,.94,12.54,.68,14.23,8.35,.19,.86-2.29,3.26-3.65,3.36-8.26,.6-9.63-5.43-10.59-11.69l.02-.02Z" />
    <path class="cls-11" d="M2675.51,1567.5c-14.67,.57-29.33,1.14-44,1.71,14.44-6.41,28.62-19.47,44-1.71Z" />
    <path class="cls-37" d="M2715.5,1627.12c6.44,4.33,24.04-2.65,17.64,14.35-6.09,16.17-9.75,14.88-25.15-8.36,2.5-2,5.01-3.99,7.51-5.99Z" />
    <path class="cls-143" d="M1648.41,2197.66c-8.7-3.92-17.41-7.84-26.11-11.76-3.64-3.49-9.87-1.28-12.99-5.91-5.64-2.62-11.28-5.25-16.92-7.87-19.41-4.15-38.8-4.07-58.18,.25l-1.64-.87-1.2,1.41c-10.16,6.2-22.28,1.95-32.81,6.18l.2-.05c-20.65,6.91-42.37,4.75-63.52,7.62-17.31-7.65-50.02-2.16-33.42-38.91,4.27-6.76,8.53-13.52,12.8-20.28,23.94-2.74,38.64-21.9,58.07-32.66,4.44-8.5,8.88-17,13.32-25.5,9.9-8.29,23.03,.37,33.24-6.31l-.53,.25c6.69-7.24,16.71-3.74,24.46-7.58,8.7-13.11,21.79-19.78,36.13-24.61,51.4-8.68,92.75,20.36,135.89,39.24,12.95,5.67,27.39,1.38,38.03,10.99-9.16,1.85-20.17-2.72-27.1,6.72-3.56,4.85,2.21,7.3,4.53,10.54,9.64,13.44,19.04,2.88,28.48-.28,10.44-3.5,24.23-8.19,29.22,3.13,7.09,16.06,14.78,33.95,3.05,52.61-6.56,10.44-11.38,17.7-26.61,18.54-28.04,1.54-55.9,2.51-84,2.55-11.87,.01-28.09,5.79-32.4,22.57Z" />
    <path class="cls-143" d="M1862.99,2229.22c-2.63-5.52-5.26-11.04-7.89-16.56,.31-8.17-17.34-.85-11.74-13.59,24.32-27.14,45.41,2.6,69.62,1.5-12.73,20.24-32.66,22.06-50,28.66Z" />
    <path class="cls-76" d="M1804.29,2061.91c11.85-3.2,24.64-10.61,31.85,7.07-12.49,31.23-22.89,2.44-34.16-1.19,.55-2.05,1.32-4.01,2.31-5.88Z" />
    <path class="cls-60" d="M2349.95,2213.22c-12.83-2.41-25.66-4.82-38.49-7.23,18.38-27.13,25.58,5.26,38.49,7.23Z" />
    <path class="cls-24" d="M2142.4,2224.4c-18.68,.65-40.12,13.2-52.72-12.26,16.87,7.11,36.54,2.16,52.72,12.26Z" />
    <path class="cls-76" d="M1850.64,2077.98c6.06,9.99,12.12,19.98,18.18,29.97-33.59,6.71-17.6-16.65-18.18-29.97Z" />
    <path class="cls-144" d="M1988.39,2224.03c.4-2.09,.8-4.17,1.19-6.26,4.39-5.2,6.94-15.53,16.06-10.51,6.53,3.59-.62,11.31,.31,17.18-1.7,2.38-4.01,3.66-6.94,3.83-4.52,1.04-8.16-.15-10.63-4.24Z" />
    <path class="cls-143" d="M1732.38,2209.91c-16.07-1.27-32.68,4.19-48.22-3.85,16.1,.8,32.74-4.96,48.22,3.85Z" />
    <path class="cls-60" d="M2388.93,2211.85c-12.82,14.59-26.22,6.97-39.59,1.05,13.16-1.77,26.26-5.67,39.59-1.05Z" />
    <path class="cls-76" d="M1889.12,2115.49c15.16,4.93,32.13-7.18,46.52,4.95-15.54-1.32-31.92,5.21-46.52-4.95Z" />
    <path class="cls-143" d="M1806.54,2212.93c-3.6,7.5-3.37,18.04-15.13,19.08-7.14-2.18-14.29-4.35-21.43-6.53,14.19,1.66,25.74-4.4,36.57-12.55Z" />
    <path class="cls-143" d="M1836.91,2212.09c-10.48,.65-20.95,1.3-31.43,1.96,6.39-13.67,22.61-6.85,31.58-15.13,3.59,4.43,3.8,8.83-.16,13.18Z" />
    <path class="cls-143" d="M1869.42,2161.26c3.17-1.77,5.51-3.07,7.86-4.38,1.25,2.55,3.74,5.3,3.36,7.57-.33,1.97-3.91,3.41-6.05,5.08-1.49-2.39-2.98-4.78-5.17-8.27Z" />
    <path class="cls-19" d="M1973.48,2205.66c-2.17,.03-4.34,.07-6.51,.1-3.24-7.8-7.96-15.28-4.6-26.18,7.89,7.7,9.65,16.82,11.11,26.08Z" />
    <path class="cls-7" d="M1836.91,2212.09c.05-4.39,.1-8.78,.15-13.18,2.1,0,4.2,.04,6.3,.14,.11,7.81,17.04,1.11,11.74,13.59-6.06-.19-12.13-.37-18.19-.56Z" />
    <path class="cls-143" d="M1752.67,2081.03c10.55,.34,21.3,3.25,31.42-2.33-9.44,14.66-20.15,12.32-31.42,2.33Z" />
    <path class="cls-136" d="M535.98,619.22c.56,2.36,1.13,4.72,1.69,7.08-37.46,18.38-66.75,49.55-104.98,66.83-13.92,6.29-22.22,1.14-28.99-10.77-5.79-10.18-12.21-20.02-18.35-30,8.37,1.52,19.2,10.51,21.3-7.01-9.24-11.82,4.15-27.4-6.46-39-9.08-.35-17.45-6.13-28.33-2.46,9.66-13.85,18.7-26.39,15.32-43.04,29.09,18.23,59.1,33.27,95.14,27.43,8.62,26.38,34.13,23.46,53.65,30.95Z" />
    <path class="cls-3" d="M542.46,515.54c.05,10.72,.1,21.44,.16,32.16-8.65-10.68-8.52-21.4-.16-32.16Z" />
    <path class="cls-127" d="M400.2,606.35c19.4,10.14,1.36,26.49,6.46,39-11.35-11.47-4.58-25.95-6.46-39Z" />
    <path class="cls-127" d="M381.51,632.42c-.46-3.98-.91-7.95-1.37-11.93,11.06-7.32,12.77,1.63,12.63,8.57-.18,8.98-6.67,4.73-11.26,3.35Z" />
    <path class="cls-4" d="M165.6,502.48c2.7,10.75,3.23,21.51,.22,32.29-8.86-10.7-8.92-21.47-.22-32.29Z" />
    <path class="cls-147" d="M956.8,1008.39c-10.76,12.65-22.96,24.23-29.6,39.93,1.87,1.43,2.77,3.29,2.57,5.65-1.05,3.18-3.87,5.27-5.15,8.3-.51,2.18-.33,4.3,.58,6.35,.59,20.9-14.22,20.09-28.63,20.81-61.33,3.08-120.64-15.46-181.69-16.59-22.41-.42-38.13-18.1-53.8-32.89-6.31-15.83-14.52-30.89-15.97-48.51-1.09-13.34-5.47-24.75-21.75-27.42-16.21-2.66-15.07-15.19-13.76-27.62,1.53-14.46,12.1-12.64,21.62-12.66,16.11-.03,32.22,.23,48.34,.37,5.06-5.21,11.18-5.55,17.74-3.88,23.55,16.18,16.32,32.51-.6,49.32,18.16-4.93,19.75-26.12,35.03-32.83,2.98-.92,5.93-.85,8.84,.31,1.83,1.06,4.46,2.1,4.89,3.83,6.71,26.55,23.52,40.79,50.9,42.47-.3,3.49-.6,6.98-.9,10.46-1.1,6.42-2.08,12.88-6.64,18.12,4.26-4.61,9.87-6.59,15.48-8.56,5.11-6.77,13.12-12.87,14.85-20.41,8.34-36.41,36.51-37.57,64.21-35.65,19.81,1.38,40.21,6.11,58.54,13.7,21.03,8.71,19.02,28.64,14.9,47.38Z" />
    <path class="cls-147" d="M764.27,840.36c10.76,1.37,21.82-13.91,32.35,.58-3.88,1.83-7.75,3.67-11.63,5.5-1.07,3.02-4.75,7.54-3.82,8.36,27.51,24.37,6.3,52.21,3.84,77.48-2.28,23.35-19.87,24.89-45.57,6.72l-1.17-1.15c-9.21-14.42-10.15-36.83-34.96-36.1-10.5-1.44-16.99,7.2-25.69,10.27-1.32,.29-2.65,.56-3.97,.84-8.81-2.65-17.62-5.29-26.43-7.94-3.05-5.24-16.07,.38-12.79-11.74,14.73-7.48,27-15.41,31.19-34.37,6.03-27.32,30.02-33.46,54.06-36.25,12.6-1.46,25.43-.92,38.16-1.28,4.54,5.55,13.17,9.71,6.43,19.06-1.48,1.5-3.03,2.93-4.51,4.43,1.56-1.42,3.07-2.89,4.53-4.41Z" />
    <path class="cls-56" d="M634.42,893.19c4.26,3.91,8.53,7.83,12.79,11.74-7.44-.85-17.07,5.59-21.39-5-1.11-2.73,3.33-7.37,8.59-6.74Z" />
    <path class="cls-45" d="M925.2,1068.63c-1.42-2.64-2.85-5.28-4.27-7.92,2.22-1.59,4.13-1.28,5.74,.92l-.62,.1c-.28,2.3-.57,4.6-.85,6.9Z" />
    <path class="cls-35" d="M1479.83,789.44c-8.84,10.34-14.67,24.21-30.66,26.18-21.83-17.21,15.88-16.84,10.17-32.08-1.31-3.49,15.55-5.97,20.49,5.91Z" />
    <path class="cls-101" d="M1241.04,827.36c-1.11-2.15-2.21-4.3-3.32-6.45-1.85-1.42-2.36-2.68-1.56-3.79,.74-1.03,1.47-1.54,2.2-1.54,2.78-3.16,5.94-6.08,8.25-9.55,3.15-4.74,3.54-14.65,12.46-8.91,7.95,5.12-.09,10.53-1.91,16.03-2.74,8.29-4.34,16.66-16.12,14.22Z" />
    <path class="cls-28" d="M1381.7,744.51c6.55-.33,13.1-.66,19.64-.99-5.41,7.66,4.72,26.91-14.84,23.17-12.14-2.32-10.96-13-4.81-22.19Z" />
    <path class="cls-107" d="M1108.21,937.86c8.07-19.13-1.55-44.34,20.18-58.78,21.25,28.44,50.38,50.96,63.9,85.19-.06,15.2-8.94,18.25-21.57,15.14-9.24-2.27-17.2-9.58-27.73-6.85-35.46,9.13-43.75,.82-34.79-34.7Z" />
    <path class="cls-119" d="M1146.61,966.31c9.08-11.54,14.61,.98,19.93,4.14,11.66,6.94,18.9,2.97,25.76-6.19,10.95,6.45,21.91,12.9,32.86,19.35,13.53,9.7,10.73,16.86-3.45,22.26-23.61,2.41-46.52-2.29-69.64-6.05-10.3-1.68-15.62-5.54-16.2-15.79,.16-7.97,4.65-13.33,10.74-17.72Z" />
    <path class="cls-146" d="M739.43,939.01c35.32,12.19,36.18,11.32,38.45-25.59,.51-8.26,4.33-16.49,7.57-24.35,4.57-11.07,3.07-16.04-8.84-23.35-12.26-7.53-4.47-16.87,8.38-19.27,29.38,26.82,34.25,85.47,11.37,136.9-5.28,.66-10.75,.64-15.81,2.09-20.92,5.98-38.28,5.78-33.78-23.15,1.6-10.29-9.81-14.14-7.34-23.28Z" />
    <path class="cls-8" d="M887.79,853.21c.34-8.93,5.38-9.98,12.33-7.05,3.47,1.46,13.03-.35,5.31,8.39-5.88-.45-11.76-.89-17.63-1.34Z" />
    <path class="cls-91" d="M1087.01,958.5c19.28,29.4-6.11,44.25-20.42,62.71l.03,.09c-13.2-11.18-5.11-24.92-4.52-37.75,4.87-11.77,8.69-24.58,24.92-25.04Z" />
    <path class="cls-136" d="M1076.39,1075.04l38.85-.07c-12.93,9.02-25.88,8.92-38.85,.07Z" />
    <path class="cls-136" d="M1044.92,1138.82v-28.06c6.6,8.85,6.24,14.79,0,28.06Z" />
    <path class="cls-112" d="M1571.69,1977.35c-11.44-1.03-28.39,4.32-21.18-18.29,11.08,1.44,18.4,7.24,21.18,18.29Z" />
    <path class="cls-111" d="M1834.32,1937.51c-13.63-3.06-17.56-8.41-14.84-18.64,7.64,2.7,9.92,9.21,14.84,18.64Z" />
    <path class="cls-105" d="M2428.53,1718.34c-12.41-7.15-28.88-9.01-33.79-25.92,10.12-7.11,20.24-14.23,30.37-21.34,3.51,2.42,7.11,4.73,10.53,7.27,8.94,6.63,27.17,5.96,25.53,20.36-1.87,16.41-18.58,18.07-32.63,19.64Z" />
    <path class="cls-92" d="M2460.95,1646.4c13.09,1.32,27.28-4.65,38.99,5.86-13.17-.77-27.19,4.06-38.99-5.86Z" />
    <path class="cls-113" d="M2045.53,1985.76c3.48,26.57-11.77,47.94-19.79,71.31-2.24-.57-4.47-1.15-6.71-1.72-5.31-15.2-4.7-30.44-.39-45.72-1.12-15.23,1.51-29.35,12.18-41.09,2.3,7.96,16.98,5.35,14.7,17.21Z" />
    <path class="cls-43" d="M2104.03,2042.78c-11.22-13.15-16.42-28.85-19.25-45.55,1.09-2.82,3-4.9,5.65-6.34,14.35,8.86,10.8,28.24,24.02,39.21,7.8,6.47-6.26,8.56-10.42,12.68Z" />
    <path class="cls-40" d="M2090.43,1990.9c-1.88,2.11-3.77,4.23-5.65,6.34-3.64-19.41-4.71-38.85-.73-58.35,12.66,16.05,3.79,34.73,6.38,52.01Z" />
    <path class="cls-89" d="M1895.29,1931.94c-17.86-15.41-2.99-34.26-5.39-51.29,10.06-3.74-1.87-35.27,24.02-19,2.2,25.66-13.82,46.49-18.62,70.29Z" />
    <path class="cls-75" d="M2018.64,2009.64c.13,15.24,.26,30.48,.39,45.72-9.75-15.16-6.77-30.42-.39-45.72Z" />
    <path class="cls-14" d="M699.75,892.52c4.97,6.5,9.81,13-.62,18.99-8.72-.51-17.44-1.02-26.16-1.54,7.21-8.46,13.87-17.75,26.78-17.45Z" />
    <path class="cls-146" d="M764.27,840.36c-1.15,5.82,2.4,14.16-6.69,15.67-2.14,.35-7.5-5.34-7.57-8.32-.21-10.5,8.83-5.96,14.24-7.36l.02,.02Z" />
</svg>